<svg width="400" height="300" viewBox="0 0 400 300" fill="none" xmlns="http://www.w3.org/2000/svg">
<path d="M305.518 177.025L304.731 184.536C302.684 189.428 300.638 194.316 298.594 199.202C297.88 200.918 297.163 202.63 296.443 204.34C296.116 205.139 295.653 205.876 295.074 206.517C295.045 206.56 295.007 206.596 294.962 206.623C294.918 206.649 294.868 206.664 294.816 206.669C294.643 206.669 294.581 206.437 294.567 206.264C294.469 204.412 294.248 202.568 293.905 200.744C291.99 191.94 281.768 188.713 273.75 188.913C270.542 188.962 267.382 189.694 264.479 191.06C260.293 193.087 258.662 198.722 258.439 198.931L258.262 199.655L255.391 211.615C254.786 214.282 254.324 215.69 251.862 216.402C251.782 216.428 249.329 217.735 249.249 217.735C248.298 218.002 250.902 217.428 249.871 217.255L246.604 216.744L245.213 216.424L224.916 211.619C225.703 211.753 226.507 211.899 227.325 212.064L232.036 213.188L230.791 207.215C227.551 188.62 232.92 171.75 242.067 162.59C244.475 160.181 245.671 159.563 248.48 157.959L250.058 161.696C250.058 161.696 266.199 166.51 270.004 151.741C271.541 151.875 274.497 151.852 276.021 152.186C283.967 153.851 291.144 158.087 296.443 164.239C296.909 164.772 297.367 165.323 297.821 165.883L298.061 166.176C298.341 166.527 298.638 166.887 298.918 167.247L299.118 167.532C301.441 170.564 303.579 173.734 305.518 177.025V177.025Z" fill="white"/>
<path d="M113.72 99.2848C116.28 86.4852 127.15 74.0856 158.198 71.2456C227.21 64.9392 189.904 45.913 212.375 25.0914C234.845 4.26982 319.807 38.5266 297.581 92.0273C275.355 145.528 348.726 86.1474 379.801 153.914C384.302 163.748 386.47 174.49 386.134 185.3C385.742 196.722 382.801 207.912 377.525 218.05C367.601 237.436 349.166 254.707 322.505 265.409C318.57 267.012 314.452 268.453 310.15 269.733" stroke="#6B9EB6" stroke-width="2" stroke-miterlimit="10"/>
<path d="M332.326 204.553C331.788 210.833 327.53 211.855 327.53 211.855C323.93 213.984 318.402 211.695 317.286 207.704C317.27 207.661 317.261 207.616 317.26 207.571C316.371 204.153 314.637 199.762 312.309 194.958C307.82 184.096 301.984 173.145 294.5 164.483C289.201 158.332 282.025 154.097 274.079 152.43C274.052 152.43 274.039 152.403 274.012 152.403C263.474 149.23 258.346 142.75 256.124 136.537C256.124 136.537 256.124 136.537 256.124 136.511C255.172 132.586 254.204 128.76 254.724 126.444C255.612 122.386 256.057 118 254.95 117.111C253.559 115.947 251.044 116.809 244.644 118.098C239.102 119.235 236.146 118.591 235.48 115.204C235.374 114.679 235.321 114.145 235.32 113.609C235.293 113.947 233.986 112.605 233.924 112.925C233.506 114.653 232.671 115.347 230.849 116.107C228.142 117.231 227.036 121.573 226.636 124.466C226.218 127.546 227.604 131.795 228.702 134.688C227.298 133.084 225.689 133.271 223.173 134.244C222.542 134.484 220.951 134.417 219.694 133.977C219.871 133.825 220.081 133.714 220.307 133.653C220.711 133.519 217.778 132.062 218.205 131.968C222.476 131.004 224.871 127.444 224.364 124.311C223.107 116.422 224.782 107.142 230.111 100.996C235.986 94.2362 245.573 92.8318 253.688 95.9251C260.061 98.3472 266.088 103.316 268.297 109.942C268.297 109.969 268.297 109.996 268.323 110.022C268.604 110.865 268.82 111.729 268.968 112.605C269.781 117.533 268.043 122.529 267.079 127.4C266.732 129.155 267.612 131.071 267.799 132.462C268.87 140.817 278.514 143.177 286.145 146.724C302.184 154.194 315.282 166.967 324.09 182.5C329.939 192.784 332.028 199.798 332.326 204.553Z" fill="#6B9EB6"/>
<path d="M247.768 156.301C247.595 156.394 247.422 156.487 247.262 156.594C244.381 158.245 241.733 160.272 239.386 162.621C230.244 171.78 224.876 188.651 228.116 207.246L229.36 213.188" stroke="#6B9EB6" stroke-width="3" stroke-miterlimit="10"/>
<path d="M328.655 281.07C328.657 267.189 327.457 253.333 325.069 239.658C323.471 230.38 321.271 221.216 318.482 212.224C316.807 206.761 314.758 200.868 312.322 194.953C310.061 189.417 307.448 184.032 304.5 178.829C301.642 173.734 298.298 168.928 294.514 164.478C289.215 158.327 282.038 154.092 274.092 152.425C272.568 152.102 271.026 151.871 269.475 151.732" stroke="#6B9EB6" stroke-width="3" stroke-miterlimit="10"/>
<path d="M164.384 160.261L164.158 160.221C161.444 159.766 158.659 160 156.058 160.9C153.458 161.801 151.125 163.34 149.274 165.376L134.074 181.936L132.296 183.891C132.186 184.011 132.082 184.137 131.985 184.269" stroke="#6B9EB6" stroke-width="3" stroke-miterlimit="10"/>
<path d="M142.435 188.594L150.777 179.34L150.79 179.327" stroke="#6B9EB6" stroke-width="3" stroke-miterlimit="10"/>
<path d="M215.001 236.387L254.24 250.214C258.019 251.545 262.04 252.048 266.03 251.686C270.021 251.325 273.887 250.109 277.365 248.12C280.843 246.132 283.853 243.417 286.188 240.162C288.524 236.906 290.131 233.186 290.901 229.254L300.185 181.86C300.66 179.426 300.638 176.922 300.12 174.497C299.602 172.072 298.6 169.777 297.172 167.749C296.773 167.178 296.34 166.632 295.874 166.114" stroke="#6B9EB6" stroke-width="3" stroke-miterlimit="10"/>
<path d="M189.033 234.477C184.038 237.85 180.367 248.094 178.416 254.818C178.082 255.946 177.391 256.935 176.447 257.637C175.503 258.339 174.357 258.716 173.181 258.711C172.384 258.711 171.597 258.538 170.874 258.205C169.764 257.685 168.863 256.805 168.314 255.71C167.766 254.614 167.603 253.365 167.852 252.165C171.118 236.192 182.647 204.66 222.25 211.611C223.041 211.744 223.846 211.891 224.659 212.055L229.361 213.188L242.547 216.402L246.103 217.259C247.452 217.587 248.865 217.536 250.187 217.113C250.269 217.097 250.349 217.074 250.427 217.046C251.645 216.628 252.738 215.91 253.604 214.957C254.47 214.005 255.082 212.849 255.383 211.597L258.383 199.118L258.556 198.393L262.485 182.078" stroke="#6B9EB6" stroke-width="3" stroke-miterlimit="10"/>
<path d="M169.718 183.336H156.279C154.746 183.336 153.277 182.727 152.193 181.644C151.11 180.56 150.501 179.091 150.501 177.558V177.558C150.501 176.026 151.11 174.556 152.193 173.473C153.277 172.389 154.746 171.781 156.279 171.781H175.318" stroke="#6B9EB6" stroke-width="3" stroke-miterlimit="10"/>
<path d="M159.403 183.331C159.212 185.687 158.314 187.429 156.99 188.633C153.577 191.744 147.324 191.389 142.973 189.26" stroke="#6B9EB6" stroke-width="3" stroke-miterlimit="10"/>
<path d="M134.093 181.931C130.239 177.274 131.026 170.958 134.017 166.078C142.501 152.23 161.887 154.888 174.46 160.643C184.647 165.292 193.571 172.278 202.26 179.247C206.504 182.651 210.673 186.198 214.704 189.913C215.444 190.583 216.326 191.076 217.284 191.355C218.242 191.635 219.251 191.693 220.235 191.526C221.219 191.359 222.152 190.972 222.965 190.392C223.777 189.812 224.448 189.056 224.926 188.18C227.148 184.078 229.552 179.602 230.005 178.362" stroke="#6B9EB6" stroke-width="3" stroke-miterlimit="10"/>
<path d="M156.994 188.633C156.994 188.633 177.042 199.509 191.935 215.135" stroke="#6B9EB6" stroke-width="4.52" stroke-miterlimit="10"/>
<path d="M184.14 240.374C181.917 244.17 183.829 249.743 188.028 251.076C193.392 252.807 199.063 253.375 204.663 252.743C210.774 252.032 214.837 246.987 217.512 241.21C217.706 240.78 217.807 240.314 217.809 239.843C217.81 239.371 217.713 238.905 217.523 238.473C217.332 238.042 217.053 237.655 216.704 237.339C216.354 237.023 215.942 236.783 215.494 236.636V236.636C214.686 236.37 213.807 236.419 213.032 236.772C212.258 237.125 211.645 237.758 211.317 238.543C210.428 240.596 209.054 243.165 207.232 244.321" stroke="#6B9EB6" stroke-width="3" stroke-miterlimit="10"/>
<path d="M194.605 239.663C194.605 239.663 189.117 245.565 193.445 251.814C193.636 252.076 193.86 252.313 194.112 252.516" stroke="#6B9EB6" stroke-width="3" stroke-miterlimit="10"/>
<path d="M201.846 240.636C201.846 240.636 196.77 252.058 203.281 252.894" stroke="#6B9EB6" stroke-width="3" stroke-miterlimit="10"/>
<path d="M382.04 281.08H67.7207" stroke="#6B9EB6" stroke-width="3" stroke-miterlimit="10"/>
<path d="M191.375 259.556H160.029C159.711 262.515 158.309 265.252 156.094 267.239C153.878 269.226 151.006 270.324 148.03 270.32H42.6729C42.6787 273.169 43.8133 275.901 45.8282 277.915C47.8431 279.93 50.5742 281.065 53.4237 281.071H191.375C194.229 281.07 196.967 279.938 198.988 277.923C201.01 275.908 202.151 273.174 202.162 270.32V263.094C202.162 262.151 201.787 261.246 201.12 260.579C200.453 259.913 199.549 259.538 198.606 259.538L191.375 259.556Z" stroke="#6B9EB6" stroke-width="3" stroke-miterlimit="10"/>
<path d="M142.972 189.26C143.896 190.538 144.56 191.984 144.928 193.518L159.776 255.445C160.104 256.789 160.19 258.181 160.029 259.556C159.711 262.515 158.309 265.252 156.094 267.239C153.878 269.226 151.006 270.324 148.03 270.32H40.7172C38.0069 270.32 35.3758 269.406 33.248 267.728C31.1202 266.049 29.6198 263.703 28.9887 261.067L14.1669 199.144C13.7407 197.371 13.7223 195.525 14.1129 193.743C14.5036 191.962 15.2931 190.293 16.4221 188.861C17.5512 187.429 18.9903 186.272 20.6311 185.477C22.272 184.681 24.0719 184.268 25.8954 184.269H133.199C134.962 184.266 136.704 184.651 138.3 185.399C139.896 186.146 141.308 187.237 142.434 188.593L142.972 189.26Z" stroke="#6B9EB6" stroke-width="3" stroke-miterlimit="10"/>
<path d="M274.079 152.412C274.053 152.412 274.039 152.386 274.012 152.386C263.475 149.212 258.346 142.733 256.124 136.519C256.124 136.519 256.124 136.519 256.124 136.493C254.386 131.649 254.426 126.96 255.053 124.16C255.428 122.677 255.666 121.162 255.764 119.636C255.911 115.311 252.738 116.369 243.662 118.178C239.494 119.022 236.827 117.44 235.494 115.191C235.364 114.995 235.251 114.789 235.156 114.573C234.534 113.265 234.276 111.812 234.409 110.369" stroke="#6B9EB6" stroke-width="3" stroke-miterlimit="10"/>
<path d="M229.187 135.275C229.027 135.048 228.863 134.83 228.703 134.657C227.298 133.053 225.69 133.239 223.174 134.213C222.543 134.453 220.952 134.386 219.694 133.946C218.636 133.568 217.845 132.915 218.205 131.937C218.298 131.736 218.435 131.559 218.607 131.42C218.779 131.28 218.981 131.182 219.196 131.133C219.616 131.027 220.04 130.942 220.468 130.879C224.783 129.915 223.819 124.92 223.294 121.786C222.023 113.902 223.712 104.622 229.094 98.4759C235.023 91.7161 244.72 90.3072 252.911 93.4005C260.115 96.1204 266.893 102.022 268.297 109.911C268.297 109.938 268.297 109.964 268.324 109.991C268.351 110.018 268.324 110.058 268.324 110.084C269.155 115.013 268.324 120.355 267.359 125.231C266.782 128.119 267 130.479 267.804 132.43C270.324 138.817 278.826 141.044 285.679 144.203C301.896 151.674 315.109 164.447 324.016 179.98C331.047 192.3 332.713 199.877 332.326 204.553C331.789 210.833 327.531 211.855 327.531 211.855C323.931 213.984 318.398 211.695 317.287 207.704C317.27 207.661 317.261 207.616 317.26 207.57C316.371 204.153 314.638 199.762 312.309 194.958" stroke="#6B9EB6" stroke-width="3" stroke-miterlimit="10"/>
<path d="M234.391 110.369C234.391 112.747 233.271 115.093 230.836 116.093C228.098 117.222 226.987 120.196 226.587 123.089C226.028 127.325 226.94 131.625 229.169 135.271C231.236 138.702 234.6 142.484 239.365 142.484C248.093 142.484 251.835 138.275 251.835 138.275" stroke="#6B9EB6" stroke-width="3" stroke-miterlimit="10"/>
<path d="M244.439 122.969C244.439 123.512 243.998 123.953 243.454 123.953C242.91 123.953 242.47 123.512 242.47 122.969C242.47 122.425 242.91 121.984 243.454 121.984C243.998 121.984 244.439 122.425 244.439 122.969Z" fill="#6B9EB6" stroke="#6B9EB6"/>
<path d="M231.381 123.835C231.381 124.379 230.94 124.82 230.397 124.82C229.853 124.82 229.412 124.379 229.412 123.835C229.412 123.292 229.853 122.851 230.397 122.851C230.94 122.851 231.381 123.292 231.381 123.835Z" fill="#6B9EB6" stroke="#6B9EB6"/>
<path d="M236.683 121.92C236.683 121.92 235.941 127.782 236.238 128.587C236.536 129.391 238.394 128.471 238.394 128.471" stroke="#6B9EB6" stroke-width="2" stroke-miterlimit="10"/>
<path d="M243.844 132.18C242.461 135.27 239.105 136.578 236.389 135.269" stroke="#6B9EB6" stroke-width="2" stroke-miterlimit="10"/>
<path d="M241.965 142.483L250.058 161.71C250.058 161.71 265.671 165.909 269.466 151.136" stroke="#6B9EB6" stroke-width="3" stroke-miterlimit="10"/>
<path d="M88.4092 242.128C94.5214 240.201 97.7207 233.071 95.5551 226.203C93.3896 219.335 86.6792 215.329 80.567 217.256C74.4549 219.183 71.2555 226.313 73.4211 233.182C75.5866 240.05 82.2971 244.056 88.4092 242.128Z" fill="white"/>
<path d="M239.804 281.071C239.631 265.422 236.871 249.96 235.6 243.649" stroke="#6B9EB6" stroke-width="3" stroke-miterlimit="10"/>
</svg>
