<svg width="65" height="64" viewBox="0 0 65 64" fill="none" xmlns="http://www.w3.org/2000/svg">
<path fill-rule="evenodd" clip-rule="evenodd" d="M32.0073 63.8437C14.3848 63.8437 0 49.5592 0 31.9218C0 14.2845 14.3848 0 32.0073 0C49.6298 0 64.0147 14.2845 64.0147 31.9218C64.0147 49.5592 49.6298 63.8437 32.0073 63.8437ZM4 31.9218C4 47.3352 16.5791 59.8437 32.0073 59.8437C47.4356 59.8437 60.0147 47.3352 60.0147 31.9218C60.0147 16.5085 47.4356 4 32.0073 4C16.5791 4 4 16.5085 4 31.9218Z" fill="white"/>
<path d="M12.6191 26.8932C12.4671 26.644 12.3259 26.3042 12.1955 25.8738C12.0652 25.4434 12 24.9903 12 24.5146C12 23.6311 12.1847 22.9968 12.554 22.6117C12.945 22.2265 13.4447 22.034 14.053 22.034H28.2607C28.4128 22.2832 28.554 22.623 28.6843 23.0534C28.8147 23.4838 28.8798 23.9369 28.8798 24.4126C28.8798 25.2961 28.6843 25.9304 28.2933 26.3155C27.924 26.7006 27.4352 26.8932 26.8269 26.8932H23.2098V42.5922C22.9708 42.6602 22.5906 42.7282 22.0692 42.7961C21.5696 42.8641 21.0699 42.8981 20.5703 42.8981C20.0706 42.8981 19.6253 42.8528 19.2342 42.7621C18.8649 42.6942 18.5499 42.5583 18.2892 42.3544C18.0285 42.1505 17.833 41.8673 17.7026 41.5049C17.5723 41.1424 17.5071 40.6667 17.5071 40.0777V26.8932H12.6191Z" fill="white"/>
<path d="M35.1303 27.165C35.3693 27.0518 35.7386 26.9272 36.2383 26.7913C36.7597 26.6327 37.2811 26.5534 37.8024 26.5534C38.7149 26.5534 39.4752 26.7006 40.0835 26.9951C40.6918 27.267 41.0611 27.6748 41.1914 28.2184C41.4304 29.1472 41.6477 30.0194 41.8432 30.835C42.0604 31.6278 42.2668 32.3981 42.4623 33.1456C42.6578 33.8706 42.8425 34.5955 43.0163 35.3204C43.2118 36.0453 43.3965 36.8042 43.5703 37.5971H43.7332C43.9287 36.2152 44.1025 34.9013 44.2546 33.6553C44.4067 32.3867 44.5479 31.1521 44.6782 29.9515C44.8086 28.7282 44.9389 27.5275 45.0692 26.3495C45.1996 25.1489 45.3299 23.9369 45.4603 22.7136C46.2641 22.2379 47.1222 22 48.0346 22C48.8384 22 49.5336 22.1812 50.1202 22.5437C50.7067 22.9061 51 23.5178 51 24.3786C51 24.877 50.9457 25.5906 50.8371 26.5194C50.7502 27.4256 50.6198 28.445 50.446 29.5777C50.294 30.7104 50.1093 31.8997 49.8921 33.1456C49.6748 34.3916 49.4467 35.5809 49.2077 36.7136C48.9688 37.8463 48.7189 38.877 48.4582 39.8058C48.2193 40.712 47.9912 41.4142 47.7739 41.9126C47.4481 42.2298 46.9158 42.4903 46.1772 42.6942C45.4386 42.8981 44.6782 43 43.8961 43C42.8751 43 42.0061 42.8641 41.2892 42.5922C40.594 42.2977 40.1704 41.89 40.0183 41.3689C39.7359 40.4628 39.4318 39.3867 39.1059 38.1408C38.78 36.8948 38.4325 35.5243 38.0631 34.0291C37.759 35.5016 37.444 36.9401 37.1181 38.3447C36.7923 39.7492 36.499 40.9385 36.2383 41.9126C35.9124 42.2298 35.4236 42.4903 34.7719 42.6942C34.1202 42.8981 33.4033 43 32.6212 43C31.6436 43 30.7529 42.8641 29.9491 42.5922C29.167 42.2977 28.6565 41.89 28.4175 41.3689C28.222 40.9612 28.0048 40.3608 27.7658 39.568C27.5485 38.7524 27.3204 37.835 27.0815 36.8155C26.8425 35.7735 26.5927 34.6521 26.332 33.4515C26.093 32.2508 25.8649 31.0502 25.6477 29.8495C25.4521 28.6489 25.2675 27.4822 25.0937 26.3495C24.9199 25.1942 24.7895 24.1408 24.7026 23.1893C25.0068 22.8948 25.4304 22.623 25.9735 22.3738C26.5166 22.1246 27.1032 22 27.7332 22C28.5587 22 29.2322 22.1926 29.7536 22.5777C30.2967 22.9401 30.6334 23.5631 30.7637 24.4466C31.1113 26.7573 31.3938 28.6828 31.611 30.2233C31.85 31.7638 32.0346 33.0324 32.165 34.0291C32.317 35.0032 32.4257 35.7621 32.4908 36.3058C32.556 36.8495 32.6212 37.2799 32.6864 37.5971H32.8493C33.0448 36.6909 33.2295 35.8527 33.4033 35.0825C33.5771 34.3123 33.7508 33.5421 33.9246 32.7718C34.1202 31.979 34.3157 31.1408 34.5112 30.2573C34.7067 29.3511 34.9131 28.3204 35.1303 27.165Z" fill="white"/>
</svg>
