<svg width="16" height="18" viewBox="0 0 16 18" fill="none" xmlns="http://www.w3.org/2000/svg">
<path fill-rule="evenodd" clip-rule="evenodd" d="M6.22231 2.66355C6.70222 2.15251 7.34269 1.875 7.99976 1.875C8.65683 1.875 9.2973 2.15251 9.77722 2.66355C10.2586 3.17618 10.5366 3.88098 10.5366 4.625C10.5366 5.36902 10.2586 6.07382 9.77722 6.58645C9.2973 7.09749 8.65683 7.375 7.99976 7.375C7.34269 7.375 6.70222 7.09749 6.22231 6.58645C5.74089 6.07382 5.46289 5.36902 5.46289 4.625C5.46289 3.88098 5.74089 3.17618 6.22231 2.66355ZM7.99976 0.375C6.91337 0.375 5.88178 0.834984 5.12888 1.6367C4.37748 2.43683 3.96289 3.5125 3.96289 4.625C3.96289 5.7375 4.37748 6.81317 5.12888 7.6133C5.88178 8.41502 6.91337 8.875 7.99976 8.875C9.08615 8.875 10.1177 8.41502 10.8706 7.6133C11.622 6.81317 12.0366 5.7375 12.0366 4.625C12.0366 3.5125 11.622 2.43683 10.8706 1.6367C10.1177 0.834984 9.08615 0.375 7.99976 0.375ZM3.41704 12.8011C4.20515 11.9619 5.26363 11.5 6.35657 11.5H9.64343C10.7364 11.5 11.7948 11.9619 12.583 12.8011C13.3726 13.6419 13.8237 14.7919 13.8237 16V16.875C13.8237 17.2892 14.1595 17.625 14.5737 17.625C14.9879 17.625 15.3237 17.2892 15.3237 16.875V16C15.3237 14.4234 14.736 12.9026 13.6764 11.7743C12.6153 10.6444 11.1657 10 9.64343 10H6.35657C4.83431 10 3.38471 10.6444 2.32361 11.7743C1.264 12.9026 0.67627 14.4234 0.67627 16V16.875C0.67627 17.2892 1.01206 17.625 1.42627 17.625C1.84048 17.625 2.17627 17.2892 2.17627 16.875V16C2.17627 14.7919 2.62742 13.6419 3.41704 12.8011Z" fill="#6B9EB6"/>
</svg>
