<svg width="12" height="22" viewBox="0 0 12 22" fill="none" xmlns="http://www.w3.org/2000/svg">
<path d="M11.2851 13.0456C11.002 12.5108 10.6189 12.0435 10.1595 11.6727C9.70003 11.3018 9.17402 11.0353 8.61397 10.8897C8.08848 10.7218 7.55517 10.5831 7.01618 10.474V4.58411C8.08774 4.7065 9.11005 5.12761 9.98001 5.80495C10.0401 5.86166 10.11 5.90522 10.1859 5.93314C10.2618 5.96106 10.3421 5.97279 10.4222 5.96766C10.5023 5.96254 10.5807 5.94066 10.6529 5.90327C10.7251 5.86588 10.7897 5.81372 10.8429 5.74976C10.8962 5.6858 10.9371 5.6113 10.9633 5.5305C10.9895 5.44971 11.0006 5.36421 10.9957 5.27888C10.9909 5.19356 10.9704 5.11008 10.9353 5.03321C10.9002 4.95634 10.8512 4.88759 10.7911 4.83087C9.69965 3.93576 8.38902 3.39465 7.01618 3.27235V1.25925C7.01618 1.08702 6.95193 0.921848 6.83756 0.800064C6.72319 0.678281 6.56808 0.609863 6.40634 0.609863C6.24459 0.609863 6.08948 0.678281 5.97511 0.800064C5.86074 0.921848 5.79649 1.08702 5.79649 1.25925V3.20741C3.11318 3.27235 1.63127 4.6945 1.17998 5.92184C0.878925 6.71218 0.850322 7.59048 1.09924 8.40112C1.34817 9.21176 1.85854 9.9024 2.53993 10.3507C3.53178 10.9945 4.64273 11.4021 5.79649 11.5455V17.4939C4.20438 17.4086 2.67921 16.7853 1.44221 15.7146C1.38701 15.6446 1.31856 15.5879 1.24135 15.548C1.16414 15.5082 1.07989 15.4861 0.994121 15.4833C0.908352 15.4805 0.82299 15.497 0.743615 15.5317C0.66424 15.5664 0.592639 15.6185 0.533493 15.6847C0.474346 15.7509 0.428984 15.8297 0.400374 15.9158C0.371764 16.002 0.360548 16.0936 0.36746 16.1847C0.374373 16.2757 0.399258 16.3642 0.440489 16.4444C0.481719 16.5245 0.538367 16.5945 0.60673 16.6497C2.06543 17.9574 3.89119 18.7113 5.79649 18.7927V20.7408C5.79649 20.9131 5.86074 21.0782 5.97511 21.2C6.08948 21.3218 6.24459 21.3902 6.40634 21.3902C6.56808 21.3902 6.72319 21.3218 6.83756 21.2C6.95193 21.0782 7.01618 20.9131 7.01618 20.7408V18.7927C8.73594 18.6693 10.7179 18.0849 11.468 15.7016C11.6037 15.268 11.6574 14.81 11.626 14.3541C11.5946 13.8983 11.4788 13.4535 11.2851 13.0456ZM3.22905 9.25969C2.78375 8.97742 2.4476 8.53527 2.28104 8.01271C2.11448 7.49015 2.12843 6.92147 2.32039 6.40888C2.38747 6.21407 3.07049 4.58411 5.79649 4.50618V10.2208C4.88676 10.0961 4.01192 9.76864 3.22905 9.25969ZM10.3093 15.26C9.87024 16.6497 8.89449 17.3186 7.01618 17.4679V11.7988C7.40648 11.8897 7.80897 11.9936 8.23586 12.13C8.63912 12.2275 9.01954 12.4114 9.35398 12.6704C9.68841 12.9294 9.96988 13.2581 10.1813 13.6366C10.4204 14.1394 10.4664 14.7217 10.3093 15.26Z" fill="#6B9EB6" stroke="#6B9EB6" stroke-width="0.2"/>
</svg>
