<svg width="18" height="20" viewBox="0 0 18 20" fill="none" xmlns="http://www.w3.org/2000/svg">
<path d="M8.03225 0.650736C8.29379 0.387432 8.64007 0.240723 8.99999 0.240723C9.35992 0.240723 9.7062 0.387432 9.96774 0.650736L16.7913 7.51923C17.2139 7.94373 17.4519 8.53623 17.4519 9.15423V17.5092C17.4519 18.106 17.2293 18.6783 16.8331 19.1002C16.4368 19.5222 15.8994 19.7592 15.339 19.7592H12.5216C12.244 19.7592 11.9692 19.701 11.7127 19.5878C11.4563 19.4746 11.2233 19.3088 11.027 19.0997C10.8308 18.8906 10.6752 18.6424 10.5691 18.3692C10.463 18.0961 10.4085 17.8033 10.4087 17.5077V13.7577C10.4087 13.5588 10.3344 13.3681 10.2024 13.2274C10.0703 13.0868 9.89112 13.0077 9.70432 13.0077H8.29567C8.10887 13.0077 7.92972 13.0868 7.79763 13.2274C7.66554 13.3681 7.59134 13.5588 7.59134 13.7577V17.5077C7.59134 18.1045 7.36872 18.6768 6.97246 19.0987C6.5762 19.5207 6.03875 19.7577 5.47835 19.7577H2.66104C2.10064 19.7577 1.56319 19.5207 1.16693 19.0987C0.770668 18.6768 0.54805 18.1045 0.54805 17.5077V9.15273C0.54805 8.53473 0.787522 7.94223 1.21012 7.51773L8.03225 0.647736V0.650736ZM8.99999 1.73974L2.17646 8.60973C2.10719 8.67966 2.05199 8.76386 2.01421 8.8572C1.97643 8.95055 1.95687 9.05109 1.95671 9.15273V17.5077C1.95671 17.7066 2.03091 17.8974 2.163 18.0381C2.29509 18.1787 2.47424 18.2577 2.66104 18.2577H5.47835C5.66515 18.2577 5.8443 18.1787 5.97639 18.0381C6.10847 17.8974 6.18268 17.7066 6.18268 17.5077V13.7577C6.18268 13.161 6.4053 12.5887 6.80156 12.1667C7.19782 11.7448 7.73527 11.5077 8.29567 11.5077H9.70432C10.2647 11.5077 10.8022 11.7448 11.1984 12.1667C11.5947 12.5887 11.8173 13.161 11.8173 13.7577V17.5077C11.8173 17.7066 11.8915 17.8974 12.0236 18.0381C12.1557 18.1787 12.3348 18.2577 12.5216 18.2577H15.339C15.5258 18.2577 15.7049 18.1787 15.837 18.0381C15.9691 17.8974 16.0433 17.7066 16.0433 17.5077V9.15273C16.0433 9.05084 16.0238 8.95001 15.9861 8.85639C15.9483 8.76277 15.893 8.67834 15.8235 8.60823L8.99999 1.73974Z" fill="#00a4b7"/>
</svg>
