<svg width="18" height="20" viewBox="0 0 18 20" fill="none" xmlns="http://www.w3.org/2000/svg">
<path d="M8.03205 0.650736C8.29359 0.387432 8.63987 0.240723 8.9998 0.240723C9.35972 0.240723 9.706 0.387432 9.96754 0.650736L16.7911 7.51923C17.2137 7.94373 17.4517 8.53623 17.4517 9.15423V17.5092C17.4517 18.106 17.2291 18.6783 16.8329 19.1002C16.4366 19.5222 15.8992 19.7592 15.3388 19.7592H12.5214C12.2438 19.7592 11.969 19.701 11.7125 19.5878C11.4561 19.4746 11.2231 19.3088 11.0268 19.0997C10.8306 18.8906 10.675 18.6424 10.5689 18.3692C10.4628 18.0961 10.4083 17.8033 10.4085 17.5077V13.7577C10.4085 13.5588 10.3342 13.3681 10.2022 13.2274C10.0701 13.0868 9.89092 13.0077 9.70412 13.0077H8.29547C8.10867 13.0077 7.92952 13.0868 7.79743 13.2274C7.66534 13.3681 7.59114 13.5588 7.59114 13.7577V17.5077C7.59114 18.1045 7.36852 18.6768 6.97226 19.0987C6.576 19.5207 6.03855 19.7577 5.47815 19.7577H2.66084C2.10044 19.7577 1.56299 19.5207 1.16673 19.0987C0.770469 18.6768 0.547852 18.1045 0.547852 17.5077V9.15273C0.547852 8.53473 0.787323 7.94223 1.20992 7.51773L8.03205 0.647736V0.650736ZM8.9998 1.73974L2.17626 8.60973C2.10699 8.67966 2.05179 8.76386 2.01401 8.8572C1.97624 8.95055 1.95667 9.05109 1.95651 9.15273V17.5077C1.95651 17.7066 2.03071 17.8974 2.1628 18.0381C2.29489 18.1787 2.47404 18.2577 2.66084 18.2577H5.47815C5.66495 18.2577 5.8441 18.1787 5.97619 18.0381C6.10828 17.8974 6.18248 17.7066 6.18248 17.5077V13.7577C6.18248 13.161 6.4051 12.5887 6.80136 12.1667C7.19762 11.7448 7.73507 11.5077 8.29547 11.5077H9.70412C10.2645 11.5077 10.802 11.7448 11.1982 12.1667C11.5945 12.5887 11.8171 13.161 11.8171 13.7577V17.5077C11.8171 17.7066 11.8913 17.8974 12.0234 18.0381C12.1555 18.1787 12.3346 18.2577 12.5214 18.2577H15.3388C15.5256 18.2577 15.7047 18.1787 15.8368 18.0381C15.9689 17.8974 16.0431 17.7066 16.0431 17.5077V9.15273C16.0431 9.05084 16.0236 8.95001 15.9859 8.85639C15.9481 8.76277 15.8928 8.67834 15.8233 8.60823L8.9998 1.73974Z" fill="url(#paint0_linear_1652_681)"/>
<defs>
<linearGradient id="paint0_linear_1652_681" x1="4.52524" y1="9.99997" x2="14.0337" y2="9.99997" gradientUnits="userSpaceOnUse">
<stop stop-color="#359CBB"/>
<stop offset="1" stop-color="#64C299"/>
</linearGradient>
</defs>
</svg>
