<svg width="12" height="22" viewBox="0 0 12 22" fill="none" xmlns="http://www.w3.org/2000/svg">
<path d="M11.2848 13.0451C11.0018 12.5103 10.6187 12.043 10.1592 11.6722C9.69979 11.3014 9.17377 11.0348 8.61372 10.8892C8.08824 10.7213 7.55492 10.5826 7.01593 10.4736V4.58362C8.0875 4.70601 9.10981 5.12712 9.97977 5.80447C10.0398 5.86118 10.1098 5.90473 10.1857 5.93265C10.2615 5.96057 10.3418 5.9723 10.422 5.96717C10.5021 5.96205 10.5805 5.94017 10.6527 5.90278C10.7249 5.86539 10.7894 5.81323 10.8427 5.74927C10.896 5.68531 10.9369 5.61081 10.9631 5.53001C10.9893 5.44922 11.0003 5.36372 10.9955 5.2784C10.9907 5.19307 10.9701 5.10959 10.935 5.03272C10.8999 4.95585 10.8509 4.8871 10.7909 4.83039C9.69941 3.93527 8.38878 3.39416 7.01593 3.27186V1.25876C7.01593 1.08653 6.95168 0.921359 6.83732 0.799576C6.72295 0.677792 6.56783 0.609375 6.40609 0.609375C6.24435 0.609375 6.08923 0.677792 5.97487 0.799576C5.8605 0.921359 5.79625 1.08653 5.79625 1.25876V3.20692C3.11294 3.27186 1.63102 4.69402 1.17974 5.92136C0.87868 6.71169 0.850078 7.58999 1.099 8.40063C1.34792 9.21127 1.8583 9.90191 2.53969 10.3502C3.53153 10.994 4.64248 11.4016 5.79625 11.545V17.4934C4.20414 17.4081 2.67897 16.7848 1.44197 15.7141C1.38677 15.6441 1.31832 15.5874 1.24111 15.5475C1.16389 15.5077 1.07965 15.4856 0.993877 15.4828C0.908107 15.48 0.822746 15.4965 0.743371 15.5312C0.663996 15.5659 0.592395 15.6181 0.533248 15.6843C0.474102 15.7505 0.42874 15.8292 0.40013 15.9154C0.371519 16.0015 0.360304 16.0931 0.367216 16.1842C0.374129 16.2753 0.399014 16.3638 0.440244 16.4439C0.481475 16.524 0.538123 16.594 0.606485 16.6492C2.06519 17.9569 3.89095 18.7108 5.79625 18.7922V20.7404C5.79625 20.9126 5.8605 21.0778 5.97487 21.1995C6.08923 21.3213 6.24435 21.3897 6.40609 21.3897C6.56783 21.3897 6.72295 21.3213 6.83732 21.1995C6.95168 21.0778 7.01593 20.9126 7.01593 20.7404V18.7922C8.73569 18.6688 10.7177 18.0844 11.4678 15.7011C11.6035 15.2675 11.6572 14.8095 11.6258 14.3536C11.5944 13.8978 11.4785 13.453 11.2848 13.0451ZM3.22881 9.2592C2.7835 8.97694 2.44735 8.53478 2.28079 8.01222C2.11423 7.48967 2.12819 6.92098 2.32014 6.4084C2.38723 6.21358 3.07025 4.58362 5.79625 4.50569V10.2203C4.88651 10.0956 4.01168 9.76815 3.22881 9.2592ZM10.3091 15.2595C9.87 16.6492 8.89425 17.3181 7.01593 17.4674V11.7983C7.40623 11.8892 7.80873 11.9931 8.23562 12.1295C8.63888 12.227 9.01929 12.4109 9.35373 12.6699C9.68817 12.9289 9.96964 13.2576 10.181 13.6361C10.4202 14.1389 10.4661 14.7212 10.3091 15.2595Z" fill="url(#paint0_linear_1654_4400)" stroke="url(#paint1_linear_1654_4400)" stroke-width="0.2"/>
<defs>
<linearGradient id="paint0_linear_1654_4400" x1="3.01683" y1="10.9996" x2="9.3558" y2="10.9996" gradientUnits="userSpaceOnUse">
<stop stop-color="#359CBB"/>
<stop offset="1" stop-color="#64C299"/>
</linearGradient>
<linearGradient id="paint1_linear_1654_4400" x1="3.01683" y1="10.9996" x2="9.3558" y2="10.9996" gradientUnits="userSpaceOnUse">
<stop stop-color="#359CBB"/>
<stop offset="1" stop-color="#64C299"/>
</linearGradient>
</defs>
</svg>
