<svg width="20" height="18" viewBox="0 0 20 18" fill="none" xmlns="http://www.w3.org/2000/svg">
<path d="M19.3915 3.08592C19.3915 2.28742 19.0937 1.52163 18.5634 0.956958C18.0331 0.392286 17.314 0.0751953 16.5641 0.0751953H3.43676C2.68688 0.0751953 1.96773 0.392316 1.43744 0.956958C0.907156 1.5216 0.609375 2.28742 0.609375 3.08592V14.9139C0.609375 15.7124 0.907185 16.4782 1.43744 17.0429C1.9677 17.6076 2.68688 17.9247 3.43676 17.9247H16.5641C17.314 17.9247 18.0331 17.6075 18.5634 17.0429C19.0937 16.4782 19.3915 15.7124 19.3915 14.9139V3.08592ZM18.1796 14.9139C18.1796 15.3703 18.0095 15.8078 17.7066 16.1305C17.4036 16.453 16.9926 16.6344 16.5641 16.6344H3.43676C3.00821 16.6344 2.5973 16.453 2.29425 16.1305C1.99137 15.8079 1.82105 15.3703 1.82105 14.9139V6.09669H18.1797L18.1796 14.9139ZM18.1796 4.80636H1.82098V3.08588C1.82098 2.62955 1.9913 2.19199 2.29418 1.86929C2.5972 1.54677 3.00814 1.36541 3.43669 1.36541H16.564C16.9926 1.36541 17.4035 1.54677 17.7065 1.86929C18.0094 2.19196 18.1797 2.62955 18.1797 3.08588L18.1796 4.80636Z" fill="url(#paint0_linear_1654_3015)"/>
<path d="M7.2735 3.08601C7.2735 3.67991 6.82143 4.16129 6.2637 4.16129C5.70611 4.16129 5.25391 3.67991 5.25391 3.08601C5.25391 2.49212 5.70611 2.01074 6.2637 2.01074C6.82143 2.01074 7.2735 2.49212 7.2735 3.08601Z" fill="url(#paint1_linear_1654_3015)"/>
<path d="M9.89947 3.08601C9.89947 3.67991 9.4474 4.16129 8.88968 4.16129C8.33195 4.16129 7.87988 3.67991 7.87988 3.08601C7.87988 2.49212 8.33195 2.01074 8.88968 2.01074C9.4474 2.01074 9.89947 2.49212 9.89947 3.08601Z" fill="url(#paint2_linear_1654_3015)"/>
<path d="M4.6485 3.08601C4.6485 3.67991 4.19629 4.16129 3.6387 4.16129C3.08097 4.16129 2.62891 3.67991 2.62891 3.08601C2.62891 2.49212 3.08097 2.01074 3.6387 2.01074C4.19629 2.01074 4.6485 2.49212 4.6485 3.08601Z" fill="url(#paint3_linear_1654_3015)"/>
<defs>
<linearGradient id="paint0_linear_1654_3015" x1="5.02869" y1="8.99992" x2="15.5936" y2="8.99992" gradientUnits="userSpaceOnUse">
<stop stop-color="#359CBB"/>
<stop offset="1" stop-color="#64C299"/>
</linearGradient>
<linearGradient id="paint1_linear_1654_3015" x1="5.7291" y1="3.08601" x2="6.86513" y2="3.08601" gradientUnits="userSpaceOnUse">
<stop stop-color="#359CBB"/>
<stop offset="1" stop-color="#64C299"/>
</linearGradient>
<linearGradient id="paint2_linear_1654_3015" x1="8.35508" y1="3.08601" x2="9.4911" y2="3.08601" gradientUnits="userSpaceOnUse">
<stop stop-color="#359CBB"/>
<stop offset="1" stop-color="#64C299"/>
</linearGradient>
<linearGradient id="paint3_linear_1654_3015" x1="3.1041" y1="3.08601" x2="4.24013" y2="3.08601" gradientUnits="userSpaceOnUse">
<stop stop-color="#359CBB"/>
<stop offset="1" stop-color="#64C299"/>
</linearGradient>
</defs>
</svg>
