<svg width="390" height="162" viewBox="0 0 390 162" fill="none" xmlns="http://www.w3.org/2000/svg">
<path d="M32.4068 108.57H9.22656V162H32.4068V108.57Z" fill="#D6E1E3"/>
<path d="M65.8062 59.9414H42.626V162.001H65.8062V59.9414Z" fill="#F6F9FA"/>
<path d="M183.313 62.8633H160.133V161.999H183.313V62.8633Z" fill="#D6E1E3"/>
<path d="M218.04 26.6895H194.859V160.945H218.04V26.6895Z" fill="#F6F9FA"/>
<path d="M342.748 25.623H319.567V161.99H342.748V25.623Z" fill="#F6F9FA"/>
<path d="M386.377 46.5176H363.196V161.991H386.377V46.5176Z" fill="#D6E1E3"/>
<path d="M389.597 56.8332C389.597 56.8332 389.387 56.4841 389.003 55.7772C388.619 55.0702 388.078 54.0317 387.31 52.6353C385.765 49.9123 383.444 45.9063 380.031 41.0277C378.33 38.5927 376.314 35.957 373.966 33.1729C371.435 30.1715 368.693 27.3541 365.762 24.7421C362.416 21.7144 358.766 19.0411 354.87 16.7652C353.831 16.1717 352.775 15.5783 351.667 15.0197C350.559 14.4611 349.415 13.9724 348.263 13.4749C345.862 12.4983 343.384 11.7247 340.854 11.1621C338.199 10.5924 335.495 10.2767 332.781 10.2196C329.947 10.2062 327.121 10.4988 324.35 11.0923C321.461 11.7098 318.655 12.6648 315.989 13.9375C313.283 15.2292 310.639 16.835 307.846 18.3012C302.161 21.4237 296.161 23.9339 289.946 25.7894C283.29 27.5808 276.403 28.3604 269.515 28.1022C268.642 28.1022 267.77 28.0324 266.897 27.9975C266.004 27.9784 265.112 27.9114 264.226 27.7968C263.781 27.7357 263.353 27.7095 262.891 27.6222L261.564 27.3517C260.691 27.1946 259.819 26.8978 258.946 26.6535C255.467 25.5269 252.082 24.1291 248.822 22.473L238.838 17.4634C235.46 15.7363 231.927 14.3308 228.286 13.2655C220.903 11.4152 213.092 10.1323 205.246 10.9614C201.293 11.376 197.437 12.4498 193.839 14.1382C190.246 15.9081 186.956 18.2351 184.09 21.0329C178.243 26.6535 173.844 33.4522 169.472 40.0153C165.099 46.5784 160.901 53.1938 156.38 59.3904C152.015 65.5398 147.067 71.2536 141.605 76.4526C138.926 78.942 136.064 81.2263 133.043 83.2863C130.075 85.2828 126.949 87.0341 123.696 88.5228C120.528 89.9869 117.221 91.1301 113.825 91.9352C112.158 92.3803 110.456 92.616 108.781 92.8952C107.106 93.0863 105.422 93.1912 103.736 93.2094C97.206 93.2535 90.7623 91.7174 84.9544 88.7322C79.3077 85.9831 74.2196 82.6841 69.0093 80.1269C58.9938 74.9448 47.4757 73.4473 36.468 75.8961C25.4604 78.3449 15.6635 84.5842 8.78948 93.5236C5.97994 97.1288 3.68858 101.109 1.98202 105.349L1.24891 107.287C1.04818 107.845 0.908538 108.325 0.786353 108.701L0.402344 109.862C0.402344 109.862 0.507073 109.46 0.742716 108.692C0.856174 108.308 0.987086 107.819 1.17909 107.261C1.3711 106.702 1.62419 106.048 1.89475 105.314C6.2671 94.1984 14.5384 85.0552 25.1623 79.5945C33.8371 75.3128 43.5823 73.6856 53.1776 74.9166C58.7379 75.6173 64.1353 77.2737 69.1315 79.8127C74.368 82.3699 79.4561 85.6689 85.0853 88.3918C90.8414 91.3412 97.2249 92.8563 103.692 92.808C105.364 92.79 107.033 92.6851 108.693 92.4938C110.36 92.2145 112.036 91.9789 113.694 91.5425C117.063 90.7361 120.343 89.5959 123.486 88.1388C126.715 86.6471 129.818 84.8958 132.764 82.9023C135.765 80.8506 138.609 78.578 141.273 76.1035C146.71 70.9169 151.638 65.2208 155.988 59.0936C160.491 52.9058 164.715 46.3427 169.079 39.736C173.443 33.1293 177.841 26.3567 183.741 20.7013C186.651 17.863 189.995 15.5061 193.647 13.7193C197.292 12.0324 201.196 10.9703 205.193 10.5774C213.135 9.70465 220.981 11.0312 228.4 12.8989C232.06 13.9718 235.611 15.3891 239.004 17.1318L248.979 22.1413C252.221 23.7898 255.585 25.1845 259.042 26.3131C259.915 26.5487 260.788 26.8455 261.66 26.9938L262.969 27.2644C263.406 27.3517 263.842 27.3779 264.279 27.4389C265.151 27.5611 266.024 27.596 266.897 27.6397C267.77 27.6833 268.642 27.7531 269.515 27.7444C276.363 28.0134 283.212 27.2514 289.833 25.484C296.025 23.6427 302.005 21.1502 307.672 18.0481C310.456 16.6168 313.091 15.0284 315.832 13.6844C321.132 11.1837 326.929 9.9128 332.789 9.96648C335.525 10.0249 338.249 10.3464 340.923 10.9265C343.469 11.4978 345.962 12.2802 348.377 13.2655C349.538 13.7804 350.707 14.2517 351.798 14.8277C352.889 15.4037 353.971 15.9623 355.018 16.5732C358.926 18.8646 362.585 21.5555 365.936 24.6025C368.864 27.2342 371.603 30.0689 374.132 33.0856C376.479 35.8523 378.495 38.4967 380.171 40.9404C382.779 44.6981 385.188 48.5901 387.389 52.6004C388.139 53.9793 388.672 55.0528 389.047 55.7597L389.597 56.8332Z" fill="#73959D"/>
<path d="M205.552 16.5741C208.844 16.5741 211.513 13.9053 211.513 10.6132C211.513 7.32113 208.844 4.65234 205.552 4.65234C202.26 4.65234 199.591 7.32113 199.591 10.6132C199.591 13.9053 202.26 16.5741 205.552 16.5741Z" fill="#73959D"/>
<path d="M205.552 21.6617C203.409 21.6617 201.315 21.0262 199.533 19.8358C197.752 18.6453 196.364 16.9532 195.544 14.9736C194.725 12.994 194.511 10.8159 194.929 8.71464C195.348 6.61343 196.38 4.68358 197.896 3.16921C199.412 1.65483 201.342 0.623976 203.444 0.207052C205.545 -0.209872 207.723 0.00586515 209.702 0.826964C211.681 1.64806 213.372 3.03763 214.561 4.8199C215.75 6.60217 216.384 8.69707 216.382 10.8396C216.378 13.7099 215.235 16.4611 213.204 18.4899C211.174 20.5187 208.422 21.6594 205.552 21.6617ZM205.552 0.881484C203.582 0.881484 201.657 1.46551 200.019 2.55972C198.382 3.65393 197.105 5.20917 196.351 7.02877C195.598 8.84838 195.401 10.8506 195.785 12.7823C196.169 14.714 197.117 16.4883 198.51 17.881C199.903 19.2737 201.677 20.2221 203.609 20.6063C205.54 20.9906 207.543 20.7933 209.362 20.0396C211.182 19.2859 212.737 18.0096 213.831 16.372C214.926 14.7344 215.51 12.8091 215.51 10.8396C215.507 8.19923 214.457 5.66769 212.59 3.80069C210.723 1.93369 208.192 0.883795 205.552 0.881484Z" fill="#73959D"/>
<path d="M21.4531 90.121C24.7452 90.121 27.414 87.4522 27.414 84.1601C27.414 80.868 24.7452 78.1992 21.4531 78.1992C18.161 78.1992 15.4922 80.868 15.4922 84.1601C15.4922 87.4522 18.161 90.121 21.4531 90.121Z" fill="#73959D"/>
<path d="M21.4529 95.2086C19.3108 95.2086 17.2167 94.5733 15.4356 93.3832C13.6545 92.1931 12.2663 90.5016 11.4465 88.5225C10.6268 86.5434 10.4123 84.3657 10.8302 82.2647C11.2481 80.1638 12.2796 78.2339 13.7944 76.7192C15.3091 75.2044 17.2389 74.1729 19.3399 73.755C21.4409 73.3371 23.6186 73.5516 25.5977 74.3713C27.5768 75.1911 29.2683 76.5793 30.4584 78.3604C31.6485 80.1416 32.2837 82.2356 32.2837 84.3777C32.2814 87.2495 31.1396 90.003 29.1089 92.0337C27.0782 94.0644 24.3247 95.2063 21.4529 95.2086ZM21.4529 74.4284C19.483 74.4284 17.5574 75.0126 15.9196 76.1072C14.2818 77.2018 13.0055 78.7576 12.252 80.5777C11.4986 82.3978 11.3019 84.4005 11.6868 86.3324C12.0718 88.2643 13.021 90.0386 14.4146 91.431C15.8081 92.8233 17.5833 93.771 19.5155 94.1543C21.4478 94.5375 23.4503 94.3391 25.2698 93.584C27.0892 92.829 28.6438 91.5513 29.737 89.9125C30.8302 88.2738 31.4127 86.3476 31.411 84.3777C31.4064 81.7389 30.3555 79.2096 28.4887 77.3445C26.622 75.4794 24.0917 74.4307 21.4529 74.4284Z" fill="#73959D"/>
<path d="M378.836 31.541C378.836 32.7199 378.486 33.8724 377.831 34.8527C377.176 35.8329 376.245 36.5969 375.156 37.0481C374.067 37.4993 372.868 37.6173 371.712 37.3873C370.556 37.1573 369.494 36.5896 368.66 35.756C367.826 34.9223 367.259 33.8602 367.029 32.7039C366.799 31.5476 366.917 30.349 367.368 29.2598C367.819 28.1706 368.583 27.2397 369.563 26.5847C370.544 25.9297 371.696 25.5801 372.875 25.5801C374.456 25.5801 375.972 26.2081 377.09 27.326C378.208 28.4439 378.836 29.96 378.836 31.541Z" fill="#73959D"/>
<path d="M372.875 42.5894C370.732 42.5894 368.638 41.954 366.857 40.7635C365.075 39.573 363.687 37.8809 362.868 35.9013C362.048 33.9217 361.834 31.7436 362.253 29.6424C362.671 27.5412 363.704 25.6113 365.219 24.0969C366.735 22.5826 368.666 21.5517 370.767 21.1348C372.869 20.7179 375.047 20.9336 377.026 21.7547C379.005 22.5758 380.695 23.9654 381.885 25.7476C383.074 27.5299 383.707 29.6248 383.706 31.7673C383.701 34.6376 382.558 37.3889 380.528 39.4177C378.497 41.4465 375.745 42.5871 372.875 42.5894ZM372.875 21.8092C370.905 21.8092 368.98 22.3933 367.342 23.4875C365.705 24.5817 364.428 26.1369 363.675 27.9565C362.921 29.7761 362.724 31.7783 363.108 33.71C363.492 35.6417 364.441 37.4161 365.833 38.8087C367.226 40.2014 369 41.1498 370.932 41.534C372.864 41.9183 374.866 41.7211 376.686 40.9674C378.505 40.2137 380.06 38.9373 381.155 37.2997C382.249 35.6621 382.833 33.7368 382.833 31.7673C382.831 29.127 381.781 26.5954 379.914 24.7284C378.047 22.8614 375.515 21.8115 372.875 21.8092Z" fill="#73959D"/>
</svg>
