<svg width="222" height="242" viewBox="0 0 222 242" fill="none" xmlns="http://www.w3.org/2000/svg">
<path d="M209.851 130.926C210.047 128.432 210.199 125.935 210.319 123.443" stroke="#73959D" stroke-width="1.5"/>
<path d="M134.678 171.456C135.382 176.461 136.43 182.203 137.587 187.95L138.952 188.34C143.32 189.567 147.958 189.431 152.246 187.95L150.458 181.875L161.343 150.208C161.343 150.208 153.023 147.518 146.19 145.52L145.406 145.486C141.673 146.274 133.981 149.23 133.74 160.302C133.723 160.835 133.74 161.395 133.74 162.006C132.655 165.579 133.087 168.729 134.678 171.456Z" fill="#73959D"/>
<path d="M160.297 50.9142C160.52 50.3462 161.156 50.0609 161.729 50.2725C161.883 50.3191 162.025 50.3984 162.146 50.5051C162.578 50.8554 162.676 51.4691 162.69 52.052C162.729 53.3831 162.805 54.717 162.903 56.0426C162.903 56.1322 162.917 56.2331 162.917 56.3228C162.979 57.3905 162.934 58.6852 163.388 59.6156C163.417 59.6865 163.467 59.7471 163.531 59.7893C163.682 59.8594 163.842 59.708 163.94 59.5707C164.22 59.1616 164.5 58.7608 164.78 58.3433C165.002 58.0098 165.251 57.6483 165.638 57.5418C166.212 57.3821 166.759 57.8893 167.076 58.4049C168.098 60.0864 168.197 62.8411 166.613 64.2507C165.03 65.6602 168.575 68.4318 171.114 69.5976C171.539 69.8366 171.984 70.0373 172.445 70.1973C172.467 70.1973 171.529 70.4074 171.551 70.4158C173.527 71.1037 175.585 71.5268 177.671 71.6741C180.149 71.8394 182.564 71.5284 184.321 70.4523C184.246 70.172 183.646 68.2104 183.609 67.9302C183.481 66.9521 183.388 65.9825 183.329 64.9989C183.223 63.1521 183.231 61.3026 183.301 59.4614C183.556 52.8367 182.376 47.2712 179.641 46.4221C179.425 46.3573 179.218 46.266 179.025 46.1502C177.792 45.4693 177.133 44.0316 177.699 42.6753C177.739 42.5828 177.783 42.4932 177.823 42.3951C177.867 42.2984 177.917 42.2048 177.974 42.1148C172.633 40.4558 169.006 41.6076 165.341 43.6141C164.643 44.1714 163.988 44.7793 163.379 45.4328C161.945 46.9904 160.89 48.8588 160.297 50.8918V50.9142Z" fill="#73959D"/>
<path d="M114.728 88.5898C115.137 95.2763 116.191 101.957 117.334 108.621" stroke="#73959D" stroke-width="1.5"/>
<path d="M109.381 49.8131C107.189 49.2526 105.855 51.36 106.18 52.963C106.71 55.5776 110.471 56.606 112.71 56.6537C114.503 56.6901 118.875 56.2165 120.657 56.0091" stroke="#73959D" stroke-width="1.5"/>
<path d="M121.394 51.1077C118.683 51.8911 115.812 51.9385 113.077 51.245C110.776 50.6537 108.058 49.5636 106.853 47.3749C106.149 46.1027 106.71 44.0738 108.178 43.6254C109.874 43.1125 111.443 44.7996 112.979 45.2255C113.969 45.4953 114.981 45.6828 116.002 45.786C116.283 45.8168 116.546 45.8392 116.818 45.8617C118.248 45.9761 119.685 45.9658 121.114 45.8308C121.426 45.8308 121.702 45.631 121.8 45.3351C121.898 45.0392 121.796 44.7138 121.545 44.5277L121.288 44.34" stroke="#73959D" stroke-width="1.5"/>
<path d="M104.096 64.1813C105.687 68.3372 106.587 72.6781 107.61 77.117C109.336 84.5685 116.698 93.8527 125.309 90.5683C130.572 88.5618 132.419 82.761 133.064 77.6467C134.072 69.7272 133.988 61.5919 132.503 53.7397C131.27 47.2719 129.081 40.479 122.787 37.2983L119.834 35.8215C118.369 35.081 116.58 35.646 115.807 37.0937C115.58 37.5262 115.46 38.0066 115.456 38.4949C115.454 38.5663 115.459 38.6378 115.473 38.7079" stroke="#73959D" stroke-width="1.5"/>
<path d="M44.1025 124.971C42.5808 124.924 41.0577 124.962 39.5403 125.086C38.3017 125.186 37.0182 125.245 35.8384 125.708C34.866 126.094 33.8515 127.016 33.902 128.143C33.9945 130.351 36.8865 130.334 38.4726 130.334" stroke="#73959D" stroke-width="1.5"/>
<path d="M215.405 131.673C215.405 131.673 224.653 173.448 200.864 182.174C177.075 190.901 112.814 182.704 139.52 152.562C166.227 122.42 215.405 131.673 215.405 131.673Z" fill="#B9CDCE"/>
<path d="M99.9766 38.8658C96.7433 38.1915 93.4652 37.7541 90.1683 37.5571H89.9777C87.8115 37.4141 84.0171 37.3525 81.8509 37.3301" stroke="#73959D" stroke-width="1.5"/>
<path d="M116.003 45.7798C116.026 45.7938 116.04 45.8107 116.062 45.8247" stroke="#73959D" stroke-width="1.5"/>
<path d="M79.136 28.217C80.7894 29.0857 82.6894 28.4972 83.418 27.0176" stroke="#73959D" stroke-width="1.5"/>
<path d="M88.7327 7.10099C88.8857 9.73708 87.343 12.1779 84.8963 13.1709C84.6439 12.7078 84.2822 12.3134 83.8426 12.0219C81.9847 10.8197 82.3153 14.0312 77.2711 13.1849C70.2792 12.0051 68.4969 14.4404 68.4969 14.4404C68.3428 14.6533 68.7771 16.0433 68.8388 16.2983C69.119 17.792 69.3993 19.2772 69.6543 20.7821C69.8187 21.6938 69.9849 22.5999 70.1531 23.5004C70.0259 23.3772 69.8911 23.262 69.7495 23.1557C68.6006 21.3622 66.9164 19.3501 65.0808 20.9923C64.7123 21.3344 64.43 21.7588 64.2569 22.2309C63.4162 24.5148 65.0248 25.9833 66.9052 26.8632C67.4011 27.1634 67.9282 27.4086 68.4773 27.5946C68.3848 28.1719 68.0009 30.4727 68.0009 30.4783C67.9616 30.7137 63.2929 27.8356 62.9034 27.4853C62.1996 26.5548 61.6568 25.5128 61.2976 24.4028C59.846 19.8237 60.0926 13.9051 63.0155 10.1387C63.7413 9.20556 63.2565 8.66751 63.0463 7.75954C63.0257 7.65961 63.0681 7.55722 63.1533 7.50105C63.2385 7.44488 63.3493 7.44626 63.433 7.50453C65.008 8.49376 67.858 7.48211 67.858 7.48211C77.1057 1.92783 81.8445 5.36353 84.1116 5.53727C85.0312 5.60038 85.944 5.34073 86.6926 4.80305C86.961 5.33294 87.4999 5.67141 88.0938 5.683L88.1835 6.165C88.2522 6.53137 88.4464 6.86235 88.7327 7.10099Z" fill="#73959D"/>
<path d="M86.5613 15.0059L86.5529 15.0087L86.5613 15.0059Z" fill="#73959D"/>
<path d="M84.8914 13.1814C87.3381 12.1884 88.8809 9.7476 88.7279 7.1115C88.7005 6.6176 88.6292 6.12712 88.5149 5.64587L88.4336 5.66268C88.3234 5.68754 88.21 5.69604 88.0973 5.6879C87.5035 5.67631 86.9645 5.33785 86.6961 4.80796C86.6189 4.66321 86.565 4.50715 86.5364 4.34557L86.1048 2C86.1048 2 84.7037 3.8972 82.4618 3.72065C80.2199 3.5441 75.4811 0.108409 66.2081 5.66548C66.2081 5.66548 63.983 6.48658 62.4081 5.49734C62.3243 5.43907 62.2135 5.4377 62.1284 5.49386C62.0432 5.55003 62.0008 5.65242 62.0214 5.75236C62.2315 6.65752 62.0914 7.38894 61.3656 8.32212C58.4427 12.0885 58.1961 18.0071 59.6478 22.5861C60.2833 24.4837 61.412 26.1782 62.9181 27.4959C63.3076 27.8462 67.9764 30.7242 68.0156 30.4888C68.0156 30.4888 68.3995 28.1824 68.492 27.6051L68.5144 27.4734L68.3827 27.4342C67.8834 27.2796 67.3947 27.0924 66.9199 26.8737C65.0395 25.9938 63.4225 24.5254 64.2717 22.2414C64.4447 21.7693 64.727 21.3449 65.0956 21.0028C66.9311 19.3606 68.6153 21.3727 69.7643 23.1662C69.9864 23.5067 70.1688 23.8715 70.3079 24.2535C70.2631 24.0069 70.2183 23.7659 70.1706 23.5193C70.0025 22.617 69.8362 21.7109 69.6718 20.801C69.3916 19.3046 69.1309 17.8193 68.8563 16.3172C68.8059 16.0622 68.3603 14.6723 68.5144 14.4593C68.5144 14.4593 70.2967 12.024 77.2886 13.2038C82.3329 14.0445 82.0022 10.8386 83.8602 12.0408C84.2997 12.3323 84.6615 12.7267 84.9138 13.1898C84.992 13.3407 85.0612 13.496 85.1212 13.655C85.1313 13.6748 85.1397 13.6955 85.1464 13.7167C85.2725 14.0642 85.3874 14.4144 85.4995 14.7563C86.5476 18.0883 87.2398 21.6866 86.8699 25.1867C86.4187 29.4295 83.3277 34.4177 78.4096 33.9945C76.8621 33.8132 75.3528 33.3896 73.937 32.7391" stroke="#73959D" stroke-width="1.5"/>
<ellipse rx="0.871544" ry="1.05368" transform="matrix(-0.9996 -0.0282701 -0.0282711 0.9996 84.3842 21.1712)" fill="#73959D"/>
<ellipse rx="0.871527" ry="1.05369" transform="matrix(-0.9996 -0.0282707 -0.0282704 0.9996 77.7992 22.9388)" fill="#73959D"/>
<path d="M80.6113 24.384C80.6113 24.384 83.1587 24.9445 82.9009 23.6386C82.8224 23.2294 82.1835 19.2108 82.1835 19.2108C82.1835 19.2108 83.3717 16.8176 86.4795 17.3753" stroke="#73959D" stroke-width="1.5"/>
<path d="M79.4678 18.8522C79.4678 18.8522 75.4296 18.1657 73.8827 21.3912" stroke="#73959D" stroke-width="1.5"/>
<path d="M81.8051 37.2969C84.9858 38.9783 86.684 43.0249 85.3529 45.9534C83.1335 50.8323 77.2905 52.2671 72.4621 50.8575C67.0927 49.2882 63.147 44.3392 63.3824 38.6644" stroke="#73959D" stroke-width="1.5"/>
<path d="M62.5475 130.332C53.3249 108.9 49.9761 71.0708 49.9761 71.0708V123.85C49.9768 125.57 49.2941 127.219 48.0784 128.435C46.8627 129.65 45.2135 130.333 43.4942 130.332H23.037C21.4489 130.357 20.097 129.182 19.9012 127.606C19.818 126.758 20.0974 125.914 20.6703 125.284C21.2432 124.653 22.0561 124.294 22.9081 124.296H31.2871C31.9643 124.294 32.6025 123.979 33.0167 123.444C33.4308 122.908 33.5744 122.211 33.4057 121.555C28.3615 101.659 25.2425 78.3037 31.8084 57.6363C33.1647 53.3711 36.0876 49.5711 39.5401 46.6342C43.5026 43.249 48.3871 41.6965 53.3921 40.5475C56.6933 39.7909 60.0235 39.165 63.3826 38.6699C63.3925 38.6733 63.4034 38.6733 63.4134 38.6699C63.4358 38.6699 63.4582 38.6699 63.4722 38.6699H63.4946H63.5255H63.5703" stroke="#73959D" stroke-width="1.5"/>
<path d="M65.4953 29.1484L65.8652 35.8433C65.9383 37.1972 64.9893 38.3927 63.6541 38.6288H63.5701C63.5554 38.6247 63.5399 38.6247 63.5252 38.6288H63.5112H63.472" stroke="#73959D" stroke-width="1.5"/>
<path d="M63.4131 38.66H63.472H63.4944H63.5112H63.5252H63.57H63.6541C64.9893 38.424 65.9383 37.2284 65.8652 35.8745L65.4953 29.1797" stroke="#73959D" stroke-width="1.5"/>
<path d="M81.2759 33.5786C81.458 33.5058 81.2759 41.0553 85.7793 44.3341" stroke="#73959D" stroke-width="1.5"/>
<path d="M141.569 130.335H155.995" stroke="#73959D" stroke-width="1.5"/>
<path d="M0.629295 130.335H119.107" stroke="#73959D" stroke-width="1.5"/>
<path d="M183.298 59.4539C183.159 62.2803 183.261 65.1134 183.601 67.9226C184.038 71.2238 187.09 75.4189 187.751 78.6837C188.696 83.3805 187.267 88.2341 185.305 92.5946C182.934 97.8658 179.199 103.168 179.563 109.204C179.941 114.531 182.748 119.388 187.174 122.375C190.166 124.377 193.584 125.653 197.156 126.102C197.655 126.161 198.162 126.209 198.669 126.223C198.95 126.223 199.23 126.192 199.51 126.17C209.01 125.365 218.754 118.118 218.731 108.03C218.731 101.585 213.833 96.5403 213.006 90.2855C212.499 86.4602 213.62 82.4865 212.583 78.7734C210.902 72.8436 204.403 69.6097 201.556 64.1507C199.46 60.1209 199.118 55.4185 197.459 51.1926C195.15 45.3076 191.462 38.582 186.417 38.0215C184.954 38.1874 183.539 38.6488 182.259 39.3778C179.131 41.0592 178.335 41.1657 177.699 42.665C177.049 44.2315 178.019 45.9045 179.639 46.4061C182.374 47.2721 183.553 52.8291 183.298 59.4539Z" fill="#73959D"/>
<path d="M180.55 40.2895C172.339 37.9103 167.121 41.4105 163.388 45.4459C159.655 49.4813 159.829 54.0631 159.829 54.0631" stroke="#73959D" stroke-width="1.5"/>
<path d="M155.082 119.215C155.206 125.63 156.018 132.013 157.506 138.254" stroke="#73959D" stroke-width="1.5"/>
<path fill-rule="evenodd" clip-rule="evenodd" d="M134.678 171.455C137.685 176.628 144.817 180.302 153.543 182.589C169.029 186.647 189.531 186.33 200.858 182.171C224.662 173.447 215.408 131.673 215.408 131.673C215.408 131.673 174.239 123.924 146.787 145.684C144.164 147.757 141.73 150.058 139.512 152.559C136.477 155.992 134.613 159.133 133.734 162.003C132.655 165.578 133.086 168.728 134.678 171.455V171.455Z" stroke="#73959D" stroke-width="1.5"/>
<path d="M150.458 181.883C150.458 181.883 164.882 221.92 140.65 232.146C116.418 242.372 229.636 243.734 204.645 232.146C179.653 220.558 194.018 184.329 194.018 184.329" stroke="#73959D" stroke-width="1.5"/>
<path d="M121.118 45.8236C121.418 44.9072 121.294 41.7209 121.196 39.9218C121.157 39.2156 120.564 38.6682 119.857 38.686L91.068 38.9382C90.0578 38.9474 89.2436 39.769 89.2437 40.7793V62.3827C89.2437 62.8725 89.4388 63.342 89.7859 63.6876C90.133 64.0331 90.6035 64.2261 91.0932 64.2238L119.148 64.1202C119.992 64.0856 120.659 63.3905 120.658 62.5452V60.8974C118.663 61.8278 114.891 62.1137 114.891 62.1137C113.549 62.0772 111.427 61.9147 110.264 61.2477C109.199 60.6368 107.854 59.7597 107.672 58.4314C107.526 57.3619 108.271 56.3751 109.339 56.2231C109.648 56.1616 109.967 56.1838 110.264 56.2876" stroke="#73959D" stroke-width="1.5"/>
<path d="M93.0207 105.69C93.0341 106.076 93.1641 106.448 93.3935 106.758C94.052 107.568 95.3551 107.408 96.2407 107.159C99.965 106.1 102.201 110.135 103.608 112.853C107.161 119.725 112.492 126.108 119.142 130.334C119.573 130.615 120.013 130.878 120.459 131.136C126.957 134.885 135.378 134.188 141.664 130.295L133.627 110.553L132.831 111.189C127.977 115.019 122.003 112.87 117.866 109.09C116.718 108.044 115.705 106.859 114.851 105.562C113.428 103.373 112.208 101.011 110.261 99.231C107.565 96.7677 103.619 96.2857 100.212 97.3282C96.8039 98.3707 92.7125 101.722 93.0207 105.69Z" fill="white"/>
<path d="M93.0544 104.292C93.0544 104.292 93.968 99.4549 102.204 103.23" stroke="#73959D" stroke-width="1.5"/>
<path d="M97.6356 98.4836C97.6356 98.4836 102.77 96.8414 105.628 100.765" stroke="#73959D" stroke-width="1.5"/>
<path fill-rule="evenodd" clip-rule="evenodd" d="M201.27 126.177C199.899 126.299 198.52 126.277 197.154 126.11C193.583 125.655 190.166 124.376 187.174 122.374C182.748 119.387 179.941 114.53 179.563 109.203C179.199 103.164 182.926 97.862 185.305 92.5908C187.267 88.2275 188.696 83.3739 187.749 78.6827C187.09 75.4152 184.044 71.2228 183.604 67.9188C183.262 65.1098 183.159 62.2767 183.296 59.4501C183.551 52.8225 182.374 47.2599 179.639 46.4136C178.019 45.9119 177.047 44.2361 177.7 42.6724C178.324 41.1703 179.129 41.0807 182.259 39.3796C190.419 34.9407 196.094 43.2161 199.227 51.1944C200.889 55.4231 201.225 60.1199 203.324 64.1497C206.171 69.6115 212.684 72.837 214.349 78.778C215.388 82.4883 214.268 86.4649 214.772 90.2845C215.596 96.5365 220.486 101.578 220.5 108.029C220.522 118.115 210.767 125.367 201.27 126.177V126.177Z" stroke="#73959D" stroke-width="1.5"/>
<path d="M134.678 171.455C135.381 176.46 136.429 182.202 137.584 187.95C140.857 204.24 145.021 220.628 145.021 220.628" stroke="#73959D" stroke-width="1.5"/>
<path d="M133.745 162.002C133.731 161.391 133.723 160.831 133.745 160.298C133.995 148.809 142.256 146.062 145.809 145.404C146.339 145.3 146.876 145.232 147.415 145.199" stroke="#73959D" stroke-width="1.5"/>
<path d="M143.789 215.659C142.857 215.088 141.691 215.066 140.738 215.6C139.786 216.135 139.197 217.142 139.198 218.234V218.377C139.289 221.182 140.688 223.783 142.979 225.405L146.874 228.177" stroke="#73959D" stroke-width="1.5"/>
<path d="M188.037 82.3876C187.493 82.1662 186.939 81.97 186.378 81.7879C185.198 79.6076 185.38 74.8352 185.493 73.1006L184.313 70.4411C181.056 72.442 176.746 71.691 172.747 70.2982C172.186 70.102 171.64 69.8641 171.114 69.5864C168.575 68.4206 165.016 65.6631 166.613 64.2395C168.21 62.8159 168.098 60.0752 167.075 58.3938C166.764 57.8781 166.212 57.3709 165.638 57.5307C165.251 57.6371 165.002 57.9986 164.78 58.3321C164.5 58.7497 164.22 59.1504 163.94 59.5596C163.842 59.6969 163.682 59.8398 163.531 59.7781C163.466 59.7359 163.417 59.6754 163.388 59.6044C162.894 58.5899 162.987 57.1355 162.903 56.023C162.805 54.6975 162.729 53.3635 162.69 52.0324C162.667 51.2982 162.516 50.5107 161.729 50.2529C161.407 50.1286 161.045 50.1596 160.749 50.337C160.453 50.5144 160.255 50.8183 160.213 51.1609C159.639 54.3815 159.555 57.6702 159.963 60.9159C160.35 64.3152 161.048 67.9218 163.228 70.6625C164.47 72.2434 166.134 73.4404 168.028 74.115C169.861 74.7511 169.802 76.9622 169.802 78.9014V82.1213C164.167 83.2647 158.873 84.6435 154.496 88.5668C151.601 91.2131 148.877 94.0408 146.341 97.0327C138.357 106.401 136.631 108.158 132.786 111.187C127.932 115.018 121.955 112.869 117.821 109.088C116.675 108.042 115.664 106.857 114.812 105.56C113.388 103.372 112.169 101.009 110.224 99.2297C107.525 96.7665 103.58 96.2845 100.172 97.3269C96.7644 98.3694 92.6673 101.721 92.9924 105.689C93.0062 106.074 93.135 106.446 93.3623 106.757C94.0209 107.567 95.324 107.407 96.2095 107.158C99.9367 106.098 102.17 110.134 103.58 112.852C107.13 119.723 112.463 126.107 119.113 130.333C119.545 130.613 119.982 130.877 120.43 131.135C127.859 135.422 137.819 133.892 144.208 128.43L159.621 115.346" stroke="#73959D" stroke-width="1.5"/>
<path d="M186.378 81.7882C186.378 81.7882 179.016 79.5128 169.802 82.1301" stroke="#73959D" stroke-width="1.5"/>
<path d="M120.657 60.8965C120.657 60.8965 120.601 70.4245 118.328 74.0928" stroke="#73959D" stroke-width="1.5"/>
<path d="M43.7913 165.883V166.042H43.8249L43.7913 165.883Z" fill="#73959D"/>
<path d="M43.7913 165.883V166.042H43.8249L43.7913 165.883Z" fill="#73959D"/>
<path d="M49.4101 173.313V173.378C49.4101 173.378 49.4298 173.283 49.4522 173.098C49.4334 173.169 49.4194 173.241 49.4101 173.313Z" fill="#73959D"/>
</svg>
