<svg width="18" height="18" viewBox="0 0 18 18" fill="none" xmlns="http://www.w3.org/2000/svg">
<path fill-rule="evenodd" clip-rule="evenodd" d="M3.5 2C3.5 2.82843 2.82843 3.5 2 3.5C1.17157 3.5 0.5 2.82843 0.5 2C0.5 1.17157 1.17157 0.5 2 0.5C2.82843 0.5 3.5 1.17157 3.5 2ZM3.5 9C3.5 9.82843 2.82843 10.5 2 10.5C1.17157 10.5 0.5 9.82843 0.5 9C0.5 8.17157 1.17157 7.5 2 7.5C2.82843 7.5 3.5 8.17157 3.5 9ZM2 17.5C2.82843 17.5 3.5 16.8284 3.5 16C3.5 15.1716 2.82843 14.5 2 14.5C1.17157 14.5 0.5 15.1716 0.5 16C0.5 16.8284 1.17157 17.5 2 17.5ZM10.5 2C10.5 2.82843 9.82843 3.5 9 3.5C8.17157 3.5 7.5 2.82843 7.5 2C7.5 1.17157 8.17157 0.5 9 0.5C9.82843 0.5 10.5 1.17157 10.5 2ZM9 10.5C9.82843 10.5 10.5 9.82843 10.5 9C10.5 8.17157 9.82843 7.5 9 7.5C8.17157 7.5 7.5 8.17157 7.5 9C7.5 9.82843 8.17157 10.5 9 10.5ZM10.5 16C10.5 16.8284 9.82843 17.5 9 17.5C8.17157 17.5 7.5 16.8284 7.5 16C7.5 15.1716 8.17157 14.5 9 14.5C9.82843 14.5 10.5 15.1716 10.5 16ZM16 3.5C16.8284 3.5 17.5 2.82843 17.5 2C17.5 1.17157 16.8284 0.5 16 0.5C15.1716 0.5 14.5 1.17157 14.5 2C14.5 2.82843 15.1716 3.5 16 3.5ZM17.5 9C17.5 9.82843 16.8284 10.5 16 10.5C15.1716 10.5 14.5 9.82843 14.5 9C14.5 8.17157 15.1716 7.5 16 7.5C16.8284 7.5 17.5 8.17157 17.5 9ZM16 17.5C16.8284 17.5 17.5 16.8284 17.5 16C17.5 15.1716 16.8284 14.5 16 14.5C15.1716 14.5 14.5 15.1716 14.5 16C14.5 16.8284 15.1716 17.5 16 17.5Z" fill="#6B9EB6"/>
</svg>
