<svg width="14" height="14" viewBox="0 0 14 14" fill="none" xmlns="http://www.w3.org/2000/svg">
<path d="M7.3937 6.1281C7.37589 6.02974 7.3219 5.94161 7.24236 5.88107C7.16283 5.82053 7.0635 5.79197 6.96395 5.801C6.86441 5.81003 6.77185 5.856 6.7045 5.92987C6.63716 6.00374 6.59991 6.10014 6.6001 6.2001V9.8017L6.6065 9.8737C6.62431 9.97205 6.67829 10.0602 6.75783 10.1207C6.83737 10.1813 6.93669 10.2098 7.03624 10.2008C7.13579 10.1918 7.22835 10.1458 7.29569 10.0719C7.36303 9.99806 7.40028 9.90165 7.4001 9.8017V6.2001L7.3937 6.1281ZM7.6393 4.4001C7.6393 4.24097 7.57608 4.08836 7.46356 3.97583C7.35104 3.86331 7.19843 3.8001 7.0393 3.8001C6.88017 3.8001 6.72756 3.86331 6.61503 3.97583C6.50251 4.08836 6.4393 4.24097 6.4393 4.4001C6.4393 4.55923 6.50251 4.71184 6.61503 4.82436C6.72756 4.93688 6.88017 5.0001 7.0393 5.0001C7.19843 5.0001 7.35104 4.93688 7.46356 4.82436C7.57608 4.71184 7.6393 4.55923 7.6393 4.4001ZM13.4001 7.0001C13.4001 5.30271 12.7258 3.67485 11.5256 2.47461C10.3253 1.27438 8.69748 0.600098 7.0001 0.600098C5.30271 0.600098 3.67485 1.27438 2.47461 2.47461C1.27438 3.67485 0.600098 5.30271 0.600098 7.0001C0.600098 8.69748 1.27438 10.3253 2.47461 11.5256C3.67485 12.7258 5.30271 13.4001 7.0001 13.4001C8.69748 13.4001 10.3253 12.7258 11.5256 11.5256C12.7258 10.3253 13.4001 8.69748 13.4001 7.0001ZM1.4001 7.0001C1.4001 6.26469 1.54495 5.53649 1.82637 4.85707C2.1078 4.17765 2.52029 3.56031 3.0403 3.0403C3.56031 2.52029 4.17765 2.1078 4.85707 1.82637C5.53649 1.54495 6.26469 1.4001 7.0001 1.4001C7.7355 1.4001 8.4637 1.54495 9.14312 1.82637C9.82255 2.1078 10.4399 2.52029 10.9599 3.0403C11.4799 3.56031 11.8924 4.17765 12.1738 4.85707C12.4552 5.53649 12.6001 6.26469 12.6001 7.0001C12.6001 8.48531 12.0101 9.90969 10.9599 10.9599C9.90969 12.0101 8.48531 12.6001 7.0001 12.6001C5.51488 12.6001 4.0905 12.0101 3.0403 10.9599C1.9901 9.90969 1.4001 8.48531 1.4001 7.0001Z" fill="url(#paint0_linear_1615_8285)"/>
<defs>
<linearGradient id="paint0_linear_1615_8285" x1="3.61186" y1="7.0001" x2="10.8119" y2="7.0001" gradientUnits="userSpaceOnUse">
<stop stop-color="#359CBB"/>
<stop offset="1" stop-color="#64C299"/>
</linearGradient>
</defs>
</svg>
