<svg width="20" height="18" viewBox="0 0 20 18" fill="none" xmlns="http://www.w3.org/2000/svg">
<path fill-rule="evenodd" clip-rule="evenodd" d="M18.5629 0.956958C19.0932 1.52163 19.391 2.28742 19.391 3.08592V14.9139C19.391 15.7124 19.0932 16.4782 18.5629 17.0429C18.0326 17.6075 17.3135 17.9247 16.5636 17.9247H3.43627C2.68639 17.9247 1.96721 17.6076 1.43695 17.0429C0.906697 16.4782 0.608887 15.7124 0.608887 14.9139V3.08592C0.608887 2.28742 0.906668 1.5216 1.43695 0.956958C1.96724 0.392316 2.68639 0.0751953 3.43627 0.0751953H16.5636C17.3135 0.0751953 18.0327 0.392286 18.5629 0.956958ZM17.7061 16.1305C18.009 15.8078 18.1792 15.3703 18.1792 14.9139L18.1792 6.09669H1.82056V14.9139C1.82056 15.3703 1.99088 15.8079 2.29376 16.1305C2.59681 16.453 3.00772 16.6344 3.43627 16.6344H16.5636C16.9921 16.6344 17.4031 16.453 17.7061 16.1305ZM1.8205 4.80636H18.1792L18.1792 3.08588C18.1792 2.62955 18.0089 2.19196 17.706 1.86929C17.403 1.54677 16.9921 1.36541 16.5635 1.36541H3.4362C3.00765 1.36541 2.59671 1.54677 2.29369 1.86929C1.99081 2.19199 1.8205 2.62955 1.8205 3.08588V4.80636ZM6.2637 4.16119C6.82143 4.16119 7.2735 3.67982 7.2735 3.08592C7.2735 2.49203 6.82143 2.01065 6.2637 2.01065C5.70611 2.01065 5.25391 2.49203 5.25391 3.08592C5.25391 3.67982 5.70611 4.16119 6.2637 4.16119ZM9.89898 3.08592C9.89898 3.67982 9.44692 4.16119 8.88919 4.16119C8.33146 4.16119 7.87939 3.67982 7.87939 3.08592C7.87939 2.49203 8.33146 2.01065 8.88919 2.01065C9.44692 2.01065 9.89898 2.49203 9.89898 3.08592ZM3.63821 4.16119C4.1958 4.16119 4.64801 3.67982 4.64801 3.08592C4.64801 2.49203 4.1958 2.01065 3.63821 2.01065C3.08048 2.01065 2.62842 2.49203 2.62842 3.08592C2.62842 3.67982 3.08048 4.16119 3.63821 4.16119Z" fill="#6B9EB6"/>
</svg>
