<svg width="344" height="161" viewBox="0 0 344 161" fill="none" xmlns="http://www.w3.org/2000/svg">
<path d="M200.09 68.8193C199.666 69.1316 199.223 69.4188 198.765 69.6794L196.107 65.0299C202.237 61.8954 203.957 56.3702 201.261 53.3364C200.507 52.5065 199.535 51.9051 198.455 51.6006C195.743 50.7792 193.864 51.9881 192.589 53.6115C191.549 55.0229 190.786 56.6191 190.342 58.3153L189.048 43.3904L188.947 42.228C188.947 42.228 186.126 40.8293 178.486 42.0769C170.845 43.3245 169.439 47.5439 166.157 45.6725C162.875 43.8011 161.015 43.9522 161.015 43.9522C160.082 47.3812 157.582 47.3812 157.582 47.3812C156.99 47.3097 156.409 47.168 155.85 46.9589C152.305 43.7004 151.344 38.0473 151.344 38.0473C155.064 37.5863 155.351 34.0062 154.924 31.0731C156.986 32.2975 159.892 32.3827 163.972 29.7635C175.677 22.2778 187.68 26.3306 191.9 26.9544C193.783 27.2295 195.844 26.567 197.553 25.7921C197.773 26.1875 198.081 26.5279 198.452 26.7878C201.3 28.772 203.649 31.3901 205.313 34.4362C216.298 54.9676 204.256 65.8707 200.09 68.8193Z" fill="#6B9EB6"/>
<path d="M156.242 159.999H160.659C164.592 159.995 167.78 156.807 167.784 152.874V147.93C167.784 147.02 167.422 146.147 166.778 145.504C166.135 144.861 165.261 144.5 164.351 144.501H137.934C137.936 146.626 137.093 148.665 135.59 150.167C134.086 151.67 132.047 152.513 129.922 152.509H34.4637C34.4659 156.645 37.8178 159.997 41.9533 159.999H171.364C171.706 160 172.034 159.865 172.275 159.623C172.516 159.382 172.652 159.054 172.651 158.713V150.688C172.651 147.442 175.282 144.811 178.528 144.811C181.775 144.811 184.406 147.442 184.406 150.688V158.713C184.405 159.053 184.54 159.381 184.78 159.622C185.021 159.863 185.348 159.999 185.689 159.999H342.795C342.795 159.999 337.998 91.5778 293.913 58.299C251.25 26.0935 211.307 41.6151 208.773 42.6535L208.649 42.7" stroke="#6B9EB6" stroke-width="1.5"/>
<path d="M164.599 59.4001C164.595 60.6012 163.619 61.572 162.418 61.5699C161.216 61.5677 160.244 60.5935 160.244 59.3924C160.244 58.1913 161.216 57.217 162.418 57.2148C162.586 57.2156 162.754 57.2365 162.917 57.2768C162.454 57.4228 162.14 57.8531 162.142 58.3385C162.14 58.6382 162.258 58.9264 162.469 59.1394C162.679 59.3524 162.966 59.4727 163.266 59.4737C163.826 59.4626 164.298 59.0537 164.39 58.5012C164.523 58.7823 164.595 59.0889 164.599 59.4001Z" fill="#6B9EB6"/>
<path d="M179.714 60.0095C179.716 60.8938 179.184 61.6918 178.368 62.0312C177.551 62.3707 176.611 62.1847 175.985 61.56C175.359 60.9353 175.172 59.9951 175.51 59.1781C175.848 58.361 176.645 57.8282 177.529 57.8282C177.633 57.8274 177.737 57.8391 177.839 57.863C177.444 58.0447 177.191 58.4397 177.192 58.8743C177.174 59.2757 177.371 59.6563 177.71 59.8726C178.049 60.0889 178.477 60.1081 178.834 59.9229C179.19 59.7378 179.421 59.3765 179.439 58.975C179.618 59.2906 179.713 59.6468 179.714 60.0095Z" fill="#6B9EB6"/>
<path fill-rule="evenodd" clip-rule="evenodd" d="M197.146 22.7227C196.894 24.4197 197.208 25.9076 198.455 26.791C201.303 28.7751 203.652 31.3933 205.317 34.4394C218.421 58.9229 198.765 69.6981 198.765 69.6981L196.107 65.0486C203.759 61.143 204.542 53.4946 198.455 51.6193C192.368 49.744 190.342 58.3339 190.342 58.3339L188.947 42.235C188.947 42.235 186.126 40.8363 178.486 42.0839C170.845 43.3315 169.438 47.551 166.157 45.6795C162.875 43.8081 161.015 43.9592 161.015 43.9592C160.081 47.3882 157.582 47.3882 157.582 47.3882C150.259 46.4545 148.539 36.3224 148.539 36.3224C152.255 35.8575 152.541 32.2774 152.119 29.3482C154.176 30.5726 157.086 30.6617 161.166 28.0386C172.871 20.5529 184.875 24.6096 189.09 25.2334C192.004 25.6557 195.348 23.8734 197.146 22.7227V22.7227Z" stroke="#6B9EB6" stroke-width="1.5" stroke-linecap="round" stroke-linejoin="round"/>
<path d="M203.903 144.137L206.797 142.975L208.967 148.829L208.626 159.453L205.693 159.984L194.561 159.504C194.561 159.504 195.336 153.025 197.703 149.945C200.071 146.865 203.903 144.137 203.903 144.137Z" fill="#F1F4F5"/>
<path d="M184.672 69.6328L178.305 71.9671" stroke="#6B9EB6" stroke-width="1.5"/>
<path d="M158.753 47.0547C158.753 47.0547 155.72 82.7434 178.343 82.0848C182.218 81.9724 186.069 79.4268 189.75 75.3314" stroke="#6B9EB6" stroke-width="1.5"/>
<path d="M198.766 78.5796L189.75 75.3327C189.75 75.3327 191.985 82.4774 203.059 83.0237C214.132 83.57 217.848 58.1567 209.711 47.9316" stroke="#6B9EB6" stroke-width="1.5" stroke-linejoin="round"/>
<path d="M234.016 150.174C234.016 150.174 225.752 156.881 231.366 160" stroke="#6B9EB6" stroke-width="1.5"/>
<path d="M227.623 143.932C227.623 143.932 213.287 152.045 225.597 160" stroke="#6B9EB6" stroke-width="1.5"/>
<path d="M222.788 137.693C222.788 137.693 203.759 146.605 218.421 159.999" stroke="#6B9EB6" stroke-width="1.5"/>
<path d="M302.805 159.999C302.805 159.999 325.89 159.999 326.2 137.693C326.51 115.387 281.437 59.3762 252.269 51.5844C223.101 43.7926 221.85 65.1454 221.85 66.0211C221.85 66.8968 220.137 76.095 227.623 85.9093C233.404 93.4957 258.937 112.435 270.267 120.664C271.119 121.284 271.498 122.366 271.22 123.383C270.942 124.399 270.064 125.137 269.015 125.236L218.909 130.049H218.878C218.405 130.134 200.722 133.396 195.336 138.937C195.336 138.937 192.318 141.172 193.879 144.605C195.441 148.038 200.237 146.907 200.369 146.779" stroke="#6B9EB6" stroke-width="1.5"/>
<circle opacity="0.26" cx="177.532" cy="57.824" r="6.23807" fill="white"/>
<circle opacity="0.26" cx="161.701" cy="57.2068" r="6.23807" fill="white"/>
<path d="M215.623 143.153C213.43 142.541 209.846 141.991 206.153 143.176C204.348 143.758 202.682 144.706 201.26 145.962C200.95 146.233 200.651 146.508 200.365 146.783C199.747 147.389 199.163 148.03 198.617 148.701C198.545 148.79 198.443 148.85 198.331 148.868C196.955 149.058 187.9 150.491 187.947 155.067C187.989 159.178 192.492 159.852 194.041 159.961C194.171 159.973 194.299 159.93 194.395 159.843C194.492 159.757 194.547 159.633 194.549 159.504C194.549 158.039 194.882 153.448 198.505 148.829" stroke="#6B9EB6" stroke-width="1.5"/>
<path d="M134.04 110.859C135.101 119.418 128.449 123.289 121.176 123.862" stroke="#6B9EB6" stroke-width="1.5"/>
<path d="M110.606 122.077C104.926 119.009 101.766 112.72 102.694 106.331C103.857 98.0972 110.831 91.7816 117.658 87.7753C131.994 79.3636 164.3 85.4505 169.728 86.6904C173.89 87.6435 177.369 84.3889 178.779 82.8158C178.902 82.6796 179.092 82.627 179.267 82.6811C179.442 82.7353 179.569 82.8862 179.593 83.0677C182.573 100.503 217.176 124.169 225.181 129.466" stroke="#6B9EB6" stroke-width="1.5"/>
<path d="M142.769 104.94L131.312 112.05C129.931 112.909 128.251 113.145 126.687 112.697C125.124 112.25 123.822 111.162 123.105 109.702C121.78 107.012 122.745 103.757 125.322 102.224L142.757 91.8359" stroke="#6B9EB6" stroke-width="1.5"/>
<circle cx="177.532" cy="57.824" r="6.23807" stroke="#6B9EB6" stroke-width="1.5"/>
<circle cx="161.701" cy="57.2086" r="5.3043" stroke="white" stroke-width="1.5"/>
<circle cx="161.7" cy="57.2088" r="6.23807" stroke="#6B9EB6" stroke-width="1.5"/>
<path d="M171.324 57.2094H167.938" stroke="#6B9EB6" stroke-width="1.5"/>
<path d="M171.325 66.0237H169.093C168.809 66.024 168.539 65.8976 168.358 65.6787C168.177 65.4599 168.102 65.1715 168.156 64.8923L169.632 57.209" stroke="#6B9EB6" stroke-width="1.5"/>
<path d="M126.546 87.3145C126.546 87.3145 118.592 89.0309 115.786 101.042C114.082 108.334 111.741 117.637 110.168 123.821C109.759 125.428 110.116 127.134 111.133 128.444C112.151 129.754 113.717 130.52 115.376 130.52C117.893 130.52 120.074 128.773 120.622 126.316L123.95 111.383" stroke="#6B9EB6" stroke-width="1.5"/>
<path d="M133.818 115.39C133.818 115.39 142.168 110.4 158.616 115.39C175.063 120.38 193.971 123.767 200.209 110.531" stroke="#6B9EB6" stroke-width="1.5"/>
<path d="M206.157 143.178C206.157 143.178 211.969 149.811 208.435 160.001" stroke="#6B9EB6" stroke-width="1.5"/>
<path d="M14.1065 60.6914H105.934C112.022 60.6834 117.323 64.8482 118.755 70.7653L133.374 131.31C134.173 134.619 133.41 138.113 131.304 140.789C129.198 143.464 125.98 145.026 122.575 145.026H30.9842C24.9085 145.031 19.6169 140.881 18.1748 134.979L3.31968 74.4462C2.50691 71.1327 3.26185 67.6295 5.3672 64.9449C7.47256 62.2602 10.6948 60.692 14.1065 60.6914Z" fill="#6B9EB6"/>
<path d="M17.45 63.2949H103.605C109.317 63.3024 114.285 67.2109 115.636 72.7605L129.359 129.558C130.11 132.663 129.395 135.941 127.419 138.451C125.444 140.961 122.426 142.426 119.231 142.425H33.2854C27.5922 142.414 22.6388 138.526 21.2742 132.999L7.32571 76.1973C6.56254 73.0881 7.27121 69.8006 9.24756 67.282C11.2239 64.7633 14.2485 63.2931 17.45 63.2949V63.2949Z" fill="#6B9EB6"/>
<path fill-rule="evenodd" clip-rule="evenodd" d="M14.1065 60.6914H105.934C112.022 60.6834 117.323 64.8482 118.755 70.7653L133.374 131.31C134.173 134.619 133.41 138.113 131.304 140.789C129.198 143.464 125.98 145.026 122.575 145.026H30.9842C24.9085 145.031 19.6169 140.881 18.1748 134.979L3.31968 74.4462C2.50691 71.1327 3.26185 67.6295 5.3672 64.9449C7.47256 62.2602 10.6948 60.692 14.1065 60.6914V60.6914Z" stroke="#6B9EB6" stroke-width="4.83"/>
</svg>
