<svg width="64" height="64" viewBox="0 0 64 64" fill="none" xmlns="http://www.w3.org/2000/svg">
<path d="M13.1191 26.3932C12.9671 26.144 12.8259 25.8042 12.6955 25.3738C12.5652 24.9434 12.5 24.4903 12.5 24.0146C12.5 23.1311 12.6847 22.4968 13.054 22.1117C13.445 21.7265 13.9447 21.534 14.553 21.534H28.7607C28.9128 21.7832 29.054 22.123 29.1843 22.5534C29.3147 22.9838 29.3798 23.4369 29.3798 23.9126C29.3798 24.7961 29.1843 25.4304 28.7933 25.8155C28.424 26.2006 27.9352 26.3932 27.3269 26.3932H23.7098V42.0922C23.4708 42.1602 23.0906 42.2282 22.5692 42.2961C22.0696 42.3641 21.5699 42.3981 21.0703 42.3981C20.5706 42.3981 20.1253 42.3528 19.7342 42.2621C19.3649 42.1942 19.0499 42.0583 18.7892 41.8544C18.5285 41.6505 18.333 41.3673 18.2026 41.0049C18.0723 40.6424 18.0071 40.1667 18.0071 39.5777V26.3932H13.1191Z" fill="#00a4b7"/>
<path d="M35.6303 26.665C35.8693 26.5518 36.2386 26.4272 36.7383 26.2913C37.2597 26.1327 37.7811 26.0534 38.3024 26.0534C39.2149 26.0534 39.9752 26.2006 40.5835 26.4951C41.1918 26.767 41.5611 27.1748 41.6914 27.7184C41.9304 28.6472 42.1477 29.5194 42.3432 30.335C42.5604 31.1278 42.7668 31.8981 42.9623 32.6456C43.1578 33.3706 43.3425 34.0955 43.5163 34.8204C43.7118 35.5453 43.8965 36.3042 44.0703 37.0971H44.2332C44.4287 35.7152 44.6025 34.4013 44.7546 33.1553C44.9067 31.8867 45.0479 30.6521 45.1782 29.4515C45.3086 28.2282 45.4389 27.0275 45.5692 25.8495C45.6996 24.6489 45.8299 23.4369 45.9603 22.2136C46.7641 21.7379 47.6222 21.5 48.5346 21.5C49.3384 21.5 50.0336 21.6812 50.6202 22.0437C51.2067 22.4061 51.5 23.0178 51.5 23.8786C51.5 24.377 51.4457 25.0906 51.3371 26.0194C51.2502 26.9256 51.1198 27.945 50.946 29.0777C50.794 30.2104 50.6093 31.3997 50.3921 32.6456C50.1748 33.8916 49.9467 35.0809 49.7077 36.2136C49.4688 37.3463 49.2189 38.377 48.9582 39.3058C48.7193 40.212 48.4912 40.9142 48.2739 41.4126C47.9481 41.7298 47.4158 41.9903 46.6772 42.1942C45.9386 42.3981 45.1782 42.5 44.3961 42.5C43.3751 42.5 42.5061 42.3641 41.7892 42.0922C41.094 41.7977 40.6704 41.39 40.5183 40.8689C40.2359 39.9628 39.9318 38.8867 39.6059 37.6408C39.28 36.3948 38.9325 35.0243 38.5631 33.5291C38.259 35.0016 37.944 36.4401 37.6181 37.8447C37.2923 39.2492 36.999 40.4385 36.7383 41.4126C36.4124 41.7298 35.9236 41.9903 35.2719 42.1942C34.6202 42.3981 33.9033 42.5 33.1212 42.5C32.1436 42.5 31.2529 42.3641 30.4491 42.0922C29.667 41.7977 29.1565 41.39 28.9175 40.8689C28.722 40.4612 28.5048 39.8608 28.2658 39.068C28.0485 38.2524 27.8204 37.335 27.5815 36.3155C27.3425 35.2735 27.0927 34.1521 26.832 32.9515C26.593 31.7508 26.3649 30.5502 26.1477 29.3495C25.9521 28.1489 25.7675 26.9822 25.5937 25.8495C25.4199 24.6942 25.2895 23.6408 25.2026 22.6893C25.5068 22.3948 25.9304 22.123 26.4735 21.8738C27.0166 21.6246 27.6032 21.5 28.2332 21.5C29.0587 21.5 29.7322 21.6926 30.2536 22.0777C30.7967 22.4401 31.1334 23.0631 31.2637 23.9466C31.6113 26.2573 31.8938 28.1828 32.111 29.7233C32.35 31.2638 32.5346 32.5324 32.665 33.5291C32.817 34.5032 32.9257 35.2621 32.9908 35.8058C33.056 36.3495 33.1212 36.7799 33.1864 37.0971H33.3493C33.5448 36.1909 33.7295 35.3527 33.9033 34.5825C34.0771 33.8123 34.2508 33.0421 34.4246 32.2718C34.6202 31.479 34.8157 30.6408 35.0112 29.7573C35.2067 28.8511 35.4131 27.8204 35.6303 26.665Z" fill="#00a4b7"/>
<rect x="2.5" y="2.5" width="59" height="59" rx="29.5" stroke="#00a4b7" stroke-width="5"/>
</svg>
