<svg width="56" height="56" viewBox="0 0 56 56" fill="none" xmlns="http://www.w3.org/2000/svg">
<rect x="2.5" y="2.5" width="51" height="51" rx="25.5" fill="#64C299"/>
<path d="M26.6741 37.4837C26.0651 38.0917 25.2371 38.4347 24.3761 38.4347C23.5151 38.4347 22.6871 38.0917 22.0781 37.4837L14.9561 30.3607C13.6871 29.0917 13.6871 27.0337 14.9561 25.7647C16.2261 24.4947 18.2831 24.4947 19.5531 25.7647L23.7961 30.0067C24.1171 30.3267 24.6361 30.3267 24.9571 30.0067L36.4461 18.5177C37.7171 17.2477 39.7731 17.2477 41.0431 18.5177C42.3131 19.7877 42.3131 21.8447 41.0431 23.1147L26.6741 37.4837Z" fill="white"/>
<rect x="2.5" y="2.5" width="51" height="51" rx="25.5" stroke="white" stroke-width="5"/>
</svg>
