<svg class="arrow-hover" width="40" height="40" viewBox="0 0 40 40" fill="none" xmlns="http://www.w3.org/2000/svg">
<rect width="40" height="40" rx="20" fill="#00a4b7"/>
<path  d="M20 0C8.95427 0 0 8.95427 0 20C0 31.0455 8.95427 40 20 40C31.0457 40 40 31.0455 40 20C40 8.95427 31.0457 0 20 0ZM26.0944 21.3545C25.9969 21.452 25.89 21.5344 25.7787 21.606L18.2727 29.112C17.9081 29.4768 17.4303 29.6591 16.9524 29.6591C16.4745 29.6591 15.9969 29.4768 15.6321 29.112C14.9028 28.3827 14.9028 27.2 15.6321 26.4709L22.1 20.0021L15.6647 13.5668C14.9353 12.8371 14.9353 11.6548 15.6647 10.9257C16.394 10.1964 17.5764 10.1968 18.3057 10.9253L25.7785 18.3977C25.8899 18.4693 25.9968 18.5516 26.0939 18.6492C26.4667 19.022 26.6465 19.5131 26.6381 20.002C26.6469 20.4907 26.4675 20.9815 26.0944 21.3545Z"  fill="white"/>
</svg>
