<svg width="161" height="160" viewBox="0 0 161 160" fill="none" xmlns="http://www.w3.org/2000/svg">
<path d="M13.4851 84.7439H55.067C56.2279 84.7439 57.1691 85.746 57.1691 86.9823V117.156C57.1691 118.392 56.2279 119.395 55.067 119.395H13.4851C12.3241 119.395 11.383 118.392 11.383 117.156V86.9823C11.383 85.746 12.3241 84.7439 13.4851 84.7439Z" fill="#F1F4F5"/>
<path d="M12.0587 98.8882H23.9099C25.8763 98.8882 27.4703 100.586 27.4703 102.679V103.302C27.4703 105.396 25.8763 107.094 23.9099 107.094H12.0587C10.0923 107.094 8.49825 105.396 8.49825 103.302V102.679C8.49825 100.586 10.0923 98.8882 12.0587 98.8882Z" fill="#D6E1E3"/>
<path d="M20.9789 104.654C20.1091 103.337 20.4065 101.519 21.6433 100.593C22.88 99.6663 24.5878 99.9831 25.4576 101.3C26.3274 102.617 26.03 104.435 24.7933 105.362C23.5565 106.288 21.8488 105.971 20.9789 104.654Z" fill="#B9CDCE"/>
<path d="M5.17566 114.05C5.30671 114.089 5.41951 114.178 5.49209 114.301C5.56467 114.423 5.59182 114.57 5.56827 114.713C5.53465 114.852 5.45254 114.973 5.33851 115.051C5.22449 115.128 5.08705 115.157 4.95397 115.131C4.81564 115.088 4.69704 114.993 4.62107 114.862C4.54511 114.732 4.51718 114.577 4.54266 114.426C4.59059 114.283 4.68875 114.166 4.81637 114.099C4.94398 114.032 5.09105 114.021 5.2264 114.067" fill="#D6E1E3"/>
<path d="M121.419 40.6055L156.8 61.974V111.017L97.5986 111.717V100.858V60.2225L87.79 65.1268V62.3243L121.419 40.6055Z" fill="white"/>
<path d="M77.7149 42.1788C77.5501 42.2037 77.3913 42.2659 77.2505 42.3606L46.3234 63.2391C46.0577 63.4151 45.8683 63.6964 45.7974 64.0212C45.7259 64.346 45.7788 64.6871 45.9442 64.9701C46.1095 65.2537 46.3742 65.4553 46.6787 65.5309C46.9838 65.6064 47.3046 65.5501 47.5704 65.374L77.8856 44.8853L108.176 65.374C108.729 65.7476 109.462 65.5727 109.814 64.9835C110.165 64.3937 110 63.6127 109.447 63.239L78.5201 42.3606C78.2805 42.1979 77.994 42.1334 77.713 42.1787L77.7149 42.1788ZM56.6172 59.7402C56.0175 59.8204 55.5733 60.3724 55.5902 61.0157V101.548C55.5858 101.882 55.7075 102.204 55.928 102.442C56.149 102.681 56.4497 102.815 56.764 102.815C57.0778 102.815 57.379 102.681 57.5995 102.442C57.82 102.204 57.9417 101.882 57.9373 101.548V61.0157C57.9471 60.6513 57.8069 60.2998 57.5531 60.0545C57.2994 59.8093 56.9572 59.6948 56.6172 59.7402ZM98.8629 59.7402C98.2637 59.8204 97.8189 60.3724 97.8364 61.0157V101.548C97.832 101.882 97.9537 102.204 98.1742 102.442C98.3946 102.681 98.6959 102.815 99.0097 102.815C99.324 102.815 99.6247 102.681 99.8457 102.442C100.066 102.204 100.188 101.882 100.183 101.548V61.0157C100.193 60.6513 100.053 60.2998 99.7988 60.0545C99.545 59.8093 99.2034 59.6948 98.8629 59.7402ZM77.74 66.9096C77.1501 66.9886 76.7087 67.5255 76.7136 68.1589V69.7209C75.2418 69.8993 73.9785 70.4078 73.0218 71.205C71.8174 72.208 71.0906 73.6927 71.0906 75.2401C71.0906 76.8753 71.9817 78.2927 73.2173 79.2491C74.4014 80.1654 75.9349 80.7192 77.6178 80.811C77.691 80.8151 77.7641 80.8087 77.8378 80.811C77.8787 80.8134 77.9196 80.8134 77.96 80.811C79.2391 80.8755 80.3933 81.3346 81.1628 81.9302C81.9573 82.5456 82.3121 83.2406 82.3121 83.9089C82.3121 84.666 81.9961 85.3732 81.285 85.9653C80.5745 86.558 79.4542 87.0066 77.8869 87.0066C76.58 87.0066 75.4024 86.5615 74.6111 85.9397C73.8193 85.3174 73.4373 84.5777 73.4373 83.9089C73.4422 83.5747 73.3205 83.2522 73.0995 83.014C72.879 82.7757 72.5783 82.6415 72.264 82.6415C71.9497 82.6415 71.649 82.7757 71.4285 83.014C71.2075 83.2523 71.0858 83.5747 71.0907 83.9089C71.0907 85.5446 71.9791 86.9706 73.2174 87.944C74.1806 88.7011 75.3822 89.2323 76.7137 89.4281V90.9639C76.7088 91.2986 76.8305 91.6205 77.0515 91.8588C77.2719 92.097 77.5726 92.2312 77.887 92.2312C78.2013 92.2312 78.502 92.097 78.7225 91.8588C78.9435 91.6205 79.0652 91.2986 79.0602 90.9639V89.4281C80.532 89.2497 81.7953 88.7412 82.752 87.944C83.9564 86.941 84.6592 85.4563 84.6592 83.9089C84.6592 82.2737 83.7675 80.8563 82.532 79.9C81.3369 78.9748 79.7843 78.424 78.0822 78.338C78.0249 78.3351 77.9687 78.3136 77.9114 78.3118C77.8688 78.3107 77.8312 78.3142 77.7892 78.3118C76.5133 78.2479 75.3799 77.8138 74.6109 77.2188C73.8164 76.6034 73.4371 75.9084 73.4371 75.2401C73.4371 74.483 73.7531 73.7758 74.4642 73.1837C75.1752 72.591 76.3195 72.1424 77.8868 72.1424C79.1938 72.1424 80.3714 72.5875 81.1627 73.2093C81.9545 73.8316 82.312 74.5713 82.312 75.2401C82.3076 75.5742 82.4293 75.8968 82.6498 76.135C82.8702 76.3732 83.1715 76.5075 83.4852 76.5075C83.7996 76.5075 84.1002 76.3732 84.3213 76.135C84.5417 75.8967 84.6634 75.5742 84.6591 75.2401C84.6591 73.605 83.7947 72.1522 82.5564 71.1788C81.5933 70.4217 80.3916 69.9097 79.0601 69.7209V68.1589C79.0628 67.7986 78.9193 67.4546 78.6667 67.2152C78.4135 66.9758 78.0756 66.8643 77.74 66.9096ZM51.3617 103.225C50.7134 103.261 50.2157 103.849 50.2495 104.539C50.2828 105.23 50.8356 105.76 51.4839 105.724H104.291C104.605 105.729 104.908 105.599 105.131 105.364C105.355 105.129 105.481 104.809 105.481 104.474C105.481 104.14 105.355 103.819 105.131 103.584C104.908 103.35 104.605 103.22 104.291 103.225H51.4839C51.443 103.222 51.4026 103.222 51.3617 103.225ZM46.0808 109.655C45.4331 109.691 44.9348 110.279 44.9687 110.97C45.0025 111.659 45.5553 112.19 46.2031 112.154H109.572C109.885 112.159 110.188 112.029 110.412 111.794C110.636 111.559 110.762 111.239 110.762 110.905C110.762 110.57 110.636 110.25 110.412 110.014C110.188 109.78 109.885 109.65 109.572 109.655H46.2031C46.1627 109.653 46.1217 109.653 46.0808 109.655Z" fill="#6B9EB6" stroke="white" stroke-width="1.3"/>
<path d="M122.099 118.667C66.7047 118.667 61.9649 118.667 6.57019 118.667" stroke="#6B9EB6" stroke-width="1.5" stroke-miterlimit="10"/>
<path d="M35.2322 50.2183C35.2322 50.2183 29.5275 51.8194 27.7235 58.2255L30.1408 59.3708C30.1408 59.3708 30.6964 54.9139 36.3482 52.973C39.4068 51.9222 43.4569 53.4039 44.5776 54.763L47.2999 53.5117C45.4803 51.3785 40.9898 48.5476 35.2322 50.2183Z" fill="#D6E1E3"/>
<path d="M26.1715 56.6111L32.2014 58.7409L27.5739 61.2105L26.1715 56.6111Z" fill="#D6E1E3"/>
<path d="M29.3791 73.12C29.6747 73.786 30.0906 74.3834 30.603 74.8783C31.1154 75.3731 31.7143 75.7556 32.3656 76.0039C33.0168 76.2523 33.7076 76.3616 34.3986 76.3256C35.0895 76.2897 35.767 76.1092 36.3924 75.7944C36.6727 75.6537 36.9411 75.4875 37.1944 75.2974C38.0098 74.6791 38.6426 73.826 39.0188 72.8382C39.3949 71.8504 39.4988 70.7689 39.3181 69.7205C39.1374 68.6721 38.6798 67.7003 37.9988 66.919C37.3178 66.1378 36.4417 65.5795 35.4733 65.3097C34.505 65.0399 33.4844 65.0698 32.5313 65.3957C31.5783 65.7217 30.7323 66.3303 30.0926 67.1501C29.4529 67.97 29.046 68.9671 28.9196 70.0245C28.7933 71.0818 28.9527 72.1557 29.3791 73.12Z" fill="#6B9EB6"/>
<path d="M30.406 72.6685C30.7434 73.4351 31.2867 74.078 31.9673 74.5156C32.6479 74.9533 33.4351 75.1661 34.2293 75.1272C35.0235 75.0883 35.789 74.7993 36.429 74.2969C37.0689 73.7946 37.5545 73.1013 37.8243 72.305C38.0941 71.5086 38.136 70.6449 37.9446 69.8232C37.7533 69.0015 37.3373 68.2587 36.7494 67.6888C36.1614 67.1189 35.4279 66.7475 34.6417 66.6217C33.8555 66.4959 33.0519 66.6213 32.3326 66.982C31.8553 67.2205 31.4269 67.5569 31.0717 67.9718C30.7166 68.3867 30.4417 68.8721 30.2628 69.4002C30.0839 69.9283 30.0044 70.4887 30.029 71.0495C30.0536 71.6103 30.1817 72.1605 30.406 72.6685Z" fill="#6B9EB6"/>
<g opacity="0.5">
<path d="M33.6924 73.2421L33.4025 73.9204L32.8344 73.6435L33.1152 72.9832C32.5679 72.6745 32.1064 72.2246 31.9049 71.8135L32.5328 71.2252C32.7555 71.6277 33.0727 71.9616 33.4532 72.1942L33.8848 71.1823C33.3232 70.713 32.7148 70.1482 33.0814 69.2803C33.3557 68.638 34.0291 68.2989 34.9741 68.6242L35.2614 67.9514L35.8308 68.2283L35.5487 68.8844C35.9462 69.1044 36.2885 69.4224 36.5471 69.8119L35.9452 70.4196C35.7479 70.1247 35.4973 69.8749 35.2081 69.6845L34.7687 70.7144C35.3342 71.1767 35.9322 71.7374 35.5682 72.5915C35.3004 73.2227 34.6388 73.5591 33.6924 73.2421ZM34.2644 70.288L34.631 69.427C34.2982 69.3537 34.1045 69.4727 34.0187 69.6721C33.9329 69.8714 34.0499 70.0818 34.2644 70.288ZM34.6219 72.226C34.7115 72.0142 34.5958 71.819 34.3892 71.61L34.033 72.4406C34.3463 72.5126 34.5387 72.4157 34.6219 72.2219V72.226Z" fill="white"/>
</g>
<path d="M21.2955 78.5295C21.4803 78.9457 21.7402 79.3191 22.0604 79.6284C22.3807 79.9376 22.755 80.1767 23.1621 80.3319C23.5691 80.4871 24.0008 80.5554 24.4327 80.533C24.8645 80.5105 25.2879 80.3977 25.6788 80.2009C25.854 80.113 26.0217 80.0091 26.1801 79.8904C26.6897 79.5039 27.0852 78.9707 27.3203 78.3533C27.5554 77.736 27.6203 77.06 27.5074 76.4047C27.3945 75.7495 27.1084 75.1421 26.6828 74.6538C26.2572 74.1656 25.7097 73.8166 25.1044 73.648C24.4992 73.4794 23.8613 73.498 23.2657 73.7018C22.67 73.9055 22.1413 74.2859 21.7415 74.7983C21.3416 75.3107 21.0873 75.9339 21.0083 76.5947C20.9294 77.2556 21.029 77.9267 21.2955 78.5295Z" fill="#6B9EB6"/>
<path d="M21.9375 78.2472C22.1483 78.7263 22.4879 79.1281 22.9133 79.4016C23.3386 79.6751 23.8306 79.8082 24.327 79.7838C24.8234 79.7595 25.3018 79.5789 25.7018 79.2649C26.1017 78.9509 26.4052 78.5177 26.5739 78.0199C26.7425 77.5222 26.7687 76.9824 26.6491 76.4688C26.5295 75.9553 26.2695 75.491 25.902 75.1348C25.5346 74.7787 25.0761 74.5466 24.5847 74.4679C24.0934 74.3893 23.5911 74.4677 23.1416 74.6931C22.8433 74.8422 22.5755 75.0524 22.3535 75.3117C22.1315 75.571 21.9597 75.8744 21.8479 76.2045C21.7361 76.5345 21.6865 76.8848 21.7018 77.2353C21.7172 77.5858 21.7973 77.9296 21.9375 78.2472Z" fill="#6B9EB6"/>
<g opacity="0.5">
<path d="M23.9913 78.6057L23.8101 79.0296L23.4551 78.8566L23.6306 78.4439C23.2885 78.251 23.0001 77.9698 22.8741 77.7129L23.2666 77.3452C23.4058 77.5967 23.604 77.8055 23.8418 77.9508L24.1116 77.3184C23.7606 77.0251 23.3803 76.6721 23.6095 76.1296C23.7809 75.7282 24.2018 75.5162 24.7925 75.7195L24.972 75.2991L25.3279 75.4721L25.1516 75.8822C25.4 76.0197 25.614 76.2184 25.7756 76.4618L25.3994 76.8417C25.2761 76.6574 25.1194 76.5012 24.9387 76.3823L24.6641 77.0259C25.0175 77.3149 25.3913 77.6653 25.1638 78.1991C24.9964 78.5936 24.5828 78.8038 23.9913 78.6057ZM24.3488 76.7595L24.578 76.2213C24.37 76.1755 24.2489 76.2499 24.1953 76.3745C24.1416 76.4991 24.2148 76.6306 24.3488 76.7595ZM24.5723 77.9707C24.6283 77.8383 24.556 77.7163 24.4268 77.5857L24.2042 78.1048C24.4 78.1498 24.5203 78.0892 24.5723 77.9681V77.9707Z" fill="white"/>
</g>
</svg>
