<svg width="11" height="16" viewBox="0 0 11 16" fill="none" xmlns="http://www.w3.org/2000/svg">
<path d="M0.293425 4.29343L4.28842 0.293425C4.46049 0.121101 4.68952 0.0174853 4.93255 0.00201986C5.17558 -0.0134456 5.4159 0.0603019 5.60842 0.209425L5.70242 0.292425L9.70842 4.29242C9.89181 4.47149 9.99943 4.71413 10.0091 4.97025C10.0187 5.22638 9.92967 5.47643 9.76029 5.66878C9.5909 5.86114 9.35412 5.98111 9.09884 6.00393C8.84355 6.02676 8.58924 5.95069 8.38842 5.79143L8.29442 5.70843L6.00143 3.41742V15.0014C6.00139 15.2464 5.91147 15.4828 5.74871 15.6658C5.58595 15.8488 5.36168 15.9658 5.11842 15.9944L5.00042 16.0004C4.75534 16.0004 4.51881 15.9103 4.33575 15.7473C4.15269 15.5844 4.03585 15.3599 4.00742 15.1164L4.00042 15.0014V3.41042L1.70742 5.70742C1.53536 5.87975 1.30632 5.98336 1.0633 5.99883C0.820267 6.01429 0.579947 5.94055 0.387425 5.79143L0.293425 5.70742C0.121101 5.53536 0.0174853 5.30632 0.00201986 5.0633C-0.0134456 4.82027 0.0603019 4.57995 0.209425 4.38742L0.293425 4.29343L4.28842 0.293425L0.293425 4.29343Z" fill="#44B081"/>
</svg>
