<svg width="21" height="21" viewBox="0 0 21 21" fill="none" xmlns="http://www.w3.org/2000/svg">
<path d="M17.5249 3.32539C13.6249 -0.574609 7.2249 -0.574609 3.3249 3.32539C-0.575098 7.22539 -0.575098 13.6254 3.3249 17.5254C7.2249 21.4254 13.5249 21.4254 17.4249 17.5254C21.3249 13.6254 21.4249 7.22539 17.5249 3.32539ZM13.9249 13.9254C13.5383 14.312 12.9115 14.312 12.5249 13.9254L10.4249 11.8254L8.3249 13.9254C7.9383 14.312 7.3115 14.312 6.9249 13.9254C6.5383 13.5388 6.5383 12.912 6.9249 12.5254L9.0249 10.4254L6.9249 8.32539C6.5383 7.93879 6.5383 7.31199 6.9249 6.92539C7.3115 6.53879 7.9383 6.53879 8.3249 6.92539L10.4249 9.02539L12.5249 6.92539C12.9115 6.53879 13.5383 6.53879 13.9249 6.92539C14.3115 7.31199 14.3115 7.93879 13.9249 8.32539L11.8249 10.4254L13.9249 12.5254C14.3115 12.912 14.3115 13.5388 13.9249 13.9254Z" fill="url(#paint0_linear_1663_243)"/>
<defs>
<linearGradient id="paint0_linear_1663_243" x1="5.1059" y1="10.4254" x2="16.3562" y2="10.4254" gradientUnits="userSpaceOnUse">
<stop stop-color="#359CBB"/>
<stop offset="1" stop-color="#64C299"/>
</linearGradient>
</defs>
</svg>
