<svg width="24" height="24" viewBox="0 0 24 24" fill="none" xmlns="http://www.w3.org/2000/svg">
    <path d="M5.325 5.325c3.9-3.9 10.3-3.9 14.2 0 3.9 3.9 3.8 10.3-.1 14.2-3.9 3.9-10.2 3.9-14.1 0-3.9-3.9-3.9-10.3 0-14.2z" fill="#fff"/>
    <path d="M19.525 5.325c-3.9-3.9-10.3-3.9-14.2 0-3.9 3.9-3.9 10.3 0 14.2 3.9 3.9 10.2 3.9 14.1 0 3.9-3.9 4-10.3.1-14.2zm-3.6 10.6a.99.99 0 0 1-1.4 0l-2.1-2.1-2.1 2.1a.99.99 0 0 1-1.4-1.4l2.1-2.1-2.1-2.1a.99.99 0 0 1 1.4-1.4l2.1 2.1 2.1-2.1a.99.99 0 1 1 1.4 1.4l-2.1 2.1 2.1 2.1a.99.99 0 0 1 0 1.4z" fill="#00A4B7"/>
</svg>
