<svg width="24" height="24" viewBox="0 0 24 24" fill="none" xmlns="http://www.w3.org/2000/svg">
<path d="M12 0.625C14.0307 0.625 15.6858 2.2329 15.7617 4.245L15.7644 4.38939H20.5108C20.9628 4.38939 21.3292 4.75577 21.3292 5.20773C21.3292 5.63145 21.0072 5.97995 20.5945 6.02185L20.5108 6.02608H19.7966L18.6815 20.802C18.572 22.2533 17.3625 23.375 15.9071 23.375H8.093C6.63757 23.375 5.42805 22.2533 5.31852 20.802L4.20284 6.02608H3.48924C3.06553 6.02608 2.71703 5.70406 2.67512 5.2914L2.6709 5.20773C2.6709 4.78402 2.99292 4.43552 3.40557 4.39361L3.48924 4.38939H8.23565C8.23565 2.31037 9.92102 0.625 12 0.625ZM18.1554 6.02608H5.8447L6.95057 20.6788C6.99567 21.2764 7.49371 21.7383 8.093 21.7383H15.9071C16.5064 21.7383 17.0044 21.2764 17.0495 20.6788L18.1554 6.02608ZM14.1277 9.46313C14.5514 9.46313 14.8999 9.78515 14.9419 10.1978L14.9461 10.2815V17.4829C14.9461 17.9349 14.5797 18.3013 14.1277 18.3013C13.704 18.3013 13.3555 17.9792 13.3136 17.5666L13.3094 17.4829V10.2815C13.3094 9.82952 13.6758 9.46313 14.1277 9.46313ZM9.87234 9.46313C10.296 9.46313 10.6445 9.78515 10.6865 10.1978L10.6907 10.2815V17.4829C10.6907 17.9349 10.3243 18.3013 9.87234 18.3013C9.44862 18.3013 9.10012 17.9792 9.05822 17.5666L9.05399 17.4829V10.2815C9.05399 9.82952 9.42038 9.46313 9.87234 9.46313ZM12 2.26169C10.8655 2.26169 9.9383 3.14973 9.8757 4.26865L9.87234 4.38939H14.1277C14.1277 3.21429 13.1751 2.26169 12 2.26169Z" fill="#00A4B7"/>
</svg>
