<svg width="20" height="24" viewBox="0 0 20 24" fill="none" xmlns="http://www.w3.org/2000/svg">
<path d="M10 0.625C12.0307 0.625 13.6858 2.2329 13.7617 4.245L13.7644 4.38939H18.5108C18.9628 4.38939 19.3292 4.75577 19.3292 5.20773C19.3292 5.63145 19.0072 5.97995 18.5945 6.02185L18.5108 6.02608H17.7966L16.6815 20.802C16.572 22.2533 15.3625 23.375 13.9071 23.375H6.093C4.63757 23.375 3.42805 22.2533 3.31852 20.802L2.20284 6.02608H1.48924C1.06553 6.02608 0.717031 5.70406 0.675123 5.2914L0.670898 5.20773C0.670898 4.78402 0.992917 4.43552 1.40557 4.39361L1.48924 4.38939H6.23565C6.23565 2.31037 7.92102 0.625 10 0.625ZM16.1554 6.02608H3.8447L4.95057 20.6788C4.99567 21.2764 5.49371 21.7383 6.093 21.7383H13.9071C14.5064 21.7383 15.0044 21.2764 15.0495 20.6788L16.1554 6.02608ZM12.1277 9.46313C12.5514 9.46313 12.8999 9.78515 12.9419 10.1978L12.9461 10.2815V17.4829C12.9461 17.9349 12.5797 18.3013 12.1277 18.3013C11.704 18.3013 11.3555 17.9792 11.3136 17.5666L11.3094 17.4829V10.2815C11.3094 9.82952 11.6758 9.46313 12.1277 9.46313ZM7.87234 9.46313C8.29605 9.46313 8.64455 9.78515 8.68646 10.1978L8.69068 10.2815V17.4829C8.69068 17.9349 8.3243 18.3013 7.87234 18.3013C7.44862 18.3013 7.10012 17.9792 7.05822 17.5666L7.05399 17.4829V10.2815C7.05399 9.82952 7.42038 9.46313 7.87234 9.46313ZM10 2.26169C8.86546 2.26169 7.9383 3.14973 7.8757 4.26865L7.87234 4.38939H12.1277C12.1277 3.21429 11.1751 2.26169 10 2.26169Z" fill="url(#paint0_linear_1663_2317)"/>
<defs>
<linearGradient id="paint0_linear_1663_2317" x1="5.06108" y1="12" x2="15.5564" y2="12" gradientUnits="userSpaceOnUse">
<stop stop-color="#359CBB"/>
<stop offset="1" stop-color="#64C299"/>
</linearGradient>
</defs>
</svg>
