<svg width="16" height="15" viewBox="0 0 16 15" fill="none" xmlns="http://www.w3.org/2000/svg">
<path d="M1 8.5H12.86L9.23 12.86C9.14595 12.9611 9.08265 13.0778 9.0437 13.2034C9.00474 13.329 8.99091 13.461 9.00298 13.5919C9.02736 13.8564 9.15578 14.1003 9.36 14.27C9.56422 14.4397 9.8275 14.5214 10.0919 14.497C10.3563 14.4726 10.6003 14.3442 10.77 14.14L15.77 8.14C15.8036 8.09228 15.8337 8.04214 15.86 7.99C15.86 7.94 15.91 7.91 15.93 7.86C15.9753 7.74534 15.9991 7.62329 16 7.5C15.9991 7.37671 15.9753 7.25466 15.93 7.14C15.93 7.09 15.88 7.06 15.86 7.01C15.8337 6.95786 15.8036 6.90773 15.77 6.86L10.77 0.860002C10.676 0.747119 10.5582 0.656339 10.4252 0.594118C10.2921 0.531897 10.1469 0.499763 10 0.500002C9.76635 0.499545 9.53991 0.580921 9.36 0.730002C9.25874 0.813951 9.17504 0.917051 9.11369 1.0334C9.05234 1.14975 9.01454 1.27705 9.00246 1.40803C8.99039 1.53901 9.00427 1.67108 9.04331 1.79668C9.08236 1.92229 9.1458 2.03895 9.23 2.14L12.86 6.5H1C0.734784 6.5 0.48043 6.60536 0.292893 6.79289C0.105357 6.98043 0 7.23479 0 7.5C0 7.76522 0.105357 8.01957 0.292893 8.20711C0.48043 8.39464 0.734784 8.5 1 8.5Z" fill="#00A4B7"/>
</svg>
