<svg width="8" height="12" viewBox="0 0 8 12" fill="none" xmlns="http://www.w3.org/2000/svg">
<path d="M3.22009 11.7807C3.36072 11.9211 3.55134 12 3.75009 12C3.94884 12 4.13946 11.9211 4.28009 11.7807L7.03009 9.03066C7.10378 8.962 7.16288 8.8792 7.20387 8.7872C7.24486 8.6952 7.26691 8.59589 7.26868 8.49518C7.27046 8.39448 7.25193 8.29445 7.21421 8.20106C7.17649 8.10767 7.12035 8.02284 7.04913 7.95162C6.97791 7.8804 6.89308 7.82426 6.79969 7.78654C6.7063 7.74882 6.60627 7.73029 6.50557 7.73207C6.40487 7.73385 6.30555 7.75589 6.21355 7.79688C6.12155 7.83787 6.03875 7.89697 5.97009 7.97066L4.50009 9.44066V0.75066C4.50009 0.551747 4.42107 0.360983 4.28042 0.22033C4.13977 0.0796776 3.949 0.000659943 3.75009 0.000659943C3.55118 0.000659943 3.36041 0.0796776 3.21976 0.22033C3.07911 0.360983 3.00009 0.551747 3.00009 0.75066V9.44066L1.53009 7.97066C1.38792 7.83818 1.19987 7.76606 1.00557 7.76948C0.811267 7.77291 0.625882 7.85162 0.488469 7.98904C0.351056 8.12645 0.272344 8.31184 0.268916 8.50614C0.265487 8.70044 0.33761 8.88849 0.47009 9.03066L3.22009 11.7807Z" fill="#00A4B7"/>
</svg>
