<svg width="18" height="18" viewBox="0 0 18 18" fill="none" xmlns="http://www.w3.org/2000/svg">
<path d="M0 9C0 4.02944 4.02944 0 9 0V0C13.9706 0 18 4.02944 18 9V9C18 13.9706 13.9706 18 9 18V18C4.02944 18 0 13.9706 0 9V9Z" fill="#64C299"/>
<path d="M8.50049 12.5763C8.27083 12.8056 7.95859 12.9349 7.6339 12.9349C7.30921 12.9349 6.99697 12.8056 6.76731 12.5763L4.08157 9.89019C3.60302 9.41165 3.60302 8.63556 4.08157 8.15702C4.56049 7.67809 5.3362 7.67809 5.81512 8.15702L7.41518 9.7567C7.53623 9.87737 7.73195 9.87737 7.853 9.7567L12.1856 5.42413C12.6649 4.94521 13.4402 4.94521 13.9191 5.42413C14.398 5.90306 14.398 6.67876 13.9191 7.15769L8.50049 12.5763Z" fill="white"/>
</svg>
