<svg width="40" height="40" viewBox="0 0 40 40" fill="none" xmlns="http://www.w3.org/2000/svg">
<g opacity="0.8">
<rect x="40" y="40" width="40" height="40" rx="20" transform="rotate(-180 40 40)" fill="#12B5C1"/>
<path class="arrow-hover" d="M20 40C31.0457 40 40 31.0457 40 20C40 8.95453 31.0457 -2.08616e-06 20 -2.08616e-06C8.95426 -2.08616e-06 -2.08616e-06 8.95453 -2.08616e-06 20C-2.08616e-06 31.0457 8.95426 40 20 40ZM13.9056 18.6455C14.0031 18.548 14.11 18.4656 14.2213 18.394L21.7273 10.888C22.0919 10.5232 22.5697 10.3409 23.0476 10.3409C23.5255 10.3409 24.0031 10.5232 24.3679 10.888C25.0972 11.6173 25.0972 12.8 24.3679 13.5291L17.9 19.9979L24.3353 26.4332C25.0647 27.1629 25.0647 28.3452 24.3353 29.0743C23.606 29.8036 22.4236 29.8032 21.6943 29.0747L14.2215 21.6023C14.1101 21.5307 14.0032 21.4484 13.9061 21.3508C13.5333 20.978 13.3535 20.4869 13.3619 19.998C13.3531 19.5093 13.5325 19.0185 13.9056 18.6455Z" fill="white"/>
</g>
</svg>

