<svg width="164" height="160" viewBox="0 0 164 160" fill="none" xmlns="http://www.w3.org/2000/svg">
<g opacity="0.8">
<rect x="60.4235" y="71.9172" width="45.1117" height="12.8891" rx="6.44453" fill="#6B9EB6"/>
<rect x="58.0367" y="26.3909" width="69.6964" height="2.86424" fill="#B9CDCE"/>
<path d="M58.0367 34.0288H98.1361V36.893H58.0367V34.0288Z" fill="#B9CDCE"/>
<path d="M59.787 57.6069H93.2031V60.4712H59.787V57.6069Z" fill="#B9CDCE"/>
<path d="M59.787 50.4465H117.072V53.3108H59.787V50.4465Z" fill="#B9CDCE"/>
<path d="M146.357 86.2155C146.345 86.1563 146.332 86.099 146.314 86.0398C145.735 83.8333 144.542 81.865 142.893 80.3935C142.873 80.382 142.85 80.361 142.83 80.3477C142.677 80.2312 142.518 80.1185 142.358 80.0078C142.143 79.8645 141.921 79.7271 141.7 79.5896C141.681 79.5758 141.661 79.5648 141.639 79.5571C140.786 79.1336 139.973 78.6219 139.213 78.0295L139.175 78.0028C138.15 77.2772 137.223 76.4332 136.582 75.2627C136.568 75.238 136.556 75.2117 136.546 75.1844C136.534 75.1844 136.534 75.1634 136.529 75.1577C135.939 74.2029 135.582 73.1565 135.655 72.07V72.0375C135.476 70.2655 135.655 68.4 135.587 66.6012C135.587 66.4905 135.587 66.3797 135.569 66.2671C135.551 66.1544 135.551 66.0188 135.544 65.9081C135.551 65.8715 135.551 65.8339 135.544 65.7973C135.52 65.4418 135.477 65.088 135.415 64.7376C134.832 61.3749 132.804 58.379 130.322 56.2671C130.266 56.2161 130.206 56.1701 130.143 56.1296C127.36 53.9566 124.313 53.1126 122.317 52.786C122.299 52.7832 122.28 52.7832 122.262 52.786C121.512 52.7268 120.8 52.7402 120.142 52.5817C120.13 52.5817 120.117 52.5817 120.112 52.5817C119.375 52.4297 118.718 51.9914 118.268 51.352C118.098 51.1195 117.946 50.8723 117.815 50.613C117.796 50.5984 117.783 50.5775 117.777 50.5538C117.26 49.6974 116.919 48.7344 116.776 47.7278C116.758 47.6304 116.733 47.5368 116.721 47.4395C116.29 45.2626 116.278 42.8949 116.267 40.9376C116.1 37.9226 114.841 34.0367 112.654 31.2699C112.654 31.2699 112.654 31.2565 112.641 31.2565C112.007 30.5809 111.292 29.9961 110.516 29.517C108.553 28.3464 106.299 27.8465 104.061 28.0849C104.061 28.0849 104.061 28.0849 104.048 28.0849C104.045 28.0837 104.041 28.0837 104.037 28.0849C102.66 28.2088 101.326 28.6554 100.13 29.3929C99.6903 29.6618 99.2744 29.9724 98.8872 30.3209C96.5561 32.4519 95.2201 35.782 94.8507 39.0663C94.8202 39.3203 94.8023 39.5705 94.7897 39.8301C94.7835 39.8603 94.7835 39.8916 94.7897 39.9218C94.4988 40.3437 94.3266 40.8451 94.293 41.3673C94.26 41.9466 94.3911 42.5231 94.6692 43.0222C94.9474 43.5212 95.3598 43.9199 95.8531 44.1666V44.2182C95.8531 44.3881 95.8531 44.5657 95.8531 44.7356C95.889 45.8974 96.1267 47.0421 96.5543 48.1116C97.2715 49.9161 98.5501 51.9764 100.718 52.3029C101.103 52.3615 101.491 52.3991 101.88 52.4156L102.906 57.0862L103.784 61.1343C107.617 58.8124 112.36 58.1116 116.407 59.4674H116.419C118.314 60.0786 120.035 61.1846 121.426 62.6849C125.923 66.5898 130.986 85.1749 131.289 86.3263C131.29 86.3399 131.294 86.353 131.301 86.3645C131.301 86.3645 131.301 86.3645 131.301 86.3778C131.301 86.3912 131.301 86.3969 131.314 86.4103C131.327 86.4645 131.346 86.5171 131.369 86.5669C131.387 86.6261 131.407 86.6853 131.43 86.7445L131.56 87.0977C132.456 89.5629 135.35 97.5999 135.994 99.5839C136.763 101.927 137.364 102.11 137.364 102.11C137.397 102.102 137.429 102.089 137.457 102.07L137.579 102.018C139.521 101.181 141.323 100.012 142.912 98.5585C142.925 98.5585 142.925 98.5585 142.925 98.5451C144.397 96.9519 145.464 94.9866 146.027 92.8338C146.648 90.6905 146.762 88.4168 146.357 86.2155Z" fill="white"/>
<path d="M96.5734 37.9685C96.5734 37.9685 97.0414 29.6202 104.363 27.6572C111.685 25.6942 116.049 34.7567 116.378 40.5673C116.706 46.3779 116.378 50.3897 120.226 52.2152C120.226 52.2152 131.344 52.072 135.436 62.9522C135.436 62.9522 135.99 68.2797 135.764 71.7092C135.538 75.1386 139.557 78.1461 141.746 79.2058C143.936 80.2656 147.743 84.5715 146.708 91.6042C145.673 98.6368 137.473 101.765 137.473 101.765C137.473 101.765 136.869 101.574 136.101 99.2345C135.334 96.8954 131.405 86.0437 131.405 86.0437C131.405 86.0437 126.17 66.376 121.524 62.3508C118.967 60.1319 116.225 59.1275 114.419 57.9589C112.517 56.7273 111.602 55.3697 110.967 54.4989C109.728 52.8014 107.532 50.2369 109.12 44.1877C110.709 38.1384 109.108 41.1879 107.612 40.3362C107.612 40.3362 105.758 37.281 102.961 39.4426C100.163 41.6041 100.845 36.3416 100.845 36.3416L99.6164 38.1021C99.6164 38.1021 97.6905 38.5088 96.5734 37.9685Z" fill="#6B9EB6"/>
<path d="M78.2843 49.345C78.3632 49.2266 78.4636 49.1025 78.5479 48.9784C78.6322 48.8543 78.738 48.7359 78.8366 48.6175C79.1574 48.2495 79.5045 47.9086 79.8749 47.5978C79.9914 47.4985 80.108 47.4069 80.2246 47.3171L78.2843 49.345Z" fill="#12B5C1"/>
<path d="M103.918 108.872C101.069 109.527 98.2068 110.151 95.3305 110.743C91.9389 111.443 88.5461 112.128 85.1522 112.798L81.9872 108.675L76.7869 114.419C67.455 116.201 58.1052 117.871 48.7374 119.429L48.7805 119.383L73.2704 93.0687C74.9441 91.2688 77.0522 89.9962 79.3622 89.3913C81.6721 88.7865 84.0941 88.873 86.3608 89.6412L96.0065 92.9179C97.6004 98.7521 100.292 104.18 103.918 108.872Z" fill="white"/>
<path d="M96.7579 72.538C95.5475 77.0005 95.2642 81.7494 95.7627 86.4906C95.8823 87.7063 96.0616 88.9157 96.3007 90.1187C96.5212 91.3216 96.8046 92.5055 97.1238 93.6894C98.5719 98.9832 100.891 103.961 103.972 108.392C103.85 108.419 103.734 108.452 103.628 108.477C100.151 103.875 97.5614 98.5877 96.0084 92.918C95.6999 91.7723 95.431 90.6266 95.2158 89.4809C95.0006 88.3352 94.8213 87.1532 94.6993 85.9827C94.2205 81.4095 94.4967 76.8305 95.6641 72.5322C96.5219 69.3656 98.066 66.4577 100.172 64.0426C100.698 63.4354 101.269 62.8747 101.879 62.3661L101.91 62.3413L102.008 62.263L102.052 62.2229C102.628 61.7565 103.234 61.3329 103.864 60.955C105.243 60.1189 106.726 59.4953 108.269 59.1028C107.227 59.4783 106.221 59.9585 105.265 60.5368C104.61 60.9305 103.982 61.3721 103.384 61.8582L103.341 61.8964L103.242 61.9747H103.231L103.201 61.9995C102.568 62.5252 101.976 63.1051 101.431 63.7333C99.2496 66.2397 97.6492 69.255 96.7579 72.538Z" fill="#F1F4F5"/>
<path d="M116.334 94.1248C116.334 94.1248 121.323 100.875 125.48 108.935C120.516 106.796 110.453 107.598 106.418 108.045C105.882 108.073 105.348 108.136 104.82 108.236C104.787 108.237 104.754 108.241 104.722 108.249C104.71 108.251 104.698 108.251 104.686 108.249C104.427 108.303 104.187 108.349 103.968 108.4C100.887 103.969 98.5682 98.9908 97.1201 93.6971C96.801 92.5132 96.5176 91.3293 96.2971 90.1263C96.0765 88.9233 95.8846 87.7108 95.7591 86.4983C95.2606 81.757 95.5439 77.0081 96.7543 72.5456C97.6477 69.262 99.2505 66.2466 101.435 63.7409C101.979 63.1127 102.571 62.5329 103.205 62.0071L103.235 61.9823H103.246L103.344 61.904L103.387 61.8658C103.985 61.3797 104.614 60.9382 105.268 60.5445C106.225 59.9662 107.23 59.486 108.272 59.1104C111.012 58.4039 113.892 58.4249 116.49 59.3014H116.503C118.033 60.1072 119.815 61.0486 121.51 62.5208C123.9 65.1234 125.164 68.6312 126.369 72.0453C128.033 76.7554 129.702 81.4604 131.376 86.1603C131.377 86.1746 131.381 86.1884 131.388 86.2004C131.388 86.2004 131.388 86.2004 131.388 86.2138C131.388 86.2271 131.388 86.2328 131.401 86.2462C131.414 86.3005 131.433 86.353 131.457 86.4028C131.474 86.4632 131.494 86.5225 131.517 86.5804C120.45 84.1171 116.334 94.1248 116.334 94.1248Z" fill="white"/>
<path d="M101.879 62.3659C101.268 62.872 100.697 63.4302 100.17 64.0348C98.0643 66.4498 96.5201 69.3578 95.6623 72.5244C94.4949 76.8227 94.2188 81.4017 94.6976 85.9749C94.5559 86.0589 94.4089 86.1315 94.2618 86.2098C91.1775 87.8118 87.7686 88.99 84.3041 88.9632C82.4041 88.941 80.5309 88.4825 78.8124 87.6191C77.094 86.7558 75.5706 85.5078 74.3464 83.9604C72.4115 81.5201 71.1885 78.5699 70.2847 75.5586C69.3325 72.3793 68.6081 69.1866 67.4281 66.0933C66.6732 64.1227 65.9182 61.9115 64.29 60.5252C63.4544 59.8187 62.4089 59.5704 61.5805 58.8639C60.7005 58.1108 60.063 57.0842 59.7568 55.9271C59.6214 55.4288 59.5349 54.9169 59.4985 54.3995C59.3443 52.3583 59.8572 50.2254 60.4866 48.335L57.275 46.0321C56.4017 45.4039 56.0197 44.0443 56.5361 43.0686C56.6841 42.7898 56.887 42.5485 57.1309 42.3612C57.3749 42.174 57.654 42.0453 57.9492 41.984C58.2233 41.9284 58.5052 41.9328 58.7777 41.9968C59.0502 42.0608 59.3077 42.1831 59.5344 42.3564L66.1693 47.4318C66.1693 47.4318 66.6804 45.6731 68.2458 46.2154C69.7091 46.7253 74.9184 48.904 74.7391 55.6292C74.7142 56.6541 74.9683 57.6647 75.4707 58.5393L81.7003 69.5151C82.1417 70.2916 82.7312 70.9608 83.4305 71.4797C84.1299 71.9987 84.9237 72.3556 85.7606 72.5277C86.5976 72.6997 87.4591 72.6829 88.2896 72.4784C89.12 72.274 89.901 71.8863 90.5821 71.3405L101.487 62.681L101.879 62.3659Z" fill="white"/>
<path d="M107.77 107.776C104.569 108.62 107.15 107.98 103.931 108.719" stroke="#6B9EB6" stroke-width="1.5" stroke-miterlimit="10"/>
<path d="M138.941 106.83C138.597 105.862 138.253 104.894 137.916 103.926L137.878 103.827C134.053 93.0061 130.222 82.1914 126.385 71.3824C125.18 67.974 123.916 64.4605 121.526 61.8579C116.544 56.4425 107.754 56.9581 102.071 61.5772L102.028 61.6153L101.991 61.6421C101.344 62.1755 100.74 62.765 100.185 63.4045C98.0785 65.8202 96.5344 68.7288 95.6766 71.896C94.208 77.2923 94.147 83.1334 95.2283 88.8447C95.4417 90.0018 95.7125 91.1456 96.0192 92.2818C97.6141 98.1159 100.306 103.544 103.933 108.236C101.081 108.889 98.2188 109.512 95.3449 110.107C79.8647 113.302 64.3331 116.193 48.7501 118.78C39.3752 120.344 29.4426 122.026 20.0425 123.363L16.4561 123.834C16.0633 123.887 15.6644 123.846 15.2885 123.713C14.9125 123.581 14.569 123.362 14.2827 123.07V123.07L8.41534 116.924C7.69438 116.194 6.74607 115.773 5.75188 115.741C4.75769 115.71 3.78742 116.07 3.02674 116.752L1.63879 118.279C5.77932 122.944 8.48169 126.332 12.6222 130.997C13.2247 131.676 13.8452 132.37 14.6503 132.742C15.4555 133.114 16.3629 133.124 17.2415 133.124H22.3773C26.7205 133.124 31.066 133.124 35.414 133.124L123.448 133.143C127.054 133.143 130.782 133.118 134.089 131.581C135.684 130.83 137.12 129.742 138.308 128.383" stroke="#6B9EB6" stroke-width="1.5" stroke-miterlimit="10"/>
<path d="M109.231 82.8818L139.915 131.406C140.343 132.082 140.92 132.636 141.596 133.019C142.272 133.402 143.026 133.603 143.792 133.604H157.153C157.677 133.604 158.178 133.382 158.548 132.988C158.918 132.595 159.126 132.06 159.126 131.503C159.126 130.946 158.918 130.412 158.548 130.018C158.178 129.624 157.677 129.403 157.153 129.403H150.852C149.834 129.403 148.84 129.079 147.996 128.473C147.152 127.867 146.497 127.007 146.116 126.002L137.564 103.501" stroke="#6B9EB6" stroke-width="1.5" stroke-miterlimit="10"/>
<path d="M48.7482 119.269L48.7912 119.223L73.2829 92.9176C74.9566 91.1175 77.0643 89.8441 79.374 89.2377C81.6836 88.6312 84.1057 88.7153 86.3734 89.4806L96.0173 92.7592" stroke="#6B9EB6" stroke-width="1.5" stroke-miterlimit="10"/>
<path d="M139.025 107.352L138.94 107.319" stroke="#154F5B" stroke-width="5.14" stroke-miterlimit="10"/>
<path d="M85.2007 112.688L82.0016 108.522L76.7457 114.315" stroke="#6B9EB6" stroke-width="1.5" stroke-miterlimit="10"/>
<path d="M121.974 62.9625V62.9558" stroke="#154F5B" stroke-width="5.14" stroke-miterlimit="10"/>
<path d="M143.195 129.828C144 129.796 144.806 129.824 145.607 129.91C146.261 129.981 146.945 130.023 147.563 130.348C148.078 130.619 148.614 131.27 148.587 132.066C148.539 133.621 147.009 133.609 146.172 133.609" stroke="#6B9EB6" stroke-width="1.5" stroke-miterlimit="10"/>
<path d="M143.516 133.603H146.17H146.208H154.333" stroke="#154F5B" stroke-width="2" stroke-miterlimit="10"/>
<path d="M94.7064 85.8243C94.7064 85.8243 94.6885 85.8243 94.6813 85.8376C94.5468 85.9159 94.4106 85.9866 94.2707 86.0592C93.3759 86.5281 92.459 86.9475 91.5235 87.3156C89.2138 88.2379 86.7751 88.8432 84.313 88.8126C82.4127 88.7901 80.5394 88.3316 78.8207 87.4682C77.1019 86.6049 75.5782 85.357 74.3535 83.8098C72.4186 81.3694 71.1974 78.4193 70.2936 75.408C69.3414 72.2287 68.617 69.036 67.437 65.9427C66.6821 63.974 65.9254 61.7628 64.2989 60.3746C63.4633 59.6681 62.4178 59.4198 61.5894 58.7133C60.7094 57.9598 60.0714 56.9335 59.7639 55.7765C59.63 55.2779 59.5441 54.7661 59.5074 54.2489V54.2489C59.3532 52.2077 59.8661 50.0767 60.4955 48.1863L57.2821 45.8834C56.4106 45.2552 56.0268 43.8957 56.5451 42.9199C56.693 42.6411 56.8959 42.3998 57.1398 42.2125C57.3838 42.0253 57.6629 41.8966 57.9581 41.8353C58.2322 41.7797 58.5141 41.7841 58.7866 41.8481C59.0591 41.9121 59.3166 42.0344 59.5433 42.2077L66.1782 47.2831C66.1782 47.2831 66.6893 45.5245 68.2547 46.0668C69.7162 46.5766 74.9255 48.7553 74.748 55.4806C74.7231 56.5054 74.9772 57.5161 75.4796 58.3906L81.7074 69.3683C82.1491 70.1435 82.7383 70.8116 83.4371 71.3295C84.136 71.8475 84.9289 72.2039 85.765 72.3757C86.601 72.5475 87.4616 72.5309 88.2912 72.327C89.1209 72.1231 89.9013 71.7364 90.5821 71.1918L99.7113 63.9358L101.487 62.5304L101.917 62.1905L102.016 62.1122L102.059 62.074" stroke="#6B9EB6" stroke-width="1.5" stroke-miterlimit="10"/>
<path d="M66.1944 47.2654C66.1944 47.2654 65.1598 49.9482 68.7282 51.7355" stroke="#6B9EB6" stroke-width="1.5" stroke-miterlimit="10"/>
<path d="M59.9271 50.2046C59.9271 50.2046 59.5685 53.4507 63.6194 54.6632C65.054 55.0928 66.216 53.3266 65.3427 52.0434L65.2996 51.9842" stroke="#6B9EB6" stroke-width="1.5" stroke-miterlimit="10"/>
<path d="M59.4986 54.2124C59.4986 54.2124 60.8507 57.0327 63.085 56.7196C65.0575 56.4427 64.3402 54.39 64.3402 54.39" stroke="#6B9EB6" stroke-width="1.5" stroke-miterlimit="10"/>
<path d="M60.4991 48.1689L62.8536 49.8588" stroke="#6B9EB6" stroke-width="1.5" stroke-miterlimit="10"/>
<path d="M137.026 101.928C141.563 100.424 144.771 97.4086 146.138 92.4955C147.447 87.7867 146.595 82.4325 142.46 79.6714C140.399 78.3099 137.966 77.2463 136.687 74.9148C134.943 71.726 136.119 67.8363 135.516 64.3859C134.891 60.8037 132.628 57.6301 129.914 55.5029C127.903 53.9344 125.565 52.9083 123.1 52.5127C121.28 52.2205 119.623 52.7036 118.379 50.9851C116.406 48.2717 116.392 43.8378 116.376 40.5707C116.365 38.0616 115.809 35.564 114.597 33.412L114.57 33.3643C113.608 31.6295 112.251 30.1808 110.625 29.1519C107.576 27.273 103.3 27.0992 100.224 29.0316C99.7852 29.3108 99.37 29.6303 98.9832 29.9864C96.141 32.5776 94.7817 36.956 94.8481 40.8552" stroke="#6B9EB6" stroke-width="1.5" stroke-miterlimit="10"/>
<path d="M100.624 36.0896C100.466 37.2353 99.8099 38.297 98.6515 38.6159C97.3353 38.971 96.6378 40.3344 96.2684 41.7054C95.7424 43.7157 95.8785 45.8572 96.6539 47.7738C97.3712 49.5763 98.6533 51.6386 100.82 51.9747C104.784 52.5762 106.755 50.7965 106.755 50.7965" stroke="#6B9EB6" stroke-width="1.5" stroke-miterlimit="10"/>
<path d="M103.927 42.2249C104.304 42.2249 104.609 41.9 104.609 41.4993C104.609 41.0985 104.304 40.7737 103.927 40.7737C103.551 40.7737 103.246 41.0985 103.246 41.4993C103.246 41.9 103.551 42.2249 103.927 42.2249Z" fill="#6B9EB6"/>
<path d="M97.9414 41.7454C98.3178 41.7454 98.6228 41.4205 98.6228 41.0198C98.6228 40.619 98.3178 40.2942 97.9414 40.2942C97.5651 40.2942 97.2601 40.619 97.2601 41.0198C97.2601 41.4205 97.5651 41.7454 97.9414 41.7454Z" fill="#6B9EB6"/>
<path d="M101.112 34.3916C100.96 35.0812 100.983 35.8016 101.178 36.4787C101.209 36.589 101.249 36.6964 101.297 36.7995C101.768 37.9834 102.868 38.9247 104.815 38.8083C109.054 38.5581 110.566 38.2641 110.222 40.3454C110.078 41.0767 109.872 41.7926 109.607 42.484C109.14 43.7978 108.816 46.0624 109.295 48.5219V48.5352C109.847 51.4128 113.037 55.9555 117.452 57.59" stroke="#6B9EB6" stroke-width="1.5" stroke-miterlimit="10"/>
<path d="M100.996 41.6748C100.996 41.6748 100.28 44.4588 100.353 44.8694C100.427 45.2799 101.34 44.9629 101.34 44.9629" stroke="#6B9EB6" stroke-miterlimit="10"/>
<path d="M101.49 47.5122C102.859 48.2989 104.444 47.8025 105.064 46.4868" stroke="#6B9EB6" stroke-miterlimit="10"/>
<path d="M103.929 61.0216L103 56.75L101.992 52.1462" stroke="#6B9EB6" stroke-width="1.5" stroke-miterlimit="10"/>
<path d="M163.028 133.596H3.92346" stroke="#6B9EB6" stroke-width="1.5" stroke-miterlimit="10"/>
</g>
</svg>
