<svg width="56" height="56" viewBox="0 0 56 56" fill="none" xmlns="http://www.w3.org/2000/svg">
<rect x="2.5" y="2.5" width="51" height="51" rx="25.5" fill="#FF725E"/>
<path d="M31.52 17.58C31.52 18.1933 31.5066 19.0867 31.48 20.26C31.4533 21.4067 31.4 22.66 31.32 24.02C31.24 25.3533 31.1333 26.7 31 28.06C30.8666 29.3933 30.7066 30.5533 30.52 31.54C30.4133 31.62 30.2533 31.7 30.04 31.78C29.8266 31.86 29.6 31.9267 29.36 31.98C29.12 32.0333 28.88 32.0733 28.64 32.1C28.4 32.1267 28.1866 32.14 28 32.14C27.2266 32.14 26.5733 32.02 26.04 31.78C25.5333 31.54 25.2133 31.0733 25.08 30.38C24.9466 29.7667 24.8266 28.8333 24.72 27.58C24.64 26.3267 24.56 24.9667 24.48 23.5C24.4 22.0333 24.3333 20.58 24.28 19.14C24.2533 17.7 24.24 16.4733 24.24 15.46C24.7733 15.1667 25.3733 14.94 26.04 14.78C26.7333 14.5933 27.4133 14.5 28.08 14.5C29.1733 14.5 30.0133 14.7533 30.6 15.26C31.2133 15.7667 31.52 16.54 31.52 17.58ZM24.16 37.74C24.16 36.6467 24.4933 35.7533 25.16 35.06C25.8533 34.34 26.8 33.98 28 33.98C29.2 33.98 30.1333 34.34 30.8 35.06C31.4933 35.7533 31.84 36.6467 31.84 37.74C31.84 38.8333 31.4933 39.74 30.8 40.46C30.1333 41.1533 29.2 41.5 28 41.5C26.8 41.5 25.8533 41.1533 25.16 40.46C24.4933 39.74 24.16 38.8333 24.16 37.74Z" fill="white"/>
<rect x="2.5" y="2.5" width="51" height="51" rx="25.5" stroke="white" stroke-width="5"/>
</svg>
