<svg width="18" height="18" viewBox="0 0 18 18" fill="none" xmlns="http://www.w3.org/2000/svg">
<rect width="18" height="18" rx="9" fill="#FF725E"/>
<path d="M10.3167 5.1021C10.3167 5.33153 10.3117 5.6657 10.3017 6.10462C10.2917 6.53356 10.2718 7.0024 10.2418 7.51114C10.2119 8.0099 10.172 8.51365 10.1221 9.0224C10.0723 9.52116 10.0124 9.95509 9.94259 10.3242C9.90269 10.3541 9.84283 10.384 9.76303 10.414C9.68323 10.4439 9.59844 10.4688 9.50866 10.4888C9.41888 10.5087 9.32911 10.5237 9.23933 10.5337C9.14955 10.5436 9.06975 10.5486 8.99992 10.5486C8.71064 10.5486 8.46624 10.5037 8.26674 10.414C8.0772 10.3242 7.9575 10.1496 7.90762 9.89025C7.85775 9.66082 7.81286 9.31168 7.77296 8.84284C7.74303 8.374 7.71311 7.86526 7.68318 7.31662C7.65325 6.76798 7.62832 6.22432 7.60837 5.68565C7.59839 5.14699 7.5934 4.68812 7.5934 4.30906C7.79291 4.19933 8.01735 4.11454 8.26674 4.05469C8.52609 3.98486 8.78046 3.94995 9.02985 3.94995C9.43883 3.94995 9.75306 4.04472 9.97251 4.23425C10.2019 4.42378 10.3167 4.71306 10.3167 5.1021ZM7.56348 12.6434C7.56348 12.2344 7.68817 11.9003 7.93755 11.6409C8.19691 11.3716 8.55103 11.2369 8.99992 11.2369C9.44881 11.2369 9.79795 11.3716 10.0473 11.6409C10.3067 11.9003 10.4364 12.2344 10.4364 12.6434C10.4364 13.0524 10.3067 13.3916 10.0473 13.6609C9.79795 13.9203 9.44881 14.05 8.99992 14.05C8.55103 14.05 8.19691 13.9203 7.93755 13.6609C7.68817 13.3916 7.56348 13.0524 7.56348 12.6434Z" fill="white"/>
</svg>
