<svg width="165" height="163" viewBox="0 0 165 163" fill="none" xmlns="http://www.w3.org/2000/svg">
<path d="M146.852 11.1353H66.4464C62.6595 11.1353 54.5291 12.1066 55.4682 12.1353C56.4073 12.1639 58.2855 15.1353 59.6942 21.1353C59.6942 21.1353 62.5115 28.1353 62.5115 34.6353C62.5115 41.1353 60.1637 39.6353 58.2855 44.6353C54.0596 52.1353 62.5115 52.1353 61.5724 52.1353C61.5724 62.5588 54.1595 121.135 66.4464 121.135H146.852V11.1353Z" fill="#F1F4F5"/>
<path d="M151.247 0L154.39 9.67376H164.561L156.332 15.6525L159.476 25.3262L151.247 19.3475L143.018 25.3262L146.161 15.6525L137.932 9.67376H148.103L151.247 0Z" fill="#6B9EB6"/>
<circle cx="88.9966" cy="27.486" r="3.46154" stroke="#D6E1E3" stroke-width="1.5"/>
<circle cx="101.112" cy="27.486" r="3.46154" stroke="#D6E1E3" stroke-width="1.5"/>
<g opacity="0.8">
<path d="M1 123.927L160.902 123.266" stroke="#6B9EB6" stroke-width="1.5" stroke-miterlimit="10" stroke-linejoin="round"/>
<path d="M43.5388 123.353L42.5989 116.177L31.6125 87.9283L10.1301 79.8547C10.1301 79.8547 17.7121 63.9977 26.8948 57.1405C32.5097 52.9475 38.8817 48.9939 42.9855 46.5547C45.5812 49.2058 50.303 57.1405 55.9376 54.5081C59.7215 52.7403 61.6613 49.5742 61.9405 47.1073C62.0138 47.3847 69.5225 48.4529 79.6319 54.5081C89.7412 60.5633 103.01 70.365 104.273 75.0747C105.537 79.7843 97.9551 87.9283 97.9551 87.9283V123.353H91.7311H43.5388Z" fill="white"/>
<path d="M42.5989 116.177L43.3426 116.08C43.3348 116.02 43.3198 115.961 43.2979 115.905L42.5989 116.177ZM43.5388 123.353L42.7951 123.45C42.844 123.824 43.1622 124.103 43.5388 124.103V123.353ZM10.1301 79.8547L9.4535 79.5311C9.36283 79.7208 9.35589 79.9397 9.43437 80.1347C9.51284 80.3297 9.66953 80.4828 9.86628 80.5567L10.1301 79.8547ZM31.6125 87.9283L32.3115 87.6565C32.2342 87.4577 32.076 87.3013 31.8763 87.2263L31.6125 87.9283ZM26.8948 57.1405L27.3435 57.7414L26.8948 57.1405ZM79.6319 54.5081L80.0173 53.8647L79.6319 54.5081ZM104.273 75.0747L104.998 74.8803V74.8803L104.273 75.0747ZM97.9551 87.9283L97.4061 87.4173C97.2769 87.5561 97.2051 87.7387 97.2051 87.9283H97.9551ZM42.9855 46.5547L43.5214 46.03C43.2794 45.7828 42.8997 45.7332 42.6023 45.91L42.9855 46.5547ZM61.9405 47.1073L62.6656 46.9157C62.5735 46.5668 62.2459 46.333 61.886 46.3592C61.5261 46.3855 61.2359 46.6643 61.1953 47.0229L61.9405 47.1073ZM55.9376 54.5081L56.2551 55.1876L55.9376 54.5081ZM97.9551 123.353V124.103C98.3693 124.103 98.7051 123.767 98.7051 123.353H97.9551ZM41.8553 116.274L42.7951 123.45L44.2824 123.256L43.3426 116.08L41.8553 116.274ZM43.5388 124.103H91.7311V122.603H43.5388V124.103ZM9.86628 80.5567L31.3486 88.6304L31.8763 87.2263L10.394 79.1526L9.86628 80.5567ZM26.446 56.5396C21.7395 60.0542 17.4884 65.831 14.4347 70.6687C12.9015 73.0978 11.6578 75.3101 10.7973 76.9156C10.3668 77.7185 10.0319 78.3704 9.80409 78.8224C9.69018 79.0484 9.60304 79.2246 9.54413 79.3447C9.51467 79.4048 9.49227 79.4508 9.4771 79.4822C9.46952 79.4978 9.46375 79.5098 9.4598 79.518C9.45783 79.5221 9.45632 79.5253 9.45527 79.5274C9.45474 79.5285 9.45433 79.5294 9.45404 79.53C9.45389 79.5303 9.45375 79.5306 9.45368 79.5308C9.45357 79.531 9.4535 79.5311 10.1301 79.8547C10.8068 80.1782 10.8067 80.1782 10.8067 80.1782C10.8068 80.1781 10.8068 80.1781 10.8069 80.1779C10.8071 80.1775 10.8074 80.1769 10.8078 80.1761C10.8085 80.1745 10.8098 80.1719 10.8115 80.1683C10.8149 80.1612 10.8202 80.1503 10.8272 80.1358C10.8413 80.1067 10.8626 80.0629 10.8909 80.0051C10.9475 79.8897 11.0323 79.7184 11.1436 79.4975C11.3663 79.0555 11.6954 78.415 12.1193 77.6242C12.9673 76.0422 14.1931 73.8617 15.7032 71.4694C18.7362 66.6643 22.8674 61.084 27.3435 57.7414L26.446 56.5396ZM79.2465 55.1515C84.2772 58.1648 90.0929 62.11 94.8009 65.8813C97.1558 67.7678 99.2194 69.5994 100.766 71.2402C102.34 72.9098 103.286 74.2878 103.549 75.269L104.998 74.8803C104.629 73.5068 103.443 71.8934 101.857 70.2114C100.245 68.5005 98.1225 66.6202 95.7387 64.7106C90.9691 60.8899 85.0959 56.9067 80.0173 53.8647L79.2465 55.1515ZM103.549 75.269C103.806 76.2248 103.628 77.4397 103.117 78.8073C102.611 80.1592 101.815 81.5657 100.963 82.8536C100.113 84.1375 99.2217 85.281 98.5417 86.1047C98.2021 86.516 97.9164 86.8462 97.7163 87.0726C97.6163 87.1858 97.5378 87.273 97.4847 87.3314C97.4582 87.3606 97.4381 87.3826 97.4248 87.397C97.4182 87.4043 97.4133 87.4096 97.4101 87.413C97.4086 87.4147 97.4074 87.4159 97.4068 87.4166C97.4064 87.4169 97.4062 87.4172 97.4061 87.4173C97.4061 87.4174 97.4061 87.4173 97.406 87.4174C97.4061 87.4173 97.4061 87.4173 97.9551 87.9283C98.504 88.4394 98.5041 88.4392 98.5043 88.4391C98.5044 88.439 98.5045 88.4388 98.5047 88.4386C98.5051 88.4382 98.5056 88.4377 98.5061 88.4371C98.5073 88.4358 98.5089 88.4341 98.511 88.4318C98.5152 88.4274 98.5211 88.4209 98.5288 88.4126C98.5441 88.3959 98.5664 88.3716 98.5951 88.34C98.6525 88.2768 98.7356 88.1844 98.8405 88.0657C99.0501 87.8284 99.3469 87.4855 99.6984 87.0597C100.4 86.2093 101.326 85.0224 102.214 83.6816C103.098 82.3448 103.961 80.8323 104.522 79.3326C105.077 77.8486 105.373 76.2794 104.998 74.8803L103.549 75.269ZM42.6023 45.91C38.49 48.3543 32.092 52.3234 26.446 56.5396L27.3435 57.7414C32.9274 53.5716 39.2734 49.6336 43.3687 47.1994L42.6023 45.91ZM80.0173 53.8647C74.9085 50.8047 70.4533 49.0027 67.2616 47.9301C65.6658 47.3938 64.3878 47.0405 63.5083 46.8047C63.0618 46.6851 62.7386 46.6011 62.5168 46.5365C62.4038 46.5036 62.344 46.4833 62.3183 46.473C62.3026 46.4668 62.326 46.4746 62.3645 46.4985C62.3839 46.5105 62.4287 46.5397 62.4786 46.5894C62.5237 46.6343 62.6197 46.7419 62.6656 46.9157L61.2154 47.2988C61.2636 47.4813 61.3656 47.598 61.4202 47.6523C61.4796 47.7115 61.5375 47.7506 61.5735 47.773C61.6454 47.8175 61.7163 47.8478 61.7622 47.8661C61.8595 47.905 61.9783 47.942 62.0974 47.9766C62.3398 48.0472 62.6942 48.1395 63.1199 48.2536C63.9849 48.4854 65.2296 48.8296 66.7838 49.3519C69.8921 50.3966 74.2459 52.1563 79.2465 55.1515L80.0173 53.8647ZM43.2979 115.905L32.3115 87.6565L30.9135 88.2002L41.8999 116.449L43.2979 115.905ZM61.1953 47.0229C60.9481 49.2067 59.1902 52.1607 55.6202 53.8286L56.2551 55.1876C60.2529 53.3199 62.3745 49.9417 62.6858 47.1916L61.1953 47.0229ZM55.6202 53.8286C53.2333 54.9437 50.9758 53.8899 48.8234 51.955C47.7607 50.9997 46.7793 49.876 45.8883 48.8061C45.017 47.7598 44.1985 46.7215 43.5214 46.03L42.4496 47.0794C43.0704 47.7134 43.8155 48.6611 44.7356 49.766C45.636 50.8472 46.674 52.0397 47.8206 53.0705C50.0866 55.1076 53.0073 56.7049 56.2551 55.1876L55.6202 53.8286ZM97.2051 87.9283V123.353H98.7051V87.9283H97.2051ZM97.9551 122.603H91.7311V124.103H97.9551V122.603Z" fill="#6B9EB6"/>
<path d="M91.6445 87.0471L38.7662 95.3658C38.9713 96.0647 39.1382 96.7756 39.2661 97.4951C39.586 99.5038 40.006 101.924 40.4326 104.352L91.6645 96.2885L91.6445 87.0471Z" fill="#64C299" stroke="#154F5B" stroke-miterlimit="10" stroke-linejoin="round"/>
<path d="M91.6843 105.132L41.9922 112.94C42.3522 114.892 42.5922 116.169 42.5922 116.169L43.3454 121.947L91.7043 114.338L91.6843 105.132Z" fill="#64C299" stroke="#154F5B" stroke-miterlimit="10" stroke-linejoin="round"/>
<path d="M46.1274 50.7799L45.6006 51.3137L46.1274 50.7799ZM62.5114 48.1352L63.1229 48.5695C63.2854 48.3408 63.3065 48.0405 63.1778 47.7912C63.0491 47.5418 62.792 47.3852 62.5114 47.3852V48.1352ZM45.6006 51.3137C48.0335 53.7144 50.2465 54.9813 52.2642 55.4183C54.3009 55.8595 56.0623 55.4384 57.537 54.6118C58.9944 53.7949 60.1657 52.587 61.0776 51.4486C61.9757 50.3274 62.6935 49.1742 63.1229 48.5695L61.8999 47.701C61.3903 48.4186 60.7755 49.4265 59.9069 50.5109C59.052 51.5781 58.0224 52.6202 56.8036 53.3033C55.6022 53.9767 54.2123 54.3055 52.5817 53.9523C50.932 53.595 48.9617 52.523 46.6542 50.246L45.6006 51.3137ZM43.8094 38.0553C43.8971 39.1714 43.9247 40.4062 43.9447 41.6774C43.9646 42.9401 43.977 44.2414 44.0364 45.4559C44.0957 46.6681 44.2031 47.8308 44.4225 48.8198C44.6374 49.7886 44.9829 50.7041 45.6006 51.3137L46.6542 50.246C46.3501 49.9459 46.0832 49.3798 45.8869 48.495C45.6951 47.6305 45.5925 46.5677 45.5346 45.3826C45.4768 44.1999 45.4647 42.9321 45.4446 41.6538C45.4246 40.3841 45.3966 39.1062 45.3048 37.9378L43.8094 38.0553ZM62.5114 47.3852C61.6118 47.3852 61.1156 47.1248 60.8224 46.8274C60.5131 46.5137 60.3358 46.0636 60.2607 45.5306C60.186 45.0004 60.2221 44.4514 60.2827 44.0211C60.3126 43.8091 60.3473 43.6332 60.3741 43.5122C60.3875 43.4518 60.3987 43.4055 60.4063 43.3757C60.4101 43.3608 60.4129 43.3501 60.4146 43.3438C60.4154 43.3407 60.416 43.3386 60.4162 43.3378C60.4164 43.3373 60.4164 43.3372 60.4164 43.3373C60.4163 43.3374 60.4163 43.3375 60.4162 43.3377C60.4162 43.3379 60.4161 43.3381 60.4161 43.3381C60.4161 43.3384 60.416 43.3386 59.6941 43.1352C58.9722 42.9319 58.9721 42.9322 58.972 42.9325C58.972 42.9326 58.9719 42.9329 58.9718 42.9332C58.9717 42.9337 58.9715 42.9343 58.9713 42.935C58.9709 42.9364 58.9705 42.938 58.9699 42.94C58.9689 42.9439 58.9675 42.9491 58.9658 42.9554C58.9624 42.968 58.9578 42.9853 58.9523 43.0071C58.9413 43.0505 58.9265 43.1116 58.9095 43.188C58.8758 43.3404 58.8335 43.5551 58.7974 43.8119C58.7259 44.3191 58.674 45.0201 58.7753 45.7399C58.8764 46.4569 59.1392 47.2567 59.7543 47.8806C60.3855 48.5207 61.298 48.8852 62.5114 48.8852V47.3852Z" fill="#6B9EB6"/>
<path d="M33.0505 98.9092L49.6179 114.744L42.1924 120.422C42.1924 120.422 13.5975 112.357 9.39763 105.737C5.19776 99.1173 12.4288 82.9391 13.3662 80.9429" fill="white"/>
<path d="M49.6179 114.744L50.0735 115.34C50.2476 115.207 50.3547 115.004 50.3668 114.785C50.3788 114.567 50.2945 114.353 50.1361 114.202L49.6179 114.744ZM42.1924 120.422L41.9888 121.144C42.2161 121.208 42.4604 121.162 42.648 121.018L42.1924 120.422ZM32.5323 99.4514L49.0997 115.286L50.1361 114.202L33.5688 98.3671L32.5323 99.4514ZM49.1623 114.148L41.7368 119.827L42.648 121.018L50.0735 115.34L49.1623 114.148ZM42.1924 120.422C42.396 119.701 42.396 119.701 42.3958 119.701C42.3956 119.7 42.3953 119.7 42.395 119.7C42.3942 119.7 42.3929 119.7 42.3913 119.699C42.388 119.698 42.383 119.697 42.3763 119.695C42.3629 119.691 42.3427 119.685 42.3159 119.678C42.2624 119.663 42.1825 119.64 42.0781 119.61C41.8691 119.549 41.5614 119.46 41.1681 119.344C40.3813 119.111 39.2517 118.771 37.8829 118.343C35.1443 117.486 31.4516 116.275 27.6306 114.859C23.8061 113.441 19.87 111.825 16.6374 110.158C15.0209 109.324 13.5946 108.485 12.4514 107.66C11.2983 106.828 10.4811 106.045 10.0309 105.335L8.76434 106.139C9.36416 107.084 10.3592 108.001 11.5738 108.877C12.7983 109.76 14.295 110.637 15.9499 111.491C19.26 113.198 23.2601 114.839 27.1093 116.265C30.962 117.693 34.6806 118.912 37.4348 119.774C38.8123 120.206 39.9496 120.548 40.743 120.782C41.1397 120.899 41.4505 120.99 41.6624 121.051C41.7684 121.081 41.8497 121.105 41.9046 121.12C41.9321 121.128 41.9529 121.134 41.967 121.138C41.9741 121.14 41.9795 121.142 41.9831 121.143C41.9849 121.143 41.9863 121.144 41.9872 121.144C41.9877 121.144 41.9881 121.144 41.9883 121.144C41.9886 121.144 41.9888 121.144 42.1924 120.422ZM10.0309 105.335C9.10062 103.869 8.76407 101.798 8.86345 99.3818C8.96219 96.9811 9.48676 94.3361 10.1789 91.8039C11.5628 86.7412 13.5851 82.2413 14.0451 81.2617L12.6873 80.6241C12.21 81.6407 10.148 86.228 8.732 91.4084C8.0242 93.9978 7.46989 96.7632 7.36472 99.3201C7.2602 101.861 7.59472 104.295 8.76434 106.139L10.0309 105.335Z" fill="#6B9EB6"/>
<path d="M53.1973 113.898C54.2659 114.65 55.3792 115.328 56.5301 115.928C57.0367 116.034 58.943 119.881 59.7429 120.307C60.5428 120.733 61.6559 121.727 61.076 122.238C60.4961 122.749 59.4696 123.515 58.7697 123.302C58.0698 123.089 56.5568 121.059 56.0568 120.413C55.2022 119.568 54.2959 118.783 53.3439 118.064L53.1973 113.898Z" fill="white" stroke="#154F5B" stroke-miterlimit="10" stroke-linejoin="round"/>
<path d="M53.6969 113.082C53.6464 112.922 53.5404 112.788 53.4006 112.707C53.2607 112.627 53.0974 112.606 52.9437 112.649C51.8772 112.947 49.6109 113.622 49.7842 114.111C49.9842 114.75 52.6971 124.375 53.397 124.481C54.0969 124.588 56.7298 125.12 56.7298 124.162C56.7298 123.204 54.4968 115.51 53.6969 113.082Z" fill="white" stroke="#154F5B" stroke-miterlimit="10" stroke-linejoin="round"/>
<path d="M49.7977 114.112C49.7977 114.112 46.9915 114.112 46.7849 115.177C46.5782 116.241 49.8977 125.014 50.4043 125.547C50.9109 126.079 53.4105 125.334 53.4105 124.482C53.4105 123.63 49.7977 114.112 49.7977 114.112Z" fill="white" stroke="#154F5B" stroke-miterlimit="10" stroke-linejoin="round"/>
<path d="M46.7718 115.178C46.7718 115.178 43.8655 115.824 43.8655 116.676C43.8655 117.527 46.8717 125.903 47.1983 126.087C47.8703 126.223 48.5646 126.149 49.198 125.874C49.598 125.661 49.7979 124.455 49.7979 124.455L46.7718 115.178Z" fill="white" stroke="#154F5B" stroke-miterlimit="10" stroke-linejoin="round"/>
<path d="M43.8655 116.673C43.8655 116.673 41.1526 118.71 41.6525 120.527C42.1524 122.344 43.4589 125.226 44.0655 125.546C44.4222 125.631 44.7935 125.616 45.1437 125.505C45.4939 125.393 45.8112 125.187 46.0651 124.907L46.1651 124.587L46.0651 124.055L43.8655 116.673Z" fill="white" stroke="#154F5B" stroke-miterlimit="10" stroke-linejoin="round"/>
<path d="M98.6669 88.635L76.3469 114.745L83.7657 120.423C83.7657 120.423 111.788 108.891 112.725 100.906C113.663 92.9207 106.18 78.635 106.18 78.635" fill="white"/>
<path d="M76.3469 114.745L75.7768 114.257C75.643 114.414 75.5794 114.619 75.601 114.823C75.6226 115.028 75.7275 115.215 75.8911 115.34L76.3469 114.745ZM83.7657 120.423L83.3099 121.018C83.5219 121.181 83.8042 121.218 84.0511 121.116L83.7657 120.423ZM106.18 78.635L105.494 78.9378C105.5 78.9531 105.508 78.9682 105.515 78.983L106.18 78.635ZM98.0969 88.1477L75.7768 114.257L76.917 115.232L99.237 89.1224L98.0969 88.1477ZM75.8911 115.34L83.3099 121.018L84.2216 119.827L76.8027 114.149L75.8911 115.34ZM83.7657 120.423C84.0511 121.116 84.0513 121.116 84.0516 121.116C84.0519 121.116 84.0523 121.116 84.0527 121.116C84.0537 121.115 84.0551 121.115 84.0569 121.114C84.0605 121.113 84.0658 121.11 84.0727 121.108C84.0866 121.102 84.1072 121.093 84.1341 121.082C84.1881 121.06 84.2677 121.026 84.3714 120.983C84.5788 120.896 84.8822 120.767 85.2684 120.601C86.0407 120.268 87.1439 119.784 88.4703 119.179C91.1218 117.968 94.6709 116.269 98.2528 114.317C101.829 112.368 105.464 110.154 108.273 107.91C109.677 106.788 110.896 105.643 111.799 104.503C112.697 103.371 113.33 102.187 113.47 100.993L111.98 100.818C111.886 101.621 111.438 102.544 110.624 103.571C109.816 104.59 108.691 105.656 107.337 106.738C104.628 108.902 101.081 111.068 97.5351 113C93.9943 114.93 90.4792 116.613 87.8474 117.814C86.5321 118.414 85.4387 118.894 84.6749 119.223C84.293 119.388 83.9935 119.514 83.7899 119.6C83.6881 119.643 83.6103 119.675 83.5581 119.697C83.532 119.708 83.5124 119.716 83.4993 119.721C83.4928 119.724 83.4879 119.726 83.4848 119.728C83.4832 119.728 83.482 119.729 83.4813 119.729C83.4809 119.729 83.4806 119.729 83.4805 119.729C83.4803 119.729 83.4803 119.729 83.7657 120.423ZM113.47 100.993C113.719 98.8726 113.406 96.3856 112.829 93.8882C112.248 91.3808 111.388 88.8114 110.504 86.5073C109.619 84.2013 108.706 82.1489 108.013 80.6734C107.667 79.9352 107.376 79.3405 107.171 78.9295C107.068 78.7239 106.987 78.5643 106.931 78.4556C106.903 78.4012 106.882 78.3595 106.867 78.3312C106.86 78.3171 106.854 78.3063 106.85 78.2989C106.848 78.2952 106.847 78.2923 106.846 78.2904C106.845 78.2894 106.845 78.2886 106.845 78.288C106.845 78.2878 106.844 78.2875 106.844 78.2874C106.844 78.2872 106.844 78.287 106.18 78.635C105.515 78.983 105.515 78.983 105.515 78.983C105.515 78.9831 105.515 78.9831 105.516 78.9833C105.516 78.9836 105.516 78.9841 105.516 78.9849C105.517 78.9864 105.518 78.9887 105.52 78.9919C105.523 78.9983 105.528 79.0081 105.535 79.0212C105.549 79.0475 105.569 79.087 105.596 79.1392C105.649 79.2437 105.728 79.3987 105.828 79.5994C106.029 80.0008 106.315 80.5846 106.655 81.3105C107.337 82.763 108.235 84.7811 109.104 87.0447C109.973 89.3102 110.808 91.8094 111.367 94.2264C111.929 96.6534 112.2 98.9464 111.98 100.818L113.47 100.993ZM106.866 78.3322L105.591 75.4445L104.219 76.0502L105.494 78.9378L106.866 78.3322Z" fill="#6B9EB6"/>
<path d="M72.7608 113.898C71.6922 114.65 70.5789 115.328 69.428 115.928C68.9281 116.034 67.0151 119.881 66.2152 120.307C65.4154 120.733 64.3089 121.727 64.8821 122.238C65.4554 122.749 66.4885 123.515 67.1951 123.302C67.9016 123.089 69.4014 121.059 69.9013 120.413C70.7574 119.569 71.6635 118.785 72.6142 118.064L72.7608 113.898Z" fill="white" stroke="#154F5B" stroke-miterlimit="10" stroke-linejoin="round"/>
<path d="M72.2607 113.082C72.3113 112.922 72.4173 112.788 72.5571 112.707C72.697 112.627 72.8603 112.606 73.014 112.649C74.0871 112.947 76.3468 113.622 76.1735 114.111C75.9735 114.75 73.2606 124.375 72.5607 124.481C71.8608 124.588 69.2279 125.12 69.2279 124.162C69.2279 123.204 71.4675 115.51 72.2607 113.082Z" fill="white" stroke="#154F5B" stroke-miterlimit="10" stroke-linejoin="round"/>
<path d="M76.1735 114.112C76.1735 114.112 78.9863 114.112 79.1863 115.177C79.3863 116.241 76.0735 125.014 75.5735 125.547C75.0736 126.079 72.5607 125.334 72.5607 124.482C72.5607 123.63 76.1735 114.112 76.1735 114.112Z" fill="white" stroke="#154F5B" stroke-miterlimit="10" stroke-linejoin="round"/>
<path d="M79.1864 115.178C79.1864 115.178 82.0993 115.824 82.0993 116.676C82.0993 117.527 79.0864 125.903 78.7665 126.087C78.0945 126.221 77.4006 126.147 76.7668 125.874C76.3668 125.661 76.1668 124.455 76.1668 124.455L79.1864 115.178Z" fill="white" stroke="#154F5B" stroke-miterlimit="10" stroke-linejoin="round"/>
<path d="M82.0993 116.673C82.0993 116.673 84.8055 118.71 84.3056 120.527C83.8057 122.344 82.4992 125.226 81.8994 125.546C81.5426 125.63 81.1714 125.615 80.8214 125.504C80.4713 125.392 80.154 125.186 79.8997 124.907L79.7997 124.587L79.8997 124.055L82.0993 116.673Z" fill="white" stroke="#154F5B" stroke-miterlimit="10" stroke-linejoin="round"/>
<path d="M51.2422 154.536C51.2422 154.536 46.3164 149.548 38.5643 148.235C30.5819 149.235 31.521 154.235 34.8078 156.135C38.0947 158.036 51.2422 162.136 51.2422 162.136C54.3306 161.925 61.8065 157.649 63.4505 156.135L54.529 152.635L51.2422 154.536Z" fill="white"/>
<path d="M51.2422 154.536L50.7085 155.063C50.9484 155.306 51.3221 155.356 51.6176 155.185L51.2422 154.536ZM38.5643 148.235L38.6896 147.495C38.6173 147.483 38.5437 147.482 38.4711 147.491L38.5643 148.235ZM51.2422 162.136L51.0189 162.852C51.1075 162.879 51.2006 162.89 51.2932 162.884L51.2422 162.136ZM54.529 152.635L54.8029 151.937C54.5903 151.854 54.3513 151.872 54.1536 151.986L54.529 152.635ZM63.4505 156.135L63.9585 156.687C64.1487 156.512 64.2353 156.251 64.1877 155.997C64.1401 155.743 63.965 155.531 63.7244 155.437L63.4505 156.135ZM51.2422 154.536C51.7758 154.009 51.7756 154.009 51.7754 154.008C51.7753 154.008 51.7751 154.008 51.7749 154.008C51.7745 154.007 51.7741 154.007 51.7736 154.006C51.7725 154.005 51.7711 154.004 51.7695 154.002C51.7662 153.999 51.7616 153.994 51.7559 153.989C51.7445 153.977 51.7283 153.962 51.7073 153.941C51.6654 153.901 51.6046 153.842 51.5254 153.769C51.3669 153.622 51.1348 153.414 50.8329 153.161C50.2295 152.656 49.346 151.971 48.2151 151.246C45.9563 149.798 42.6921 148.173 38.6896 147.495L38.439 148.974C42.1886 149.609 45.2634 151.135 47.4054 152.509C48.475 153.195 49.3075 153.84 49.8699 154.311C50.151 154.546 50.3642 154.738 50.5054 154.869C50.576 154.934 50.6286 154.985 50.6626 155.018C50.6796 155.034 50.692 155.046 50.6997 155.054C50.7035 155.058 50.7062 155.06 50.7077 155.062C50.7084 155.063 50.7088 155.063 50.709 155.063C50.7091 155.063 50.7091 155.063 50.709 155.063C50.709 155.063 50.7088 155.063 50.7088 155.063C50.7087 155.063 50.7085 155.063 51.2422 154.536ZM38.4711 147.491C34.3856 148.002 32.185 149.592 31.7274 151.687C31.2812 153.731 32.6202 155.737 34.4324 156.785L35.1833 155.486C33.7087 154.633 32.9347 153.189 33.1928 152.007C33.4395 150.878 34.7606 149.467 38.6575 148.979L38.4711 147.491ZM54.1536 151.986L50.8668 153.886L51.6176 155.185L54.9044 153.285L54.1536 151.986ZM34.4324 156.785C35.3115 157.293 36.8009 157.924 38.4932 158.575C40.2005 159.231 42.1621 159.925 44.0152 160.558C45.8693 161.191 47.6197 161.764 48.9063 162.179C49.5498 162.387 50.0775 162.555 50.4445 162.671C50.628 162.729 50.7714 162.774 50.869 162.805C50.9178 162.82 50.9552 162.832 50.9804 162.839C50.993 162.843 51.0026 162.846 51.009 162.848C51.0122 162.849 51.0147 162.85 51.0163 162.851C51.0172 162.851 51.0178 162.851 51.0182 162.851C51.0184 162.851 51.0186 162.851 51.0187 162.851C51.0188 162.852 51.0189 162.852 51.2422 162.136C51.4654 161.42 51.4654 161.42 51.4653 161.419C51.4652 161.419 51.4651 161.419 51.4649 161.419C51.4646 161.419 51.464 161.419 51.4632 161.419C51.4617 161.418 51.4594 161.418 51.4562 161.417C51.45 161.415 51.4407 161.412 51.4283 161.408C51.4036 161.4 51.3667 161.389 51.3184 161.373C51.2218 161.343 51.0795 161.298 50.8971 161.241C50.5323 161.125 50.0072 160.958 49.3667 160.751C48.0854 160.338 46.3435 159.768 44.4999 159.138C42.6553 158.508 40.7137 157.821 39.0315 157.175C37.3342 156.522 35.9476 155.928 35.1833 155.486L34.4324 156.785ZM51.2932 162.884C52.1843 162.823 53.3186 162.481 54.4947 162.02C55.6881 161.554 56.9889 160.939 58.2351 160.289C60.6998 159.002 63.0576 157.516 63.9585 156.687L62.9425 155.583C62.1994 156.268 59.9973 157.677 57.5409 158.959C56.3265 159.593 55.0766 160.182 53.9482 160.624C52.8025 161.072 51.8442 161.343 51.1912 161.387L51.2932 162.884ZM63.7244 155.437L54.8029 151.937L54.2551 153.333L63.1766 156.833L63.7244 155.437Z" fill="#6B9EB6"/>
<path d="M106.929 110.804C106.929 110.804 94.0136 117.631 86.9281 123.635C79.8426 129.64 70.1678 133.925 68.8213 134.635C66.4042 135.909 64.7305 140.824 61.8691 141.097C61.3492 141.147 61.0359 146.385 61.8158 149.863C62.5957 153.341 67.9282 156.628 68.8213 156.926C69.7145 157.224 79.9596 153.561 88.2649 149.878C96.5702 146.194 112.974 138.17 117.267 134.635C130.127 125.411 129.359 117.973 127.779 110.804C122.145 103.635 111.854 107.419 106.929 110.804Z" fill="white" stroke="#6B9EB6" stroke-width="1.5" stroke-miterlimit="10" stroke-linejoin="round"/>
<path d="M19.8026 106.105C24.3552 106.446 38.7463 111.822 48.6447 122.135C59.7519 129.652 76.4728 141.635 90.8629 149.154L105.537 145.79C116.91 149.154 102.893 155.135 93.0323 161.135C92.2721 161.598 79.4153 158.635 79.4153 158.635C79.4153 158.635 58.9497 154.626 48.6447 150.353C38.3397 146.08 24.3619 139.301 19.8026 136.135C8.66725 128.404 -1.49093 104.512 19.8026 106.105Z" fill="white"/>
<path d="M48.6447 122.135L48.1036 122.655C48.1402 122.693 48.1806 122.727 48.2243 122.756L48.6447 122.135ZM19.8026 106.105L19.8586 105.357H19.8586L19.8026 106.105ZM19.8026 136.135L19.3749 136.751V136.751L19.8026 136.135ZM79.4153 158.635L79.5837 157.904C79.5757 157.903 79.5676 157.901 79.5595 157.899L79.4153 158.635ZM90.8629 149.154L90.5156 149.818C90.6739 149.901 90.8564 149.925 91.0305 149.885L90.8629 149.154ZM105.537 145.79L105.75 145.07C105.626 145.034 105.495 145.03 105.37 145.059L105.537 145.79ZM93.0323 161.135L93.4222 161.776L93.0323 161.135ZM49.1858 121.616C44.1606 116.38 38.0101 112.411 32.5518 109.709C27.117 107.018 22.2783 105.539 19.8586 105.357L19.7467 106.853C21.8795 107.013 26.5127 108.392 31.8862 111.053C37.2362 113.702 43.2303 117.577 48.1036 122.655L49.1858 121.616ZM19.3749 136.751C24.0071 139.968 38.0523 146.773 48.3574 151.046L48.932 149.66C38.627 145.388 24.7168 138.634 20.2304 135.519L19.3749 136.751ZM48.3574 151.046C53.57 153.207 61.3141 155.289 67.7194 156.826C70.9294 157.596 73.8162 158.232 75.9004 158.676C76.9427 158.897 77.7846 159.071 78.3662 159.19C78.6571 159.249 78.8829 159.294 79.0362 159.325C79.1129 159.34 79.1714 159.352 79.2108 159.359C79.2306 159.363 79.2455 159.366 79.2556 159.368C79.2607 159.369 79.2645 159.37 79.2671 159.37C79.2684 159.371 79.2694 159.371 79.27 159.371C79.2704 159.371 79.2706 159.371 79.2708 159.371C79.271 159.371 79.2711 159.371 79.4153 158.635C79.5595 157.899 79.5594 157.899 79.5593 157.899C79.5592 157.899 79.559 157.899 79.5587 157.899C79.5581 157.899 79.5572 157.899 79.5561 157.899C79.5537 157.898 79.5501 157.897 79.5452 157.896C79.5356 157.895 79.521 157.892 79.5017 157.888C79.4631 157.88 79.4054 157.869 79.3297 157.854C79.1782 157.823 78.9542 157.778 78.6653 157.72C78.0876 157.602 77.2501 157.429 76.2127 157.208C74.1376 156.767 71.2639 156.134 68.0693 155.367C61.6657 153.831 54.0244 151.772 48.932 149.66L48.3574 151.046ZM91.0305 149.885L105.705 146.521L105.37 145.059L90.6953 148.423L91.0305 149.885ZM91.2102 148.489C76.8696 140.996 60.2029 129.051 49.065 121.514L48.2243 122.756C59.3009 130.252 76.076 142.274 90.5156 149.818L91.2102 148.489ZM79.4153 158.635C79.2469 159.366 79.247 159.366 79.2471 159.366C79.2472 159.366 79.2473 159.366 79.2475 159.366C79.248 159.366 79.2486 159.366 79.2494 159.367C79.251 159.367 79.2533 159.368 79.2565 159.368C79.2628 159.37 79.2721 159.372 79.2843 159.375C79.3089 159.38 79.3452 159.389 79.3926 159.4C79.4874 159.421 79.6263 159.453 79.8033 159.493C80.1572 159.573 80.6635 159.688 81.2733 159.823C82.4927 160.094 84.1275 160.451 85.7872 160.793C87.4447 161.135 89.1356 161.465 90.4639 161.68C91.1262 161.787 91.7122 161.869 92.1643 161.908C92.3885 161.927 92.5977 161.938 92.7746 161.933C92.8628 161.931 92.9587 161.924 93.0526 161.908C93.1329 161.894 93.2783 161.864 93.4222 161.776L92.6425 160.495C92.6967 160.462 92.7413 160.446 92.7623 160.439C92.785 160.432 92.7991 160.43 92.8001 160.429C92.8008 160.429 92.7814 160.432 92.7336 160.434C92.6387 160.436 92.4937 160.431 92.2936 160.413C91.8971 160.379 91.354 160.305 90.7039 160.199C89.4078 159.989 87.742 159.665 86.0903 159.324C84.4407 158.984 82.8138 158.629 81.5988 158.359C80.9914 158.224 80.4873 158.11 80.1352 158.03C79.9591 157.99 79.8211 157.959 79.7271 157.937C79.6802 157.927 79.6442 157.918 79.6201 157.913C79.608 157.91 79.5988 157.908 79.5928 157.906C79.5897 157.906 79.5874 157.905 79.5859 157.905C79.5852 157.905 79.5846 157.905 79.5842 157.905C79.584 157.904 79.5839 157.904 79.5838 157.904C79.5837 157.904 79.5837 157.904 79.4153 158.635ZM105.324 146.509C106.709 146.918 107.642 147.35 108.229 147.776C108.809 148.196 108.989 148.561 109.023 148.849C109.059 149.156 108.951 149.565 108.566 150.108C108.184 150.647 107.582 151.243 106.777 151.889C105.17 153.182 102.895 154.572 100.37 156.03C97.8675 157.475 95.1164 158.989 92.6425 160.495L93.4222 161.776C95.8786 160.281 98.5774 158.798 101.121 157.329C103.642 155.873 106.009 154.432 107.717 153.058C108.571 152.372 109.294 151.676 109.79 150.975C110.284 150.277 110.608 149.497 110.513 148.676C110.415 147.837 109.902 147.136 109.11 146.562C108.326 145.993 107.209 145.502 105.75 145.07L105.324 146.509ZM19.8586 105.357C14.4228 104.951 10.7786 106.154 8.68888 108.544C6.60547 110.927 6.24921 114.283 6.90474 117.762C7.56283 121.255 9.26035 125.01 11.4851 128.371C13.7102 131.733 16.4959 134.752 19.3749 136.751L20.2304 135.519C17.5417 133.652 14.8818 130.786 12.7359 127.543C10.5896 124.3 8.9905 120.731 8.37881 117.485C7.76457 114.224 8.16535 111.422 9.81811 109.532C11.4646 107.649 14.5357 106.463 19.7467 106.853L19.8586 105.357Z" fill="#6B9EB6"/>
<path d="M97.6035 81.6602H33.0471V126.142H97.6035V81.6602Z" fill="white" stroke="#6B9EB6" stroke-miterlimit="10" stroke-linejoin="round"/>
<path d="M97.6035 81.6602H33.0471V123.31H97.6035V81.6602Z" fill="white" stroke="#6B9EB6" stroke-width="1.5" stroke-miterlimit="10" stroke-linejoin="round"/>
<path d="M68.5081 102.478C68.5081 101.807 68.3212 101.151 67.9711 100.593C67.621 100.035 67.1234 99.6005 66.5412 99.3437C65.959 99.0869 65.3184 99.0197 64.7003 99.1506C64.0823 99.2815 63.5145 99.6047 63.0689 100.079C62.6234 100.554 62.3199 101.158 62.197 101.816C62.074 102.474 62.1371 103.157 62.3783 103.777C62.6194 104.397 63.0278 104.926 63.5518 105.299C64.0757 105.672 64.6917 105.871 65.3219 105.871C66.1669 105.871 66.9773 105.514 67.5748 104.877C68.1724 104.241 68.5081 103.378 68.5081 102.478V102.478Z" stroke="#6B9EB6" stroke-miterlimit="10" stroke-linejoin="round"/>
<path d="M44.903 12.3215L44.5988 11.636C44.5622 11.6522 44.527 11.6713 44.4935 11.6932L44.903 12.3215ZM41.7576 31.0849L41.2109 31.5983C41.4531 31.8562 41.8425 31.9098 42.1454 31.7268C42.4482 31.5439 42.582 31.1742 42.4664 30.8399L41.7576 31.0849ZM42.0313 36.1783V36.9283C42.0431 36.9283 42.0548 36.928 42.0666 36.9274L42.0313 36.1783ZM61.8598 41.8164L62.3801 42.3565L61.8598 41.8164ZM44.903 12.3215C44.4935 11.6932 44.4933 11.6933 44.4931 11.6934C44.493 11.6935 44.4928 11.6936 44.4926 11.6937C44.4923 11.694 44.4918 11.6943 44.4912 11.6947C44.49 11.6954 44.4885 11.6964 44.4865 11.6977C44.4826 11.7003 44.4771 11.7039 44.47 11.7086C44.4559 11.7179 44.4357 11.7314 44.4097 11.7489C44.3577 11.7838 44.2828 11.8347 44.1883 11.9003C43.9995 12.0315 43.7321 12.2219 43.4138 12.4615C42.7787 12.9396 41.9332 13.6191 41.1016 14.4199C40.274 15.2169 39.4364 16.1564 38.8378 17.1573C38.2445 18.1494 37.8359 19.2862 38.0096 20.441L39.4929 20.218C39.3928 19.5523 39.6164 18.7779 40.1252 17.9272C40.6287 17.0852 41.3633 16.2503 42.1421 15.5004C42.9168 14.7543 43.712 14.1145 44.3159 13.6599C44.617 13.4333 44.8688 13.254 45.0442 13.1322C45.1318 13.0713 45.2003 13.0248 45.2462 12.994C45.2691 12.9785 45.2864 12.9671 45.2976 12.9596C45.3032 12.9559 45.3073 12.9532 45.3098 12.9516C45.3111 12.9508 45.312 12.9502 45.3124 12.9499C45.3127 12.9497 45.3128 12.9496 45.3128 12.9496C45.3128 12.9496 45.3128 12.9497 45.3128 12.9496C45.3127 12.9497 45.3126 12.9498 44.903 12.3215ZM38.0096 20.441C38.2925 22.3229 39.06 25.0603 39.7425 27.2919C40.0861 28.4153 40.4123 29.4239 40.6527 30.1515C40.7729 30.5155 40.8717 30.8094 40.9405 31.0127C40.9749 31.1143 41.0019 31.1933 41.0203 31.247C41.0295 31.2739 41.0365 31.2944 41.0413 31.3083C41.0437 31.3153 41.0455 31.3206 41.0468 31.3242C41.0474 31.326 41.0479 31.3274 41.0482 31.3283C41.0484 31.3288 41.0485 31.3292 41.0486 31.3294C41.0486 31.3295 41.0487 31.3297 41.0487 31.3297C41.0487 31.3298 41.0487 31.3299 41.7576 31.0849C42.4664 30.8399 42.4664 30.8399 42.4664 30.8399C42.4664 30.8398 42.4664 30.8398 42.4664 30.8397C42.4663 30.8395 42.4662 30.8392 42.4661 30.8388C42.4658 30.838 42.4654 30.8368 42.4648 30.8352C42.4637 30.8319 42.462 30.827 42.4597 30.8204C42.4552 30.8071 42.4484 30.7873 42.4394 30.7612C42.4215 30.7089 42.3951 30.6315 42.3612 30.5314C42.2934 30.3314 42.1959 30.0411 42.077 29.6811C41.8392 28.961 41.5165 27.9634 41.1769 26.8532C40.4931 24.6172 39.7574 21.977 39.4929 20.218L38.0096 20.441ZM41.7576 31.0849C42.3043 30.5714 42.3041 30.5713 42.304 30.5711C42.3039 30.571 42.3037 30.5708 42.3035 30.5706C42.3033 30.5703 42.3029 30.57 42.3026 30.5696C42.3018 30.5688 42.3009 30.5679 42.2999 30.5668C42.2978 30.5646 42.2951 30.5618 42.2919 30.5584C42.2854 30.5516 42.2765 30.5424 42.2654 30.5311C42.2432 30.5085 42.2121 30.4773 42.1733 30.4397C42.096 30.3649 41.9862 30.2629 41.8537 30.1515C41.6002 29.9385 41.2169 29.6515 40.7916 29.4802C40.3805 29.3146 39.7174 29.181 39.1503 29.6464C38.6396 30.0655 38.4503 30.7907 38.4147 31.6363L39.9134 31.6993C39.9451 30.9442 40.1136 30.7963 40.1019 30.8059C40.0337 30.8619 40.0106 30.7827 40.231 30.8715C40.4373 30.9546 40.6771 31.1221 40.8888 31.3C40.9889 31.3841 41.0723 31.4616 41.13 31.5175C41.1587 31.5452 41.1806 31.5672 41.1945 31.5814C41.2014 31.5885 41.2064 31.5936 41.2092 31.5965C41.2106 31.598 41.2114 31.5989 41.2117 31.5992C41.2119 31.5993 41.2119 31.5993 41.2117 31.5992C41.2116 31.5991 41.2115 31.599 41.2114 31.5989C41.2113 31.5988 41.2112 31.5986 41.2112 31.5986C41.211 31.5985 41.2109 31.5983 41.7576 31.0849ZM38.4147 31.6363C38.3389 33.4393 38.9586 34.7554 39.7315 35.6225C40.113 36.0505 40.5294 36.3668 40.9127 36.5795C41.2715 36.7786 41.6763 36.9283 42.0313 36.9283V35.4283C42.0453 35.4283 41.9044 35.4143 41.6406 35.2679C41.4013 35.1351 41.1182 34.9239 40.8513 34.6245C40.3275 34.0367 39.8546 33.0976 39.9134 31.6993L38.4147 31.6363ZM42.0666 36.9274C42.6495 36.9 43.2259 36.7903 43.7805 36.6016L43.2974 35.1815C42.8752 35.3252 42.4376 35.4083 41.996 35.4291L42.0666 36.9274ZM62.3801 42.3565C63.9581 40.8361 64.5145 39.085 64.6804 37.2558C64.7623 36.3529 64.7501 35.4229 64.7198 34.4954C64.6892 33.5543 64.6408 32.6285 64.6408 31.6678H63.1408C63.1408 32.661 63.1912 33.641 63.2206 34.5443C63.2505 35.4612 63.2596 36.3143 63.1865 37.1203C63.0424 38.7086 62.5833 40.0778 61.3394 41.2763L62.3801 42.3565ZM64.6408 31.6678C64.6408 30.817 64.4291 29.5713 64.1289 28.2132C63.8246 26.8363 63.4147 25.2817 62.9899 23.7847C62.1419 20.7966 61.2217 17.9935 60.9375 17.2371L59.5333 17.7646C59.7966 18.4656 60.704 21.2241 61.5469 24.1942C61.9675 25.6763 62.3688 27.1999 62.6643 28.5369C62.964 29.8928 63.1408 30.9967 63.1408 31.6678H64.6408ZM60.9375 17.2371C60.465 15.9791 60.2279 12.4886 56.083 10.4223L55.4137 11.7647C58.8789 13.4922 58.911 16.108 59.5333 17.7646L60.9375 17.2371ZM56.083 10.4223C54.9819 9.87339 53.693 9.70767 52.4321 9.73532C51.1647 9.76311 49.8709 9.98768 48.7214 10.2674C47.5691 10.5479 46.5425 10.8885 45.8048 11.1585C45.4353 11.2938 45.1367 11.4119 44.9292 11.4967C44.8254 11.5391 44.7443 11.5733 44.6884 11.5971C44.6605 11.6091 44.6388 11.6184 44.6238 11.625C44.6162 11.6283 44.6104 11.6308 44.6062 11.6327C44.6041 11.6336 44.6024 11.6343 44.6012 11.6349C44.6006 11.6352 44.6001 11.6354 44.5997 11.6356C44.5995 11.6357 44.5992 11.6358 44.5991 11.6358C44.5989 11.6359 44.5988 11.636 44.903 12.3215C45.2073 13.007 45.2072 13.007 45.2071 13.0071C45.2071 13.0071 45.207 13.0071 45.2071 13.0071C45.2071 13.0071 45.2072 13.007 45.2074 13.0069C45.2079 13.0067 45.2088 13.0063 45.2101 13.0057C45.2127 13.0046 45.217 13.0027 45.2229 13.0001C45.2348 12.995 45.2531 12.987 45.2777 12.9766C45.3268 12.9556 45.4006 12.9244 45.4968 12.8851C45.6892 12.8065 45.9703 12.6953 46.3203 12.5672C47.0215 12.3105 47.9928 11.9886 49.0761 11.7249C50.1623 11.4605 51.3421 11.2596 52.4649 11.235C53.5942 11.2102 54.6123 11.3652 55.4137 11.7647L56.083 10.4223ZM61.3394 41.2763C58.6358 43.8811 55.2218 43.2823 52.2469 41.8265C50.7776 41.1074 49.4826 40.2067 48.5507 39.4805C48.0862 39.1186 47.7154 38.8026 47.462 38.5785C47.3354 38.4665 47.2384 38.3776 47.1738 38.3176C47.1416 38.2876 47.1175 38.2648 47.1019 38.25C47.0941 38.2425 47.0884 38.2371 47.085 38.2338C47.0832 38.2321 47.082 38.2309 47.0814 38.2303C47.0811 38.23 47.0809 38.2298 47.0808 38.2298C47.0808 38.2298 47.0809 38.2298 47.0809 38.2298C47.081 38.2299 47.0811 38.2301 46.5582 38.7677C46.0354 39.3054 46.0356 39.3056 46.0358 39.3059C46.036 39.306 46.0362 39.3063 46.0365 39.3065C46.037 39.307 46.0377 39.3076 46.0385 39.3084C46.04 39.31 46.0422 39.312 46.0449 39.3146C46.0503 39.3198 46.0579 39.3271 46.0677 39.3364C46.0873 39.3551 46.1155 39.3817 46.1521 39.4157C46.2251 39.4838 46.3315 39.5811 46.4681 39.702C46.7412 39.9436 47.1361 40.2799 47.6287 40.6637C48.6109 41.4291 49.9954 42.3946 51.5876 43.1738C54.7355 44.7143 58.9723 45.6398 62.3801 42.3565L61.3394 41.2763Z" fill="#6B9EB6"/>
<path d="M55.7079 11.1562C54.4408 10.5242 52.8303 7.27162 51.242 6.99977C48.027 6.44948 51.0548 7.84337 44.903 9.49977C38.7512 11.1562 34.8077 15.4126 38.7512 20.33C39.2986 23.9709 41.7576 31.0854 41.7576 31.0854C41.7576 31.0854 42.9915 32.3946 43.6736 31.6683C44.3556 30.942 41.8787 27.5926 41.8787 27.5926C41.8787 27.5926 42.0133 26.2787 42.0133 24.8261C42.0133 23.3736 44.0268 21.7873 43.071 20.33C42.1153 18.8727 42.8704 16.9479 44.903 16.5083C46.9357 16.0688 50.9023 16.287 52.5445 15.4126C54.1868 14.5382 54.3902 13.2211 54.3902 13.2211C54.3902 13.2211 55.7003 14.3169 57.4772 14.3169C57.4772 13.2211 57.4772 8.4998 55.7169 11.1562H55.7079Z" fill="#6B9EB6"/>
<path d="M55.7079 11.1562L55.4848 11.6036C55.5541 11.6382 55.6305 11.6562 55.7079 11.6562V11.1562ZM38.7512 20.33L39.2457 20.2557C39.2325 20.1684 39.1965 20.0861 39.1413 20.0172L38.7512 20.33ZM41.7576 31.0854L41.285 31.2487C41.3081 31.3156 41.3452 31.3768 41.3937 31.4283L41.7576 31.0854ZM41.8787 27.5926L41.3813 27.5417C41.3686 27.6656 41.4026 27.7898 41.4767 27.8899L41.8787 27.5926ZM54.3902 13.2211L54.7109 12.8376C54.5726 12.7219 54.3826 12.6896 54.2138 12.7533C54.045 12.8169 53.9235 12.9666 53.896 13.1448L54.3902 13.2211ZM57.4772 14.3169V14.8169C57.7533 14.8169 57.9772 14.593 57.9772 14.3169H57.4772ZM55.7169 11.1562V11.6562C55.8846 11.6562 56.0411 11.5721 56.1337 11.4324L55.7169 11.1562ZM51.242 6.99977L51.1577 7.4926L51.242 6.99977ZM44.773 9.01696C41.6399 9.86056 38.9829 11.386 37.6258 13.4139C36.9405 14.4381 36.5865 15.5933 36.6852 16.8358C36.7837 18.0743 37.3282 19.3547 38.3612 20.6428L39.1413 20.0172C38.2025 18.8466 37.7611 17.7509 37.6821 16.7566C37.6034 15.7662 37.8803 14.8317 38.4569 13.9701C39.6237 12.2264 42.0143 10.7954 45.033 9.98257L44.773 9.01696ZM38.2568 20.4044C38.5367 22.2657 39.2988 24.987 39.9815 27.2193C40.3245 28.3405 40.6501 29.3473 40.89 30.0737C41.01 30.4369 41.1086 30.7303 41.1773 30.933C41.2116 31.0343 41.2385 31.1131 41.2568 31.1665C41.2659 31.1933 41.273 31.2137 41.2777 31.2275C41.2801 31.2344 41.2819 31.2397 41.2831 31.2432C41.2837 31.245 41.2842 31.2463 41.2845 31.2473C41.2847 31.2477 41.2848 31.2481 41.2849 31.2483C41.2849 31.2484 41.2849 31.2485 41.285 31.2486C41.285 31.2487 41.285 31.2487 41.7576 31.0854C42.2301 30.9221 42.2301 30.9221 42.2301 30.922C42.2301 30.922 42.2301 30.9219 42.2301 30.9218C42.23 30.9216 42.2299 30.9213 42.2298 30.9209C42.2295 30.9201 42.2291 30.9189 42.2285 30.9172C42.2273 30.9139 42.2256 30.9089 42.2233 30.9022C42.2187 30.8889 42.2119 30.8689 42.2029 30.8427C42.1849 30.7901 42.1584 30.7124 42.1244 30.6122C42.0565 30.4116 41.9587 30.1207 41.8396 29.76C41.6013 29.0387 41.2781 28.0392 40.9378 26.9268C40.2542 24.6916 39.5132 22.0352 39.2457 20.2557L38.2568 20.4044ZM41.7576 31.0854C41.3937 31.4283 41.3938 31.4284 41.3939 31.4285C41.394 31.4286 41.3941 31.4287 41.3942 31.4288C41.3943 31.429 41.3945 31.4291 41.3947 31.4294C41.3951 31.4298 41.3956 31.4303 41.3961 31.4309C41.3972 31.432 41.3986 31.4335 41.4004 31.4353C41.4038 31.4389 41.4084 31.4436 41.4141 31.4495C41.4256 31.4613 41.4417 31.4775 41.4619 31.4973C41.5023 31.5368 41.5596 31.5913 41.6304 31.6536C41.77 31.7767 41.9705 31.9386 42.2023 32.0778C42.4279 32.2133 42.7205 32.3503 43.038 32.3813C43.3797 32.4145 43.7458 32.3218 44.038 32.0106L43.3091 31.326C43.2603 31.378 43.2164 31.3939 43.1349 31.386C43.0292 31.3757 42.8854 31.3216 42.7173 31.2206C42.5553 31.1233 42.4048 31.0033 42.2917 30.9036C42.2361 30.8545 42.1917 30.8124 42.1619 30.7832C42.1471 30.7686 42.136 30.7574 42.1291 30.7503C42.1256 30.7468 42.1232 30.7443 42.1219 30.7429C42.1213 30.7423 42.1209 30.7419 42.1208 30.7418C42.1208 30.7418 42.1208 30.7418 42.1209 30.7419C42.121 30.7419 42.121 30.742 42.1211 30.7421C42.1212 30.7422 42.1212 30.7422 42.1213 30.7423C42.1213 30.7423 42.1214 30.7424 41.7576 31.0854ZM44.038 32.0106C44.2468 31.7883 44.2957 31.5065 44.2922 31.2771C44.2887 31.0451 44.2318 30.8008 44.156 30.5695C44.0037 30.1043 43.7378 29.5824 43.4653 29.1088C43.1899 28.63 42.8941 28.1773 42.6684 27.8459C42.5552 27.6797 42.459 27.543 42.3908 27.4475C42.3566 27.3997 42.3295 27.3621 42.3107 27.3363C42.3013 27.3234 42.294 27.3134 42.289 27.3065C42.2864 27.3031 42.2845 27.3004 42.2831 27.2985C42.2824 27.2976 42.2819 27.2969 42.2815 27.2963C42.2813 27.2961 42.2811 27.2958 42.281 27.2957C42.2809 27.2956 42.2809 27.2955 42.2808 27.2955C42.2808 27.2954 42.2807 27.2953 41.8787 27.5926C41.4767 27.8899 41.4767 27.8899 41.4767 27.8899C41.4767 27.8899 41.4767 27.8899 41.4767 27.8899C41.4767 27.8899 41.4768 27.89 41.4769 27.8902C41.4771 27.8904 41.4774 27.8909 41.4779 27.8916C41.4789 27.893 41.4805 27.8951 41.4827 27.898C41.487 27.9039 41.4935 27.9128 41.502 27.9246C41.5192 27.9482 41.5446 27.9833 41.5769 28.0285C41.6415 28.119 41.7334 28.2496 41.8418 28.4088C42.0592 28.728 42.34 29.1581 42.5985 29.6075C42.86 30.062 43.0855 30.5136 43.2057 30.8807C43.2662 31.0655 43.2909 31.202 43.2923 31.2923C43.2937 31.385 43.2708 31.3668 43.3091 31.326L44.038 32.0106ZM41.8787 27.5926C42.3761 27.6436 42.3761 27.6436 42.3761 27.6435C42.3761 27.6435 42.3761 27.6435 42.3761 27.6434C42.3761 27.6434 42.3762 27.6433 42.3762 27.6431C42.3762 27.6429 42.3762 27.6426 42.3763 27.6422C42.3763 27.6414 42.3765 27.6403 42.3766 27.6389C42.3769 27.6361 42.3773 27.632 42.3778 27.6267C42.3789 27.6161 42.3804 27.6006 42.3823 27.5806C42.3861 27.5405 42.3915 27.4821 42.3979 27.4077C42.4108 27.2589 42.4279 27.0459 42.445 26.787C42.4791 26.27 42.5133 25.5668 42.5133 24.8261H41.5133C41.5133 25.538 41.4803 26.218 41.4471 26.7212C41.4305 26.9724 41.414 27.1786 41.4016 27.3215C41.3954 27.393 41.3903 27.4486 41.3868 27.4861C41.385 27.5048 41.3836 27.519 41.3827 27.5284C41.3822 27.533 41.3819 27.5365 41.3816 27.5387C41.3815 27.5399 41.3814 27.5407 41.3814 27.5412C41.3814 27.5414 41.3813 27.5416 41.3813 27.5417C41.3813 27.5417 41.3813 27.5417 41.3813 27.5417C41.3813 27.5417 41.3813 27.5417 41.3813 27.5417C41.3813 27.5417 41.3813 27.5417 41.8787 27.5926ZM42.5133 24.8261C42.5133 24.5723 42.6028 24.2802 42.7668 23.9257C42.9401 23.5511 43.1315 23.2318 43.3469 22.8052C43.7305 22.0455 44.1344 21.0396 43.4891 20.0558L42.6529 20.6042C42.9635 21.0777 42.8385 21.5936 42.4543 22.3545C42.2858 22.6882 42.0336 23.1289 41.8592 23.5058C41.6756 23.9028 41.5133 24.3537 41.5133 24.8261H42.5133ZM43.4891 20.0558C43.104 19.4685 43.0698 18.8037 43.3223 18.2428C43.5743 17.683 44.1321 17.1866 45.0087 16.997L44.7973 16.0196C43.6413 16.2696 42.8052 16.9555 42.4105 17.8323C42.0162 18.708 42.0823 19.7342 42.6529 20.6042L43.4891 20.0558ZM45.0087 16.997C45.9803 16.7869 47.4174 16.7348 48.9079 16.6221C49.6373 16.567 50.3698 16.4971 51.0285 16.3836C51.6802 16.2713 52.2983 16.1101 52.7795 15.8539L52.3096 14.9713C51.9696 15.1523 51.4761 15.2917 50.8586 15.3981C50.2482 15.5033 49.5541 15.5704 48.8325 15.6249C47.4209 15.7317 45.8584 15.7902 44.7973 16.0196L45.0087 16.997ZM52.7795 15.8539C53.69 15.3692 54.2165 14.7522 54.515 14.2411C54.6632 13.9873 54.7538 13.7621 54.8081 13.5956C54.8353 13.5123 54.8534 13.4434 54.8652 13.3926C54.8711 13.3672 54.8755 13.3463 54.8785 13.3303C54.8801 13.3223 54.8813 13.3155 54.8822 13.31C54.8827 13.3073 54.8831 13.3048 54.8835 13.3027C54.8836 13.3017 54.8838 13.3007 54.8839 13.2998C54.884 13.2994 54.8841 13.299 54.8841 13.2986C54.8842 13.2984 54.8842 13.2981 54.8842 13.298C54.8843 13.2977 54.8843 13.2974 54.3902 13.2211C53.896 13.1448 53.8961 13.1446 53.8961 13.1443C53.8961 13.1442 53.8962 13.144 53.8962 13.1438C53.8962 13.1435 53.8963 13.1432 53.8963 13.1429C53.8964 13.1423 53.8965 13.1419 53.8966 13.1414C53.8967 13.1406 53.8968 13.1401 53.8968 13.1399C53.8969 13.1394 53.8968 13.1401 53.8964 13.142C53.8957 13.1457 53.8941 13.1539 53.8912 13.1662C53.8855 13.1909 53.8749 13.2317 53.8574 13.2856C53.8222 13.3934 53.7593 13.5521 53.6514 13.7368C53.4376 14.1029 53.0414 14.5816 52.3096 14.9713L52.7795 15.8539ZM54.3902 13.2211C54.0694 13.6047 54.0695 13.6048 54.0697 13.6049C54.0697 13.6049 54.0699 13.6051 54.07 13.6051C54.0702 13.6053 54.0704 13.6055 54.0706 13.6057C54.0711 13.6061 54.0717 13.6066 54.0724 13.6072C54.0737 13.6082 54.0753 13.6096 54.0773 13.6112C54.0812 13.6144 54.0864 13.6187 54.0929 13.6238C54.1059 13.6342 54.1239 13.6484 54.1468 13.6658C54.1925 13.7007 54.2577 13.7487 54.3409 13.8054C54.5069 13.9186 54.7458 14.0677 55.0443 14.2165C55.6382 14.5125 56.4876 14.8169 57.4772 14.8169V13.8169C56.6899 13.8169 55.9958 13.5734 55.4904 13.3215C55.2392 13.1963 55.0396 13.0715 54.9044 12.9793C54.837 12.9333 54.786 12.8957 54.7531 12.8706C54.7367 12.8581 54.7248 12.8487 54.7177 12.843C54.7142 12.8402 54.7118 12.8383 54.7107 12.8373C54.7101 12.8369 54.7098 12.8367 54.7099 12.8367C54.7099 12.8367 54.71 12.8368 54.7102 12.8369C54.7103 12.837 54.7104 12.8371 54.7105 12.8372C54.7106 12.8373 54.7107 12.8374 54.7107 12.8374C54.7108 12.8375 54.7109 12.8376 54.3902 13.2211ZM57.9772 14.3169C57.9772 13.7839 57.9796 12.2702 57.7451 11.2205C57.6858 10.9547 57.6056 10.6908 57.4916 10.4703C57.3836 10.2615 57.2024 10.0087 56.899 9.90309C56.5642 9.78652 56.2478 9.90195 56.0031 10.0805C55.7647 10.2546 55.5333 10.528 55.3001 10.88L56.1337 11.4324C56.3406 11.1202 56.4943 10.9601 56.5928 10.8882C56.6851 10.8208 56.6574 10.8778 56.5702 10.8475C56.5143 10.828 56.5394 10.8061 56.6033 10.9297C56.6612 11.0415 56.7185 11.2116 56.7692 11.4385C56.9748 12.3593 56.9772 13.7541 56.9772 14.3169H57.9772ZM55.7169 10.6562H55.7079V11.6562H55.7169V10.6562ZM55.9311 10.7087C55.7077 10.5973 55.4241 10.3413 55.0726 9.94607C54.7273 9.55782 54.3735 9.10314 53.982 8.62585C53.6006 8.16079 53.1902 7.68317 52.7653 7.30258C52.3478 6.92863 51.863 6.59879 51.3264 6.50694L51.1577 7.4926C51.4152 7.53667 51.7273 7.71535 52.0981 8.04746C52.4615 8.37294 52.8307 8.79893 53.2088 9.25999C53.5769 9.70882 53.9626 10.2028 54.3253 10.6106C54.6818 11.0114 55.0746 11.399 55.4848 11.6036L55.9311 10.7087ZM51.3264 6.50694C50.5366 6.37176 50.0097 6.3287 49.6169 6.44633C49.176 6.57836 48.9537 6.90926 48.7929 7.09836C48.4663 7.48243 47.7894 8.20479 44.773 9.01696L45.033 9.98257C48.1684 9.13835 49.0535 8.33557 49.5547 7.74616C49.8078 7.44853 49.8159 7.43061 49.9037 7.40429C50.0397 7.36357 50.3399 7.35264 51.1577 7.4926L51.3264 6.50694Z" fill="#6B9EB6"/>
<path d="M50.7814 27.4783C51.235 27.4783 51.6028 27.0867 51.6028 26.6036C51.6028 26.1206 51.235 25.729 50.7814 25.729C50.3277 25.729 49.96 26.1206 49.96 26.6036C49.96 27.0867 50.3277 27.4783 50.7814 27.4783Z" fill="#6B9EB6"/>
<path d="M59.5402 24.3672C59.9938 24.3672 60.3615 23.9756 60.3615 23.4926C60.3615 23.0095 59.9938 22.6179 59.5402 22.6179C59.0865 22.6179 58.7188 23.0095 58.7188 23.4926C58.7188 23.9756 59.0865 24.3672 59.5402 24.3672Z" fill="#6B9EB6"/>
<path d="M50.0857 21.7816C50.0857 21.7816 47.1377 20.8498 46.1955 24.1228" stroke="#6B9EB6" stroke-miterlimit="10" stroke-linecap="round" stroke-linejoin="round"/>
<path d="M55.8022 20.8501C55.8022 20.8501 56.4304 18.9103 59.5669 19.8467" stroke="#6B9EB6" stroke-miterlimit="10" stroke-linecap="round" stroke-linejoin="round"/>
<path d="M59.3523 34.3518C58.0621 35.1583 56.5732 35.5314 55.0806 35.4221C52.6306 35.2214 52.1909 34.0173 52.1909 34.0173" stroke="#6B9EB6" stroke-miterlimit="10" stroke-linejoin="round"/>
<path d="M54.9766 24.9634C54.9766 24.9634 55.9486 28.7362 55.849 29.2925C55.7494 29.8489 54.51 29.4193 54.51 29.4193" stroke="#6B9EB6" stroke-miterlimit="10" stroke-linejoin="round"/>
</g>
</svg>
